# MagicaVoxel @ Ephtracy

# group
o 

# material
mtllib RainbowUnicorn-0.mtl
usemtl palette

# normals
vn 0 0 1
vn 0 0 -1
vn 1 0 0
vn -1 0 0
vn 0 -1 0
vn 0 1 0

# texcoords
vt 0.00585938 0.5
vt 0.216797 0.5
vt 0.341797 0.5
vt 0.447266 0.5
vt 0.580078 0.5
vt 0.802734 0.5
vt 0.908203 0.5

# verts
v 1.6 15.1 5
v 1 15.1 5
v 1.6 15.3 5
v 1 15.3 5
v 1.6 15.5 5
v 1 15.5 5
v 1.6 15 4.9
v 1 15 4.9
v 1.6 15.1 4.9
v 1 15.1 4.9
v 1.6 14.9 4.8
v 1 14.9 4.8
v 1.6 15 4.8
v 1 15 4.8
v 1.6 14.8 4.7
v 1 14.8 4.7
v 1.6 14.9 4.7
v 1 14.9 4.7
v 1.6 14.7 4.6
v 1 14.7 4.6
v 1.6 14.8 4.6
v 1 14.8 4.6
v 1.6 14.6 4.5
v 1 14.6 4.5
v 1.6 14.7 4.5
v 1 14.7 4.5
v 1.6 14.5 4.4
v 1 14.5 4.4
v 1.6 14.6 4.4
v 1 14.6 4.4
v 1.6 14.4 4.3
v 1 14.4 4.3
v 1.6 14.5 4.3
v 1 14.5 4.3
v 1.6 14.3 4.2
v 1 14.3 4.2
v 1.6 14.4 4.2
v 1 14.4 4.2
v 1.6 14.2 4.1
v 1 14.2 4.1
v 1.6 14.3 4.1
v 1 14.3 4.1
v 1.6 14.1 4
v 1 14.1 4
v 1.6 14.2 4
v 1 14.2 4
v 1.6 14 3.9
v 1 14 3.9
v 1.6 14.1 3.9
v 1 14.1 3.9
v 1.6 13.9 3.8
v 1 13.9 3.8
v 1.6 14 3.8
v 1 14 3.8
v 1.6 13.8 3.7
v 1 13.8 3.7
v 1.6 13.9 3.7
v 1 13.9 3.7
v 1.4 14.1 3.7
v 1.2 14.1 3.7
v 1.4 14.2 3.7
v 1.2 14.2 3.7
v 1.6 13.7 3.6
v 1 13.7 3.6
v 1.6 13.8 3.6
v 1 13.8 3.6
v 1.6 13.6 3.5
v 1 13.6 3.5
v 1.6 13.7 3.5
v 1 13.7 3.5
v 1.6 13.5 3.4
v 1 13.5 3.4
v 1.6 13.6 3.4
v 1 13.6 3.4
v 1.4 13.7 3.4
v 1.2 13.7 3.4
v 1.4 13.8 3.4
v 1.2 13.8 3.4
v 1.6 13.4 3.3
v 1 13.4 3.3
v 1.6 13.5 3.3
v 1 13.5 3.3
v 1.4 13.6 3.3
v 1.2 13.6 3.3
v 1.4 13.7 3.3
v 1.2 13.7 3.3
v 1.6 13.3 3.2
v 1 13.3 3.2
v 1.6 13.4 3.2
v 1 13.4 3.2
v 1.4 13.3 3
v 1.2 13.3 3
v 1.4 13.4 3
v 1.2 13.4 3
v 1.6 15.4 4.6
v 1 15.4 4.6
v 1.6 15.5 4.6
v 1 15.5 4.6
v 1.6 15.3 4.5
v 1 15.3 4.5
v 1.6 15.4 4.5
v 1 15.4 4.5
v 1.6 15.2 4.4
v 1 15.2 4.4
v 1.6 15.3 4.4
v 1 15.3 4.4
v 1.6 15.1 4.3
v 1 15.1 4.3
v 1.6 15.2 4.3
v 1 15.2 4.3
v 1.6 15 4.2
v 1 15 4.2
v 1.6 15.1 4.2
v 1 15.1 4.2
v 1.6 14.9 4.1
v 1 14.9 4.1
v 1.6 15 4.1
v 1 15 4.1
v 1.6 14.8 4
v 1 14.8 4
v 1.6 14.9 4
v 1 14.9 4
v 1.4 14.1 3.9
v 1.2 14.1 3.9
v 1.4 14.2 3.9
v 1.2 14.2 3.9
v 1.6 14.7 3.9
v 1 14.7 3.9
v 1.6 14.8 3.9
v 1 14.8 3.9
v 1.6 14.6 3.8
v 1 14.6 3.8
v 1.6 14.7 3.8
v 1 14.7 3.8
v 1.6 14.5 3.7
v 1 14.5 3.7
v 1.6 14.6 3.7
v 1 14.6 3.7
v 1.6 14.4 3.6
v 1 14.4 3.6
v 1.6 14.5 3.6
v 1 14.5 3.6
v 1.4 13.7 3.5
v 1.2 13.7 3.5
v 1.4 13.8 3.5
v 1.2 13.8 3.5
v 1.6 14.3 3.5
v 1 14.3 3.5
v 1.6 14.4 3.5
v 1 14.4 3.5
v 1.4 13.6 3.4
v 1.2 13.6 3.4
v 1.4 13.7 3.4
v 1.2 13.7 3.4
v 1.6 14.2 3.4
v 1 14.2 3.4
v 1.6 14.3 3.4
v 1 14.3 3.4
v 1.6 14.1 3.3
v 1 14.1 3.3
v 1.6 14.2 3.3
v 1 14.2 3.3
v 1.6 14 3.2
v 1 14 3.2
v 1.6 14.1 3.2
v 1 14.1 3.2
v 1.4 13.3 3.1
v 1.2 13.3 3.1
v 1.4 13.4 3.1
v 1.2 13.4 3.1
v 1.6 13.9 3.1
v 1 13.9 3.1
v 1.6 14 3.1
v 1 14 3.1
v 1.6 13.8 3
v 1 13.8 3
v 1.6 13.9 3
v 1 13.9 3
v 1.6 13.7 2.9
v 1 13.7 2.9
v 1.6 13.8 2.9
v 1 13.8 2.9
v 1.6 13.6 2.8
v 1 13.6 2.8
v 1.6 13.7 2.8
v 1 13.7 2.8
v 1.6 13.5 2.7
v 1 13.5 2.7
v 1.6 13.6 2.7
v 1 13.6 2.7
v 1.6 13.4 2.6
v 1 13.4 2.6
v 1.6 13.5 2.6
v 1 13.5 2.6
v 1.6 13.3 2.5
v 1 13.3 2.5
v 1.6 13.4 2.5
v 1 13.4 2.5
v 1.6 15.1 5
v 1.6 15.3 5
v 1.6 15.5 5
v 1.6 15 4.9
v 1.6 15.1 4.9
v 1.6 14.9 4.8
v 1.6 15 4.8
v 1.6 14.8 4.7
v 1.6 14.9 4.7
v 1.6 15.1 4.7
v 1.6 15.2 4.7
v 1.6 15.3 4.7
v 1.6 15.4 4.7
v 1.6 14.7 4.6
v 1.6 14.8 4.6
v 1.6 15.4 4.6
v 1.6 15.5 4.6
v 1.6 14.6 4.5
v 1.6 14.7 4.5
v 1.6 15.3 4.5
v 1.6 15.4 4.5
v 1.6 14.5 4.4
v 1.6 14.6 4.4
v 1.6 14.7 4.4
v 1.6 14.8 4.4
v 1.6 15.2 4.4
v 1.6 15.3 4.4
v 1.6 14.4 4.3
v 1.6 14.5 4.3
v 1.6 14.9 4.3
v 1.6 15 4.3
v 1.6 15.1 4.3
v 1.6 15.2 4.3
v 1.6 14.3 4.2
v 1.6 14.4 4.2
v 1.6 15 4.2
v 1.6 15.1 4.2
v 1.6 14.2 4.1
v 1.6 14.3 4.1
v 1.6 14.9 4.1
v 1.6 15 4.1
v 1.6 14.1 4
v 1.6 14.2 4
v 1.6 14.3 4
v 1.6 14.4 4
v 1.6 14.8 4
v 1.6 14.9 4
v 1.6 14 3.9
v 1.6 14.1 3.9
v 1.6 14.5 3.9
v 1.6 14.6 3.9
v 1.6 14.7 3.9
v 1.6 14.8 3.9
v 1.6 13.9 3.8
v 1.6 14 3.8
v 1.6 14.6 3.8
v 1.6 14.7 3.8
v 1.6 13.8 3.7
v 1.6 13.9 3.7
v 1.6 14.5 3.7
v 1.6 14.6 3.7
v 1.6 13.7 3.6
v 1.6 13.8 3.6
v 1.6 13.9 3.6
v 1.6 14 3.6
v 1.6 14.4 3.6
v 1.6 14.5 3.6
v 1.6 13.6 3.5
v 1.6 13.7 3.5
v 1.6 14.1 3.5
v 1.6 14.2 3.5
v 1.6 14.3 3.5
v 1.6 14.4 3.5
v 1.6 13.5 3.4
v 1.6 13.6 3.4
v 1.6 14.2 3.4
v 1.6 14.3 3.4
v 1.6 13.4 3.3
v 1.6 13.5 3.3
v 1.6 14.1 3.3
v 1.6 14.2 3.3
v 1.6 13.3 3.2
v 1.6 13.4 3.2
v 1.6 13.5 3.2
v 1.6 13.6 3.2
v 1.6 14 3.2
v 1.6 14.1 3.2
v 1.6 13.7 3.1
v 1.6 13.8 3.1
v 1.6 13.9 3.1
v 1.6 14 3.1
v 1.6 13.8 3
v 1.6 13.9 3
v 1.6 13.7 2.9
v 1.6 13.8 2.9
v 1.6 13.6 2.8
v 1.6 13.7 2.8
v 1.6 13.5 2.7
v 1.6 13.6 2.7
v 1.6 13.4 2.6
v 1.6 13.5 2.6
v 1.6 13.3 2.5
v 1.6 13.4 2.5
v 1.2 14.1 3.9
v 1.2 14.2 3.9
v 1.2 14.1 3.7
v 1.2 14.2 3.7
v 1.2 13.7 3.5
v 1.2 13.8 3.5
v 1.2 13.6 3.4
v 1.2 13.7 3.4
v 1.2 13.8 3.4
v 1.2 13.6 3.3
v 1.2 13.7 3.3
v 1.2 13.3 3.1
v 1.2 13.4 3.1
v 1.2 13.3 3
v 1.2 13.4 3
v 1.4 14.1 3.9
v 1.4 14.2 3.9
v 1.4 14.1 3.7
v 1.4 14.2 3.7
v 1.4 13.7 3.5
v 1.4 13.8 3.5
v 1.4 13.6 3.4
v 1.4 13.7 3.4
v 1.4 13.8 3.4
v 1.4 13.6 3.3
v 1.4 13.7 3.3
v 1.4 13.3 3.1
v 1.4 13.4 3.1
v 1.4 13.3 3
v 1.4 13.4 3
v 1 15.1 5
v 1 15.3 5
v 1 15.5 5
v 1 15 4.9
v 1 15.1 4.9
v 1 14.9 4.8
v 1 15 4.8
v 1 14.8 4.7
v 1 14.9 4.7
v 1 15.1 4.7
v 1 15.2 4.7
v 1 15.3 4.7
v 1 15.4 4.7
v 1 14.7 4.6
v 1 14.8 4.6
v 1 15.4 4.6
v 1 15.5 4.6
v 1 14.6 4.5
v 1 14.7 4.5
v 1 15.3 4.5
v 1 15.4 4.5
v 1 14.5 4.4
v 1 14.6 4.4
v 1 14.7 4.4
v 1 14.8 4.4
v 1 15.2 4.4
v 1 15.3 4.4
v 1 14.4 4.3
v 1 14.5 4.3
v 1 14.9 4.3
v 1 15 4.3
v 1 15.1 4.3
v 1 15.2 4.3
v 1 14.3 4.2
v 1 14.4 4.2
v 1 15 4.2
v 1 15.1 4.2
v 1 14.2 4.1
v 1 14.3 4.1
v 1 14.9 4.1
v 1 15 4.1
v 1 14.1 4
v 1 14.2 4
v 1 14.3 4
v 1 14.4 4
v 1 14.8 4
v 1 14.9 4
v 1 14 3.9
v 1 14.1 3.9
v 1 14.5 3.9
v 1 14.6 3.9
v 1 14.7 3.9
v 1 14.8 3.9
v 1 13.9 3.8
v 1 14 3.8
v 1 14.6 3.8
v 1 14.7 3.8
v 1 13.8 3.7
v 1 13.9 3.7
v 1 14.5 3.7
v 1 14.6 3.7
v 1 13.7 3.6
v 1 13.8 3.6
v 1 13.9 3.6
v 1 14 3.6
v 1 14.4 3.6
v 1 14.5 3.6
v 1 13.6 3.5
v 1 13.7 3.5
v 1 14.1 3.5
v 1 14.2 3.5
v 1 14.3 3.5
v 1 14.4 3.5
v 1 13.5 3.4
v 1 13.6 3.4
v 1 14.2 3.4
v 1 14.3 3.4
v 1 13.4 3.3
v 1 13.5 3.3
v 1 14.1 3.3
v 1 14.2 3.3
v 1 13.3 3.2
v 1 13.4 3.2
v 1 13.5 3.2
v 1 13.6 3.2
v 1 14 3.2
v 1 14.1 3.2
v 1 13.7 3.1
v 1 13.8 3.1
v 1 13.9 3.1
v 1 14 3.1
v 1 13.8 3
v 1 13.9 3
v 1 13.7 2.9
v 1 13.8 2.9
v 1 13.6 2.8
v 1 13.7 2.8
v 1 13.5 2.7
v 1 13.6 2.7
v 1 13.4 2.6
v 1 13.5 2.6
v 1 13.3 2.5
v 1 13.4 2.5
v 1.6 13.3 3.2
v 1.6 13.3 2.5
v 1.4 13.3 3.1
v 1.4 13.3 3
v 1.2 13.3 3.1
v 1.2 13.3 3
v 1 13.3 3.2
v 1 13.3 2.5
v 1.6 13.4 3.3
v 1.6 13.4 3.2
v 1.4 13.4 3.1
v 1.4 13.4 3
v 1.2 13.4 3.1
v 1.2 13.4 3
v 1 13.4 3.3
v 1 13.4 3.2
v 1.6 13.5 3.4
v 1.6 13.5 3.3
v 1 13.5 3.4
v 1 13.5 3.3
v 1.6 13.6 3.5
v 1.6 13.6 3.4
v 1 13.6 3.5
v 1 13.6 3.4
v 1.6 13.7 3.6
v 1.6 13.7 3.5
v 1.4 13.7 3.4
v 1.4 13.7 3.3
v 1.2 13.7 3.4
v 1.2 13.7 3.3
v 1 13.7 3.6
v 1 13.7 3.5
v 1.6 13.8 3.7
v 1.6 13.8 3.6
v 1.4 13.8 3.5
v 1.4 13.8 3.4
v 1.2 13.8 3.5
v 1.2 13.8 3.4
v 1 13.8 3.7
v 1 13.8 3.6
v 1.6 13.9 3.8
v 1.6 13.9 3.7
v 1 13.9 3.8
v 1 13.9 3.7
v 1.6 14 3.9
v 1.6 14 3.8
v 1 14 3.9
v 1 14 3.8
v 1.6 14.1 4
v 1.6 14.1 3.9
v 1 14.1 4
v 1 14.1 3.9
v 1.6 14.2 4.1
v 1.6 14.2 4
v 1.4 14.2 3.9
v 1.4 14.2 3.7
v 1.2 14.2 3.9
v 1.2 14.2 3.7
v 1 14.2 4.1
v 1 14.2 4
v 1.6 14.3 4.2
v 1.6 14.3 4.1
v 1 14.3 4.2
v 1 14.3 4.1
v 1.6 14.4 4.3
v 1.6 14.4 4.2
v 1 14.4 4.3
v 1 14.4 4.2
v 1.6 14.5 4.4
v 1.6 14.5 4.3
v 1 14.5 4.4
v 1 14.5 4.3
v 1.6 14.6 4.5
v 1.6 14.6 4.4
v 1 14.6 4.5
v 1 14.6 4.4
v 1.6 14.7 4.6
v 1.6 14.7 4.5
v 1 14.7 4.6
v 1 14.7 4.5
v 1.6 14.8 4.7
v 1.6 14.8 4.6
v 1 14.8 4.7
v 1 14.8 4.6
v 1.6 14.9 4.8
v 1.6 14.9 4.7
v 1 14.9 4.8
v 1 14.9 4.7
v 1.6 15 4.9
v 1.6 15 4.8
v 1 15 4.9
v 1 15 4.8
v 1.6 15.1 5
v 1.6 15.1 4.9
v 1 15.1 5
v 1 15.1 4.9
v 1.6 13.4 2.6
v 1.6 13.4 2.5
v 1 13.4 2.6
v 1 13.4 2.5
v 1.6 13.5 2.7
v 1.6 13.5 2.6
v 1 13.5 2.7
v 1 13.5 2.6
v 1.6 13.6 2.8
v 1.6 13.6 2.7
v 1.4 13.6 3.4
v 1.4 13.6 3.3
v 1.2 13.6 3.4
v 1.2 13.6 3.3
v 1 13.6 2.8
v 1 13.6 2.7
v 1.6 13.7 2.9
v 1.6 13.7 2.8
v 1.4 13.7 3.5
v 1.4 13.7 3.4
v 1.2 13.7 3.5
v 1.2 13.7 3.4
v 1 13.7 2.9
v 1 13.7 2.8
v 1.6 13.8 3
v 1.6 13.8 2.9
v 1 13.8 3
v 1 13.8 2.9
v 1.6 13.9 3.1
v 1.6 13.9 3
v 1 13.9 3.1
v 1 13.9 3
v 1.6 14 3.2
v 1.6 14 3.1
v 1 14 3.2
v 1 14 3.1
v 1.6 14.1 3.3
v 1.6 14.1 3.2
v 1.4 14.1 3.9
v 1.4 14.1 3.7
v 1.2 14.1 3.9
v 1.2 14.1 3.7
v 1 14.1 3.3
v 1 14.1 3.2
v 1.6 14.2 3.4
v 1.6 14.2 3.3
v 1 14.2 3.4
v 1 14.2 3.3
v 1.6 14.3 3.5
v 1.6 14.3 3.4
v 1 14.3 3.5
v 1 14.3 3.4
v 1.6 14.4 3.6
v 1.6 14.4 3.5
v 1 14.4 3.6
v 1 14.4 3.5
v 1.6 14.5 3.7
v 1.6 14.5 3.6
v 1 14.5 3.7
v 1 14.5 3.6
v 1.6 14.6 3.8
v 1.6 14.6 3.7
v 1 14.6 3.8
v 1 14.6 3.7
v 1.6 14.7 3.9
v 1.6 14.7 3.8
v 1 14.7 3.9
v 1 14.7 3.8
v 1.6 14.8 4
v 1.6 14.8 3.9
v 1 14.8 4
v 1 14.8 3.9
v 1.6 14.9 4.1
v 1.6 14.9 4
v 1 14.9 4.1
v 1 14.9 4
v 1.6 15 4.2
v 1.6 15 4.1
v 1 15 4.2
v 1 15 4.1
v 1.6 15.1 4.3
v 1.6 15.1 4.2
v 1 15.1 4.3
v 1 15.1 4.2
v 1.6 15.2 4.4
v 1.6 15.2 4.3
v 1 15.2 4.4
v 1 15.2 4.3
v 1.6 15.3 4.5
v 1.6 15.3 4.4
v 1 15.3 4.5
v 1 15.3 4.4
v 1.6 15.4 4.6
v 1.6 15.4 4.5
v 1 15.4 4.6
v 1 15.4 4.5
v 1.6 15.5 5
v 1.6 15.5 4.6
v 1 15.5 5
v 1 15.5 4.6

# faces
f 3/1/1 2/1/1 1/1/1
f 4/1/1 2/1/1 3/1/1
f 5/7/1 4/7/1 3/7/1
f 6/7/1 4/7/1 5/7/1
f 9/7/1 8/7/1 7/7/1
f 10/7/1 8/7/1 9/7/1
f 13/7/1 12/7/1 11/7/1
f 14/7/1 12/7/1 13/7/1
f 17/2/1 16/2/1 15/2/1
f 18/2/1 16/2/1 17/2/1
f 21/2/1 20/2/1 19/2/1
f 22/2/1 20/2/1 21/2/1
f 25/7/1 24/7/1 23/7/1
f 26/7/1 24/7/1 25/7/1
f 29/7/1 28/7/1 27/7/1
f 30/7/1 28/7/1 29/7/1
f 33/3/1 32/3/1 31/3/1
f 34/3/1 32/3/1 33/3/1
f 37/3/1 36/3/1 35/3/1
f 38/3/1 36/3/1 37/3/1
f 41/7/1 40/7/1 39/7/1
f 42/7/1 40/7/1 41/7/1
f 45/7/1 44/7/1 43/7/1
f 46/7/1 44/7/1 45/7/1
f 49/4/1 48/4/1 47/4/1
f 50/4/1 48/4/1 49/4/1
f 53/4/1 52/4/1 51/4/1
f 54/4/1 52/4/1 53/4/1
f 57/7/1 56/7/1 55/7/1
f 58/7/1 56/7/1 57/7/1
f 61/7/1 60/7/1 59/7/1
f 62/7/1 60/7/1 61/7/1
f 65/7/1 64/7/1 63/7/1
f 66/7/1 64/7/1 65/7/1
f 69/5/1 68/5/1 67/5/1
f 70/5/1 68/5/1 69/5/1
f 73/5/1 72/5/1 71/5/1
f 74/5/1 72/5/1 73/5/1
f 77/7/1 76/7/1 75/7/1
f 78/7/1 76/7/1 77/7/1
f 81/7/1 80/7/1 79/7/1
f 82/7/1 80/7/1 81/7/1
f 85/5/1 84/5/1 83/5/1
f 86/5/1 84/5/1 85/5/1
f 89/6/1 88/6/1 87/6/1
f 90/6/1 88/6/1 89/6/1
f 93/6/1 92/6/1 91/6/1
f 94/6/1 92/6/1 93/6/1
f 95/7/2 96/7/2 97/7/2
f 97/7/2 96/7/2 98/7/2
f 99/1/2 100/1/2 101/1/2
f 101/1/2 100/1/2 102/1/2
f 103/1/2 104/1/2 105/1/2
f 105/1/2 104/1/2 106/1/2
f 107/7/2 108/7/2 109/7/2
f 109/7/2 108/7/2 110/7/2
f 111/7/2 112/7/2 113/7/2
f 113/7/2 112/7/2 114/7/2
f 115/2/2 116/2/2 117/2/2
f 117/2/2 116/2/2 118/2/2
f 119/2/2 120/2/2 121/2/2
f 121/2/2 120/2/2 122/2/2
f 123/7/2 124/7/2 125/7/2
f 125/7/2 124/7/2 126/7/2
f 127/7/2 128/7/2 129/7/2
f 129/7/2 128/7/2 130/7/2
f 131/7/2 132/7/2 133/7/2
f 133/7/2 132/7/2 134/7/2
f 135/3/2 136/3/2 137/3/2
f 137/3/2 136/3/2 138/3/2
f 139/3/2 140/3/2 141/3/2
f 141/3/2 140/3/2 142/3/2
f 143/7/2 144/7/2 145/7/2
f 145/7/2 144/7/2 146/7/2
f 147/7/2 148/7/2 149/7/2
f 149/7/2 148/7/2 150/7/2
f 151/5/2 152/5/2 153/5/2
f 153/5/2 152/5/2 154/5/2
f 155/7/2 156/7/2 157/7/2
f 157/7/2 156/7/2 158/7/2
f 159/4/2 160/4/2 161/4/2
f 161/4/2 160/4/2 162/4/2
f 163/4/2 164/4/2 165/4/2
f 165/4/2 164/4/2 166/4/2
f 167/6/2 168/6/2 169/6/2
f 169/6/2 168/6/2 170/6/2
f 171/7/2 172/7/2 173/7/2
f 173/7/2 172/7/2 174/7/2
f 175/7/2 176/7/2 177/7/2
f 177/7/2 176/7/2 178/7/2
f 179/5/2 180/5/2 181/5/2
f 181/5/2 180/5/2 182/5/2
f 183/5/2 184/5/2 185/5/2
f 185/5/2 184/5/2 186/5/2
f 187/7/2 188/7/2 189/7/2
f 189/7/2 188/7/2 190/7/2
f 191/7/2 192/7/2 193/7/2
f 193/7/2 192/7/2 194/7/2
f 195/6/2 196/6/2 197/6/2
f 197/6/2 196/6/2 198/6/2
f 203/1/3 200/1/3 199/1/3
f 205/7/3 203/7/3 202/7/3
f 207/7/3 205/7/3 204/7/3
f 208/1/3 200/1/3 203/1/3
f 208/7/3 203/7/3 205/7/3
f 208/7/3 205/7/3 207/7/3
f 209/1/3 200/1/3 208/1/3
f 210/7/3 201/7/3 200/7/3
f 210/1/3 200/1/3 209/1/3
f 211/7/3 201/7/3 210/7/3
f 213/2/3 207/2/3 206/2/3
f 214/7/3 201/7/3 211/7/3
f 214/1/3 210/1/3 209/1/3
f 214/1/3 211/1/3 210/1/3
f 215/7/3 201/7/3 214/7/3
f 217/2/3 213/2/3 212/2/3
f 218/1/3 214/1/3 209/1/3
f 219/1/3 214/1/3 218/1/3
f 221/7/3 217/7/3 216/7/3
f 222/2/3 213/2/3 217/2/3
f 222/7/3 217/7/3 221/7/3
f 223/2/3 207/2/3 213/2/3
f 223/2/3 213/2/3 222/2/3
f 224/7/3 209/7/3 208/7/3
f 224/7/3 208/7/3 207/7/3
f 224/1/3 218/1/3 209/1/3
f 225/1/3 218/1/3 224/1/3
f 227/7/3 223/7/3 222/7/3
f 227/7/3 222/7/3 221/7/3
f 227/7/3 221/7/3 220/7/3
f 228/2/3 207/2/3 223/2/3
f 228/7/3 224/7/3 207/7/3
f 229/7/3 224/7/3 228/7/3
f 230/7/3 224/7/3 229/7/3
f 231/7/3 224/7/3 230/7/3
f 233/3/3 227/3/3 226/3/3
f 234/2/3 229/2/3 228/2/3
f 234/7/3 230/7/3 229/7/3
f 235/7/3 230/7/3 234/7/3
f 237/3/3 233/3/3 232/3/3
f 238/2/3 228/2/3 223/2/3
f 238/2/3 234/2/3 228/2/3
f 239/2/3 234/2/3 238/2/3
f 241/7/3 237/7/3 236/7/3
f 242/3/3 233/3/3 237/3/3
f 242/7/3 237/7/3 241/7/3
f 243/3/3 227/3/3 233/3/3
f 243/3/3 233/3/3 242/3/3
f 244/7/3 223/7/3 227/7/3
f 244/2/3 238/2/3 223/2/3
f 245/2/3 238/2/3 244/2/3
f 247/7/3 242/7/3 241/7/3
f 247/7/3 241/7/3 240/7/3
f 247/7/3 243/7/3 242/7/3
f 248/3/3 227/3/3 243/3/3
f 248/7/3 244/7/3 227/7/3
f 249/7/3 244/7/3 248/7/3
f 250/7/3 244/7/3 249/7/3
f 251/7/3 244/7/3 250/7/3
f 253/4/3 247/4/3 246/4/3
f 254/3/3 249/3/3 248/3/3
f 254/7/3 250/7/3 249/7/3
f 255/7/3 250/7/3 254/7/3
f 257/4/3 253/4/3 252/4/3
f 258/3/3 248/3/3 243/3/3
f 258/3/3 254/3/3 248/3/3
f 259/3/3 254/3/3 258/3/3
f 261/7/3 257/7/3 256/7/3
f 262/4/3 253/4/3 257/4/3
f 262/7/3 257/7/3 261/7/3
f 263/4/3 247/4/3 253/4/3
f 263/4/3 253/4/3 262/4/3
f 264/7/3 243/7/3 247/7/3
f 264/3/3 258/3/3 243/3/3
f 265/3/3 258/3/3 264/3/3
f 267/7/3 262/7/3 261/7/3
f 267/7/3 261/7/3 260/7/3
f 267/7/3 263/7/3 262/7/3
f 268/4/3 247/4/3 263/4/3
f 268/7/3 264/7/3 247/7/3
f 269/7/3 264/7/3 268/7/3
f 270/7/3 264/7/3 269/7/3
f 271/7/3 264/7/3 270/7/3
f 273/5/3 267/5/3 266/5/3
f 274/4/3 269/4/3 268/4/3
f 274/7/3 270/7/3 269/7/3
f 275/7/3 270/7/3 274/7/3
f 277/5/3 273/5/3 272/5/3
f 278/4/3 268/4/3 263/4/3
f 278/4/3 274/4/3 268/4/3
f 279/4/3 274/4/3 278/4/3
f 281/7/3 277/7/3 276/7/3
f 282/5/3 273/5/3 277/5/3
f 282/7/3 277/7/3 281/7/3
f 283/5/3 267/5/3 273/5/3
f 283/5/3 273/5/3 282/5/3
f 284/7/3 263/7/3 267/7/3
f 284/4/3 278/4/3 263/4/3
f 285/4/3 278/4/3 284/4/3
f 286/5/3 267/5/3 283/5/3
f 286/7/3 284/7/3 267/7/3
f 287/7/3 284/7/3 286/7/3
f 288/7/3 284/7/3 287/7/3
f 289/7/3 284/7/3 288/7/3
f 290/5/3 287/5/3 286/5/3
f 290/7/3 288/7/3 287/7/3
f 291/7/3 288/7/3 290/7/3
f 292/5/3 286/5/3 283/5/3
f 292/5/3 290/5/3 286/5/3
f 293/5/3 290/5/3 292/5/3
f 294/7/3 282/7/3 281/7/3
f 294/7/3 283/7/3 282/7/3
f 294/5/3 292/5/3 283/5/3
f 295/5/3 292/5/3 294/5/3
f 296/7/3 294/7/3 281/7/3
f 297/7/3 294/7/3 296/7/3
f 298/6/3 281/6/3 280/6/3
f 298/7/3 296/7/3 281/7/3
f 299/7/3 296/7/3 298/7/3
f 300/6/3 298/6/3 280/6/3
f 301/6/3 298/6/3 300/6/3
f 304/7/3 303/7/3 302/7/3
f 305/7/3 303/7/3 304/7/3
f 309/7/3 307/7/3 306/7/3
f 310/7/3 307/7/3 309/7/3
f 311/5/3 309/5/3 308/5/3
f 312/5/3 309/5/3 311/5/3
f 315/6/3 314/6/3 313/6/3
f 316/6/3 314/6/3 315/6/3
f 317/7/4 318/7/4 319/7/4
f 319/7/4 318/7/4 320/7/4
f 321/7/4 322/7/4 324/7/4
f 324/7/4 322/7/4 325/7/4
f 323/5/4 324/5/4 326/5/4
f 326/5/4 324/5/4 327/5/4
f 328/6/4 329/6/4 330/6/4
f 330/6/4 329/6/4 331/6/4
f 332/1/4 333/1/4 336/1/4
f 335/7/4 336/7/4 338/7/4
f 337/7/4 338/7/4 340/7/4
f 336/1/4 333/1/4 341/1/4
f 338/7/4 336/7/4 341/7/4
f 340/7/4 338/7/4 341/7/4
f 341/1/4 333/1/4 342/1/4
f 333/7/4 334/7/4 343/7/4
f 342/1/4 333/1/4 343/1/4
f 343/7/4 334/7/4 344/7/4
f 339/2/4 340/2/4 346/2/4
f 344/7/4 334/7/4 347/7/4
f 342/1/4 343/1/4 347/1/4
f 343/1/4 344/1/4 347/1/4
f 347/7/4 334/7/4 348/7/4
f 345/2/4 346/2/4 350/2/4
f 342/1/4 347/1/4 351/1/4
f 351/1/4 347/1/4 352/1/4
f 349/7/4 350/7/4 354/7/4
f 350/2/4 346/2/4 355/2/4
f 354/7/4 350/7/4 355/7/4
f 346/2/4 340/2/4 356/2/4
f 355/2/4 346/2/4 356/2/4
f 341/7/4 342/7/4 357/7/4
f 340/7/4 341/7/4 357/7/4
f 342/1/4 351/1/4 357/1/4
f 357/1/4 351/1/4 358/1/4
f 355/7/4 356/7/4 360/7/4
f 354/7/4 355/7/4 360/7/4
f 353/7/4 354/7/4 360/7/4
f 356/2/4 340/2/4 361/2/4
f 340/7/4 357/7/4 361/7/4
f 361/7/4 357/7/4 362/7/4
f 362/7/4 357/7/4 363/7/4
f 363/7/4 357/7/4 364/7/4
f 359/3/4 360/3/4 366/3/4
f 361/2/4 362/2/4 367/2/4
f 362/7/4 363/7/4 367/7/4
f 367/7/4 363/7/4 368/7/4
f 365/3/4 366/3/4 370/3/4
f 356/2/4 361/2/4 371/2/4
f 361/2/4 367/2/4 371/2/4
f 371/2/4 367/2/4 372/2/4
f 369/7/4 370/7/4 374/7/4
f 370/3/4 366/3/4 375/3/4
f 374/7/4 370/7/4 375/7/4
f 366/3/4 360/3/4 376/3/4
f 375/3/4 366/3/4 376/3/4
f 360/7/4 356/7/4 377/7/4
f 356/2/4 371/2/4 377/2/4
f 377/2/4 371/2/4 378/2/4
f 374/7/4 375/7/4 380/7/4
f 373/7/4 374/7/4 380/7/4
f 375/7/4 376/7/4 380/7/4
f 376/3/4 360/3/4 381/3/4
f 360/7/4 377/7/4 381/7/4
f 381/7/4 377/7/4 382/7/4
f 382/7/4 377/7/4 383/7/4
f 383/7/4 377/7/4 384/7/4
f 379/4/4 380/4/4 386/4/4
f 381/3/4 382/3/4 387/3/4
f 382/7/4 383/7/4 387/7/4
f 387/7/4 383/7/4 388/7/4
f 385/4/4 386/4/4 390/4/4
f 376/3/4 381/3/4 391/3/4
f 381/3/4 387/3/4 391/3/4
f 391/3/4 387/3/4 392/3/4
f 389/7/4 390/7/4 394/7/4
f 390/4/4 386/4/4 395/4/4
f 394/7/4 390/7/4 395/7/4
f 386/4/4 380/4/4 396/4/4
f 395/4/4 386/4/4 396/4/4
f 380/7/4 376/7/4 397/7/4
f 376/3/4 391/3/4 397/3/4
f 397/3/4 391/3/4 398/3/4
f 394/7/4 395/7/4 400/7/4
f 393/7/4 394/7/4 400/7/4
f 395/7/4 396/7/4 400/7/4
f 396/4/4 380/4/4 401/4/4
f 380/7/4 397/7/4 401/7/4
f 401/7/4 397/7/4 402/7/4
f 402/7/4 397/7/4 403/7/4
f 403/7/4 397/7/4 404/7/4
f 399/5/4 400/5/4 406/5/4
f 401/4/4 402/4/4 407/4/4
f 402/7/4 403/7/4 407/7/4
f 407/7/4 403/7/4 408/7/4
f 405/5/4 406/5/4 410/5/4
f 396/4/4 401/4/4 411/4/4
f 401/4/4 407/4/4 411/4/4
f 411/4/4 407/4/4 412/4/4
f 409/7/4 410/7/4 414/7/4
f 410/5/4 406/5/4 415/5/4
f 414/7/4 410/7/4 415/7/4
f 406/5/4 400/5/4 416/5/4
f 415/5/4 406/5/4 416/5/4
f 400/7/4 396/7/4 417/7/4
f 396/4/4 411/4/4 417/4/4
f 417/4/4 411/4/4 418/4/4
f 416/5/4 400/5/4 419/5/4
f 400/7/4 417/7/4 419/7/4
f 419/7/4 417/7/4 420/7/4
f 420/7/4 417/7/4 421/7/4
f 421/7/4 417/7/4 422/7/4
f 419/5/4 420/5/4 423/5/4
f 420/7/4 421/7/4 423/7/4
f 423/7/4 421/7/4 424/7/4
f 416/5/4 419/5/4 425/5/4
f 419/5/4 423/5/4 425/5/4
f 425/5/4 423/5/4 426/5/4
f 414/7/4 415/7/4 427/7/4
f 415/7/4 416/7/4 427/7/4
f 416/5/4 425/5/4 427/5/4
f 427/5/4 425/5/4 428/5/4
f 414/7/4 427/7/4 429/7/4
f 429/7/4 427/7/4 430/7/4
f 413/6/4 414/6/4 431/6/4
f 414/7/4 429/7/4 431/7/4
f 431/7/4 429/7/4 432/7/4
f 413/6/4 431/6/4 433/6/4
f 433/6/4 431/6/4 434/6/4
f 437/6/5 436/6/5 435/6/5
f 438/6/5 436/6/5 437/6/5
f 439/6/5 437/6/5 435/6/5
f 440/6/5 436/6/5 438/6/5
f 441/6/5 439/6/5 435/6/5
f 441/6/5 440/6/5 439/6/5
f 442/6/5 436/6/5 440/6/5
f 442/6/5 440/6/5 441/6/5
f 447/7/5 446/7/5 445/7/5
f 448/7/5 446/7/5 447/7/5
f 449/7/5 444/7/5 443/7/5
f 450/7/5 444/7/5 449/7/5
f 453/5/5 452/5/5 451/5/5
f 454/5/5 452/5/5 453/5/5
f 457/5/5 456/5/5 455/5/5
f 458/5/5 456/5/5 457/5/5
f 463/7/5 462/7/5 461/7/5
f 464/7/5 462/7/5 463/7/5
f 465/7/5 460/7/5 459/7/5
f 466/7/5 460/7/5 465/7/5
f 471/7/5 470/7/5 469/7/5
f 472/7/5 470/7/5 471/7/5
f 473/7/5 468/7/5 467/7/5
f 474/7/5 468/7/5 473/7/5
f 477/4/5 476/4/5 475/4/5
f 478/4/5 476/4/5 477/4/5
f 481/4/5 480/4/5 479/4/5
f 482/4/5 480/4/5 481/4/5
f 485/7/5 484/7/5 483/7/5
f 486/7/5 484/7/5 485/7/5
f 491/7/5 490/7/5 489/7/5
f 492/7/5 490/7/5 491/7/5
f 493/7/5 488/7/5 487/7/5
f 494/7/5 488/7/5 493/7/5
f 497/3/5 496/3/5 495/3/5
f 498/3/5 496/3/5 497/3/5
f 501/3/5 500/3/5 499/3/5
f 502/3/5 500/3/5 501/3/5
f 505/7/5 504/7/5 503/7/5
f 506/7/5 504/7/5 505/7/5
f 509/7/5 508/7/5 507/7/5
f 510/7/5 508/7/5 509/7/5
f 513/2/5 512/2/5 511/2/5
f 514/2/5 512/2/5 513/2/5
f 517/2/5 516/2/5 515/2/5
f 518/2/5 516/2/5 517/2/5
f 521/7/5 520/7/5 519/7/5
f 522/7/5 520/7/5 521/7/5
f 525/7/5 524/7/5 523/7/5
f 526/7/5 524/7/5 525/7/5
f 529/1/5 528/1/5 527/1/5
f 530/1/5 528/1/5 529/1/5
f 531/6/6 532/6/6 533/6/6
f 533/6/6 532/6/6 534/6/6
f 535/7/6 536/7/6 537/7/6
f 537/7/6 536/7/6 538/7/6
f 541/5/6 542/5/6 543/5/6
f 543/5/6 542/5/6 544/5/6
f 539/7/6 540/7/6 545/7/6
f 545/7/6 540/7/6 546/7/6
f 549/5/6 550/5/6 551/5/6
f 551/5/6 550/5/6 552/5/6
f 547/5/6 548/5/6 553/5/6
f 553/5/6 548/5/6 554/5/6
f 555/5/6 556/5/6 557/5/6
f 557/5/6 556/5/6 558/5/6
f 559/7/6 560/7/6 561/7/6
f 561/7/6 560/7/6 562/7/6
f 563/7/6 564/7/6 565/7/6
f 565/7/6 564/7/6 566/7/6
f 569/4/6 570/4/6 571/4/6
f 571/4/6 570/4/6 572/4/6
f 567/4/6 568/4/6 573/4/6
f 573/4/6 568/4/6 574/4/6
f 575/4/6 576/4/6 577/4/6
f 577/4/6 576/4/6 578/4/6
f 579/7/6 580/7/6 581/7/6
f 581/7/6 580/7/6 582/7/6
f 583/7/6 584/7/6 585/7/6
f 585/7/6 584/7/6 586/7/6
f 587/3/6 588/3/6 589/3/6
f 589/3/6 588/3/6 590/3/6
f 591/3/6 592/3/6 593/3/6
f 593/3/6 592/3/6 594/3/6
f 595/7/6 596/7/6 597/7/6
f 597/7/6 596/7/6 598/7/6
f 599/7/6 600/7/6 601/7/6
f 601/7/6 600/7/6 602/7/6
f 603/2/6 604/2/6 605/2/6
f 605/2/6 604/2/6 606/2/6
f 607/2/6 608/2/6 609/2/6
f 609/2/6 608/2/6 610/2/6
f 611/7/6 612/7/6 613/7/6
f 613/7/6 612/7/6 614/7/6
f 615/7/6 616/7/6 617/7/6
f 617/7/6 616/7/6 618/7/6
f 619/1/6 620/1/6 621/1/6
f 621/1/6 620/1/6 622/1/6
f 623/1/6 624/1/6 625/1/6
f 625/1/6 624/1/6 626/1/6
f 627/7/6 628/7/6 629/7/6
f 629/7/6 628/7/6 630/7/6
