# MagicaVoxel @ Ephtracy

# group
o 

# material
mtllib BoxingGloves-0.mtl
usemtl palette

# normals
vn 0 0 1
vn 0 0 -1
vn -1 0 0
vn 1 0 0
vn 0 1 0
vn 0 -1 0

# texcoords
vt 0.00976563 0.5
vt 0.0136719 0.5
vt 0.123047 0.5
vt 0.904297 0.5

# verts
v 3.4 4.1 2
v 4.9 4.1 2
v 3.6 4 2
v 4.9 4 2
v 3.6 3.9 2
v 4.9 3.9 2
v 3.6 3.6 2
v 4.9 3.6 2
v 3.6 3.5 2
v 4.9 3.5 2
v 3.4 3.4 2
v 4.9 3.4 2
v 3.8 3.3 1.9
v 4.3 3.3 1.9
v 3.8 2.6 1.9
v 4.3 2.6 1.9
v 3.6 3.4 1.7
v 4.9 3.4 1.7
v 3.8 3.3 1.7
v 4.3 3.3 1.7
v 3.6 3.1 1.7
v 3.8 3.1 1.7
v 3.6 2.9 1.7
v 3.8 2.9 1.7
v 3.6 2.8 1.7
v 3.8 2.8 1.7
v 3.8 2.6 1.7
v 4.3 2.6 1.7
v 3.6 2.4 1.7
v 4.9 2.4 1.7
v 3.8 3.1 1.5
v 4.2 3.1 1.5
v 3.8 2.9 1.5
v 3.9 2.9 1.5
v 3.9 2.8 1.5
v 3.9 2.7 1.5
v 4.2 2.7 1.5
v 3.6 3.4 0.8
v 4.9 3.4 0.8
v 3.6 3.1 0.8
v 4.2 3.1 0.8
v 3.6 2.9 0.8
v 3.9 2.9 0.8
v 3.6 2.8 0.8
v 3.9 2.8 0.8
v 3.9 2.7 0.8
v 4.2 2.7 0.8
v 3.6 2.4 0.8
v 4.9 2.4 0.8
v 3.4 4.1 0.5
v 4.9 4.1 0.5
v 3.5 4 0.5
v 4.9 4 0.5
v 3.5 3.9 0.5
v 4.9 3.9 0.5
v 3.5 3.6 0.5
v 4.9 3.6 0.5
v 3.5 3.5 0.5
v 4.9 3.5 0.5
v 3.4 3.4 0.5
v 4.9 3.4 0.5
v 3.4 4.1 2
v 3.4 3.4 2
v 3.4 3.9 1
v 3.4 3.6 1
v 3.4 3.9 0.6
v 3.4 3.6 0.6
v 3.4 4.1 0.5
v 3.4 3.4 0.5
v 3.6 3.4 1.7
v 3.6 3.1 1.7
v 3.6 2.9 1.7
v 3.6 2.8 1.7
v 3.6 2.4 1.7
v 3.6 3.4 1.3
v 3.6 3.1 1.3
v 3.6 3.4 1.1
v 3.6 3.1 1.1
v 3.6 3.4 0.8
v 3.6 3.1 0.8
v 3.6 2.9 0.8
v 3.6 2.8 0.8
v 3.6 2.4 0.8
v 3.8 3.3 1.9
v 3.8 2.6 1.9
v 3.8 3.3 1.7
v 3.8 3.1 1.7
v 3.8 2.9 1.7
v 3.8 2.8 1.7
v 3.8 2.6 1.7
v 3.8 3.1 1.5
v 3.8 2.9 1.5
v 4.2 3.1 1.5
v 4.2 2.7 1.5
v 4.2 3.1 1.3
v 4.2 2.7 1.3
v 4.2 3.1 1.1
v 4.2 2.7 1.1
v 4.2 3.1 0.8
v 4.2 2.7 0.8
v 3.9 2.9 1.5
v 3.9 2.8 1.5
v 3.9 2.7 1.5
v 3.9 2.9 0.8
v 3.9 2.8 0.8
v 3.9 2.7 0.8
v 4.3 3.3 1.9
v 4.3 2.6 1.9
v 4.3 3.3 1.7
v 4.3 2.6 1.7
v 4.9 4.1 2
v 4.9 4 2
v 4.9 3.9 2
v 4.9 3.6 2
v 4.9 3.5 2
v 4.9 3.4 2
v 4.9 3.4 1.7
v 4.9 2.4 1.7
v 4.9 3.4 0.8
v 4.9 2.4 0.8
v 4.9 4.1 0.5
v 4.9 4 0.5
v 4.9 3.9 0.5
v 4.9 3.6 0.5
v 4.9 3.5 0.5
v 4.9 3.4 0.5
v 3.4 4.1 2
v 3.4 4.1 0.5
v 4.9 4.1 2
v 4.9 4.1 0.5
v 3.8 3.3 1.9
v 3.8 3.3 1.7
v 4.3 3.3 1.9
v 4.3 3.3 1.7
v 3.6 2.9 1.7
v 3.6 2.9 0.8
v 3.8 2.9 1.7
v 3.8 2.9 1.5
v 3.9 2.9 1.5
v 3.9 2.9 0.8
v 3.9 2.7 1.5
v 3.9 2.7 0.8
v 4.2 2.7 1.5
v 4.2 2.7 1.3
v 4.2 2.7 1.1
v 4.2 2.7 0.8
v 3.4 3.4 2
v 3.4 3.4 0.5
v 3.6 3.4 1.7
v 3.6 3.4 1.3
v 3.6 3.4 1.1
v 3.6 3.4 0.8
v 4.9 3.4 2
v 4.9 3.4 1.7
v 4.9 3.4 0.8
v 4.9 3.4 0.5
v 3.6 3.1 1.7
v 3.6 3.1 1.3
v 3.6 3.1 1.1
v 3.6 3.1 0.8
v 3.8 3.1 1.7
v 3.8 3.1 1.5
v 4.2 3.1 1.5
v 4.2 3.1 1.3
v 4.2 3.1 1.1
v 4.2 3.1 0.8
v 3.8 2.6 1.9
v 3.8 2.6 1.7
v 4.3 2.6 1.9
v 4.3 2.6 1.7
v 3.6 2.4 1.7
v 3.6 2.4 0.8
v 4.9 2.4 1.7
v 4.9 2.4 0.8

# faces
f 3/1/1 2/1/1 1/1/1
f 4/1/1 2/1/1 3/1/1
f 5/1/1 3/1/1 1/1/1
f 5/4/1 4/4/1 3/4/1
f 6/4/1 4/4/1 5/4/1
f 7/1/1 5/1/1 1/1/1
f 7/3/1 6/3/1 5/3/1
f 8/3/1 6/3/1 7/3/1
f 9/1/1 7/1/1 1/1/1
f 9/4/1 8/4/1 7/4/1
f 10/4/1 8/4/1 9/4/1
f 11/1/1 9/1/1 1/1/1
f 11/1/1 10/1/1 9/1/1
f 12/1/1 10/1/1 11/1/1
f 15/2/1 14/2/1 13/2/1
f 16/2/1 14/2/1 15/2/1
f 19/1/1 18/1/1 17/1/1
f 20/1/1 18/1/1 19/1/1
f 21/1/1 19/1/1 17/1/1
f 22/1/1 19/1/1 21/1/1
f 25/4/1 24/4/1 23/4/1
f 26/4/1 24/4/1 25/4/1
f 27/1/1 26/1/1 25/1/1
f 28/1/1 18/1/1 20/1/1
f 29/1/1 27/1/1 25/1/1
f 29/1/1 28/1/1 27/1/1
f 30/1/1 18/1/1 28/1/1
f 30/1/1 28/1/1 29/1/1
f 31/1/2 32/1/2 33/1/2
f 33/1/2 32/1/2 34/1/2
f 34/1/2 32/1/2 35/1/2
f 35/1/2 32/1/2 36/1/2
f 36/1/2 32/1/2 37/1/2
f 38/1/2 39/1/2 40/1/2
f 40/1/2 39/1/2 41/1/2
f 42/4/2 43/4/2 44/4/2
f 44/4/2 43/4/2 45/4/2
f 44/1/2 45/1/2 46/1/2
f 41/1/2 39/1/2 47/1/2
f 44/1/2 46/1/2 48/1/2
f 46/1/2 47/1/2 48/1/2
f 47/1/2 39/1/2 49/1/2
f 48/1/2 47/1/2 49/1/2
f 50/1/2 51/1/2 52/1/2
f 52/1/2 51/1/2 53/1/2
f 50/1/2 52/1/2 54/1/2
f 52/4/2 53/4/2 54/4/2
f 54/4/2 53/4/2 55/4/2
f 50/1/2 54/1/2 56/1/2
f 54/3/2 55/3/2 56/3/2
f 56/3/2 55/3/2 57/3/2
f 50/1/2 56/1/2 58/1/2
f 56/4/2 57/4/2 58/4/2
f 58/4/2 57/4/2 59/4/2
f 50/1/2 58/1/2 60/1/2
f 58/1/2 59/1/2 60/1/2
f 60/1/2 59/1/2 61/1/2
f 64/1/3 63/1/3 62/1/3
f 65/1/3 63/1/3 64/1/3
f 66/1/3 64/1/3 62/1/3
f 66/3/3 65/3/3 64/3/3
f 67/1/3 63/1/3 65/1/3
f 67/3/3 65/3/3 66/3/3
f 68/1/3 66/1/3 62/1/3
f 68/1/3 67/1/3 66/1/3
f 69/1/3 63/1/3 67/1/3
f 69/1/3 67/1/3 68/1/3
f 75/1/3 71/1/3 70/1/3
f 76/1/3 71/1/3 75/1/3
f 77/3/3 76/3/3 75/3/3
f 78/3/3 76/3/3 77/3/3
f 79/1/3 78/1/3 77/1/3
f 80/1/3 78/1/3 79/1/3
f 81/4/3 73/4/3 72/4/3
f 82/1/3 74/1/3 73/1/3
f 82/4/3 73/4/3 81/4/3
f 83/1/3 74/1/3 82/1/3
f 86/2/3 85/2/3 84/2/3
f 87/2/3 85/2/3 86/2/3
f 88/2/3 85/2/3 87/2/3
f 89/2/3 85/2/3 88/2/3
f 90/2/3 85/2/3 89/2/3
f 91/1/3 88/1/3 87/1/3
f 92/1/3 88/1/3 91/1/3
f 95/1/3 94/1/3 93/1/3
f 96/1/3 94/1/3 95/1/3
f 97/3/3 96/3/3 95/3/3
f 98/3/3 96/3/3 97/3/3
f 99/1/3 98/1/3 97/1/3
f 100/1/3 98/1/3 99/1/3
f 101/4/4 102/4/4 104/4/4
f 102/1/4 103/1/4 105/1/4
f 104/4/4 102/4/4 105/4/4
f 105/1/4 103/1/4 106/1/4
f 107/2/4 108/2/4 109/2/4
f 109/2/4 108/2/4 110/2/4
f 115/1/4 116/1/4 117/1/4
f 115/1/4 117/1/4 119/1/4
f 117/1/4 118/1/4 119/1/4
f 119/1/4 118/1/4 120/1/4
f 111/1/4 112/1/4 121/1/4
f 112/4/4 113/4/4 122/4/4
f 121/1/4 112/1/4 122/1/4
f 113/3/4 114/3/4 123/3/4
f 122/4/4 113/4/4 123/4/4
f 114/4/4 115/4/4 124/4/4
f 123/3/4 114/3/4 124/3/4
f 115/1/4 119/1/4 125/1/4
f 124/4/4 115/4/4 125/4/4
f 125/1/4 119/1/4 126/1/4
f 129/1/5 128/1/5 127/1/5
f 130/1/5 128/1/5 129/1/5
f 133/2/5 132/2/5 131/2/5
f 134/2/5 132/2/5 133/2/5
f 137/4/5 136/4/5 135/4/5
f 138/4/5 136/4/5 137/4/5
f 139/4/5 136/4/5 138/4/5
f 140/4/5 136/4/5 139/4/5
f 143/1/5 142/1/5 141/1/5
f 144/1/5 142/1/5 143/1/5
f 145/1/5 142/1/5 144/1/5
f 146/1/5 142/1/5 145/1/5
f 147/1/6 148/1/6 149/1/6
f 149/1/6 148/1/6 150/1/6
f 150/1/6 148/1/6 151/1/6
f 151/1/6 148/1/6 152/1/6
f 147/1/6 149/1/6 153/1/6
f 153/1/6 149/1/6 154/1/6
f 152/1/6 148/1/6 155/1/6
f 155/1/6 148/1/6 156/1/6
f 157/1/6 158/1/6 161/1/6
f 161/1/6 158/1/6 162/1/6
f 162/1/6 158/1/6 163/1/6
f 158/3/6 159/3/6 164/3/6
f 163/1/6 158/1/6 164/1/6
f 159/1/6 160/1/6 165/1/6
f 164/3/6 159/3/6 165/3/6
f 165/1/6 160/1/6 166/1/6
f 167/2/6 168/2/6 169/2/6
f 169/2/6 168/2/6 170/2/6
f 171/1/6 172/1/6 173/1/6
f 173/1/6 172/1/6 174/1/6
