# MagicaVoxel @ Ephtracy

# group
o 

# material
mtllib GreenHorns-0.mtl
usemtl palette

# normals
vn -1 0 0
vn 1 0 0
vn 0 0 1
vn 0 0 -1
vn 0 -1 0
vn 0 1 0

# texcoords
vt 0.447266 0.5
vt 0.470703 0.5

# verts
v -3.7 12.5 1.1
v -3.7 12.5 0.3
v -3.7 12.9 1.1
v -3.7 12.9 0.3
v -3.7 13.3 1.1
v -3.7 13.3 0.3
v -3.7 13.7 1.1
v -3.7 13.7 0.3
v -3.3 11.7 1.1
v -3.3 11.7 0.3
v -3.3 12.1 1.5
v -3.3 12.1 1.1
v -3.3 12.1 0.3
v -3.3 12.1 -0.1
v -3.3 12.5 1.1
v -3.3 12.5 0.3
v -3.3 12.9 1.5
v -3.3 12.9 1.1
v -3.3 12.9 0.3
v -3.3 12.9 -0.1
v -3.3 13.3 0.3
v -3.3 13.3 -0.1
v -3.3 13.7 1.1
v -3.3 13.7 0.3
v -3.3 14.1 1.1
v -3.3 14.1 0.7
v -3.3 14.1 0.3
v -3.3 14.5 0.7
v -3.3 14.5 0.3
v -2.9 11.7 1.5
v -2.9 11.7 1.1
v -2.9 12.1 1.5
v -2.9 12.1 1.1
v -2.9 13.3 0.3
v -2.9 13.3 -0.1
v -2.9 13.7 0.3
v -2.9 13.7 -0.1
v -2.9 14.1 1.1
v -2.9 14.1 0.7
v -2.9 14.1 0.3
v -2.9 14.1 -0.1
v -2.9 14.5 0.7
v -2.9 14.5 0.3
v -2.9 14.5 -0.1
v -2.9 15.3 1.1
v -2.9 15.3 0.3
v -2.5 11.7 0.3
v -2.5 11.7 -0.1
v -2.5 12.1 0.3
v -2.5 12.1 -0.1
v 4.3 11.7 1.5
v 4.3 11.7 -0.1
v 4.3 12.1 1.5
v 4.3 12.1 0.2
v 4.3 12.1 -0.1
v 4.3 12.9 1.5
v 4.3 12.9 0.2
v 4.7 12.1 0.2
v 4.7 12.1 -0.1
v 4.7 12.5 0.2
v 4.7 12.5 -0.1
v 4.7 12.9 1.1
v 4.7 12.9 0.2
v 4.7 13.3 1.1
v 4.7 13.3 0.2
v 5.1 12.5 0.2
v 5.1 12.5 -0.1
v 5.1 12.9 0.2
v 5.1 12.9 -0.1
v 5.1 13.3 1.1
v 5.1 13.3 0.2
v 5.1 13.3 -0.1
v 5.1 13.7 1.1
v 5.1 13.7 -0.1
v 5.1 14.1 1.1
v 5.1 14.1 -0.1
v 5.1 14.5 0.3
v 5.1 14.5 -0.1
v 5.1 15.3 1.1
v 5.1 15.3 0.3
v -2.5 12.5 0.2
v -2.5 12.5 -0.1
v -2.5 12.9 0.2
v -2.5 12.9 -0.1
v -2.5 13.3 1.1
v -2.5 13.3 0.2
v -2.5 13.3 -0.1
v -2.5 13.7 1.1
v -2.5 13.7 -0.1
v -2.5 14.1 1.1
v -2.5 14.1 -0.1
v -2.5 14.5 0.3
v -2.5 14.5 -0.1
v -2.5 15.3 1.1
v -2.5 15.3 0.3
v -2.1 12.1 0.2
v -2.1 12.1 -0.1
v -2.1 12.5 0.2
v -2.1 12.5 -0.1
v -2.1 12.9 1.1
v -2.1 12.9 0.2
v -2.1 13.3 1.1
v -2.1 13.3 0.2
v -1.7 11.7 1.5
v -1.7 11.7 -0.1
v -1.7 12.1 1.5
v -1.7 12.1 0.2
v -1.7 12.1 -0.1
v -1.7 12.9 1.5
v -1.7 12.9 0.2
v 5.1 11.7 0.3
v 5.1 11.7 -0.1
v 5.1 12.1 0.3
v 5.1 12.1 -0.1
v 5.5 11.7 1.5
v 5.5 11.7 1.1
v 5.5 12.1 1.5
v 5.5 12.1 1.1
v 5.5 13.3 0.3
v 5.5 13.3 -0.1
v 5.5 13.7 0.3
v 5.5 13.7 -0.1
v 5.5 14.1 1.1
v 5.5 14.1 0.7
v 5.5 14.1 0.3
v 5.5 14.1 -0.1
v 5.5 14.5 0.7
v 5.5 14.5 0.3
v 5.5 14.5 -0.1
v 5.5 15.3 1.1
v 5.5 15.3 0.3
v 5.9 11.7 1.1
v 5.9 11.7 0.3
v 5.9 12.1 1.5
v 5.9 12.1 1.1
v 5.9 12.1 0.3
v 5.9 12.1 -0.1
v 5.9 12.5 1.1
v 5.9 12.5 0.3
v 5.9 12.9 1.5
v 5.9 12.9 1.1
v 5.9 12.9 0.3
v 5.9 12.9 -0.1
v 5.9 13.3 0.3
v 5.9 13.3 -0.1
v 5.9 13.7 1.1
v 5.9 13.7 0.3
v 5.9 14.1 1.1
v 5.9 14.1 0.7
v 5.9 14.1 0.3
v 5.9 14.5 0.7
v 5.9 14.5 0.3
v 6.3 12.5 1.1
v 6.3 12.5 0.3
v 6.3 12.9 1.1
v 6.3 12.9 0.3
v 6.3 13.3 1.1
v 6.3 13.3 0.3
v 6.3 13.7 1.1
v 6.3 13.7 0.3
v -3.3 12.1 1.5
v -3.3 12.9 1.5
v -2.9 11.7 1.5
v -2.9 12.1 1.5
v -1.7 11.7 1.5
v -1.7 12.1 1.5
v -1.7 12.9 1.5
v 4.3 11.7 1.5
v 4.3 12.1 1.5
v 4.3 12.9 1.5
v 5.5 11.7 1.5
v 5.5 12.1 1.5
v 5.9 12.1 1.5
v 5.9 12.9 1.5
v -3.7 12.5 1.1
v -3.7 12.9 1.1
v -3.7 13.3 1.1
v -3.7 13.7 1.1
v -3.3 11.7 1.1
v -3.3 12.1 1.1
v -3.3 12.5 1.1
v -3.3 12.9 1.1
v -3.3 13.7 1.1
v -3.3 14.1 1.1
v -2.9 11.7 1.1
v -2.9 12.1 1.1
v -2.9 14.1 1.1
v -2.9 15.3 1.1
v -2.5 13.3 1.1
v -2.5 13.7 1.1
v -2.5 14.1 1.1
v -2.5 15.3 1.1
v -2.1 12.9 1.1
v -2.1 13.3 1.1
v 4.7 12.9 1.1
v 4.7 13.3 1.1
v 5.1 13.3 1.1
v 5.1 13.7 1.1
v 5.1 14.1 1.1
v 5.1 15.3 1.1
v 5.5 11.7 1.1
v 5.5 12.1 1.1
v 5.5 14.1 1.1
v 5.5 15.3 1.1
v 5.9 11.7 1.1
v 5.9 12.1 1.1
v 5.9 12.5 1.1
v 5.9 12.9 1.1
v 5.9 13.7 1.1
v 5.9 14.1 1.1
v 6.3 12.5 1.1
v 6.3 12.9 1.1
v 6.3 13.3 1.1
v 6.3 13.7 1.1
v -3.3 14.1 0.7
v -3.3 14.5 0.7
v -2.9 14.1 0.7
v -2.9 14.5 0.7
v 5.5 14.1 0.7
v 5.5 14.5 0.7
v 5.9 14.1 0.7
v 5.9 14.5 0.7
v -3.7 12.5 0.3
v -3.7 12.9 0.3
v -3.7 13.3 0.3
v -3.7 13.7 0.3
v -3.3 11.7 0.3
v -3.3 12.1 0.3
v -3.3 12.5 0.3
v -3.3 12.9 0.3
v -3.3 13.3 0.3
v -3.3 13.7 0.3
v -3.3 14.1 0.3
v -3.3 14.5 0.3
v -2.9 13.3 0.3
v -2.9 13.7 0.3
v -2.9 14.1 0.3
v -2.9 14.5 0.3
v -2.9 15.3 0.3
v -2.5 11.7 0.3
v -2.5 12.1 0.3
v -2.5 14.5 0.3
v -2.5 15.3 0.3
v 5.1 11.7 0.3
v 5.1 12.1 0.3
v 5.1 14.5 0.3
v 5.1 15.3 0.3
v 5.5 13.3 0.3
v 5.5 13.7 0.3
v 5.5 14.1 0.3
v 5.5 14.5 0.3
v 5.5 15.3 0.3
v 5.9 11.7 0.3
v 5.9 12.1 0.3
v 5.9 12.5 0.3
v 5.9 12.9 0.3
v 5.9 13.3 0.3
v 5.9 13.7 0.3
v 5.9 14.1 0.3
v 5.9 14.5 0.3
v 6.3 12.5 0.3
v 6.3 12.9 0.3
v 6.3 13.3 0.3
v 6.3 13.7 0.3
v -2.5 12.5 0.2
v -2.5 12.9 0.2
v -2.5 13.3 0.2
v -2.1 12.1 0.2
v -2.1 12.5 0.2
v -2.1 12.9 0.2
v -2.1 13.3 0.2
v -1.7 12.1 0.2
v -1.7 12.9 0.2
v 4.3 12.1 0.2
v 4.3 12.9 0.2
v 4.7 12.1 0.2
v 4.7 12.5 0.2
v 4.7 12.9 0.2
v 4.7 13.3 0.2
v 5.1 12.5 0.2
v 5.1 12.9 0.2
v 5.1 13.3 0.2
v -3.3 12.1 -0.1
v -3.3 12.9 -0.1
v -3.3 13.3 -0.1
v -2.9 13.3 -0.1
v -2.9 13.7 -0.1
v -2.9 14.1 -0.1
v -2.9 14.5 -0.1
v -2.5 11.7 -0.1
v -2.5 12.1 -0.1
v -2.5 12.5 -0.1
v -2.5 12.9 -0.1
v -2.5 13.3 -0.1
v -2.5 13.7 -0.1
v -2.5 14.1 -0.1
v -2.5 14.5 -0.1
v -2.1 12.1 -0.1
v -2.1 12.5 -0.1
v -1.7 11.7 -0.1
v -1.7 12.1 -0.1
v 4.3 11.7 -0.1
v 4.3 12.1 -0.1
v 4.7 12.1 -0.1
v 4.7 12.5 -0.1
v 5.1 11.7 -0.1
v 5.1 12.1 -0.1
v 5.1 12.5 -0.1
v 5.1 12.9 -0.1
v 5.1 13.3 -0.1
v 5.1 13.7 -0.1
v 5.1 14.1 -0.1
v 5.1 14.5 -0.1
v 5.5 13.3 -0.1
v 5.5 13.7 -0.1
v 5.5 14.1 -0.1
v 5.5 14.5 -0.1
v 5.9 12.1 -0.1
v 5.9 12.9 -0.1
v 5.9 13.3 -0.1
v -2.9 11.7 1.5
v -1.7 11.7 1.5
v 4.3 11.7 1.5
v 5.5 11.7 1.5
v -3.3 11.7 1.1
v -2.9 11.7 1.1
v 5.5 11.7 1.1
v 5.9 11.7 1.1
v -3.3 11.7 0.3
v -2.5 11.7 0.3
v 5.1 11.7 0.3
v 5.9 11.7 0.3
v -2.5 11.7 -0.1
v -1.7 11.7 -0.1
v 4.3 11.7 -0.1
v 5.1 11.7 -0.1
v -3.3 12.1 1.5
v -2.9 12.1 1.5
v 5.5 12.1 1.5
v 5.9 12.1 1.5
v -3.3 12.1 1.1
v -2.9 12.1 1.1
v 5.5 12.1 1.1
v 5.9 12.1 1.1
v -3.3 12.1 0.3
v -2.5 12.1 0.3
v 5.1 12.1 0.3
v 5.9 12.1 0.3
v -3.3 12.1 -0.1
v -2.5 12.1 -0.1
v 5.1 12.1 -0.1
v 5.9 12.1 -0.1
v -3.7 12.5 1.1
v -3.3 12.5 1.1
v 5.9 12.5 1.1
v 6.3 12.5 1.1
v -3.7 12.5 0.3
v -3.3 12.5 0.3
v 5.9 12.5 0.3
v 6.3 12.5 0.3
v -2.1 12.1 0.2
v -1.7 12.1 0.2
v 4.3 12.1 0.2
v 4.7 12.1 0.2
v -2.1 12.1 -0.1
v -1.7 12.1 -0.1
v 4.3 12.1 -0.1
v 4.7 12.1 -0.1
v -2.5 12.5 0.2
v -2.1 12.5 0.2
v 4.7 12.5 0.2
v 5.1 12.5 0.2
v -2.5 12.5 -0.1
v -2.1 12.5 -0.1
v 4.7 12.5 -0.1
v 5.1 12.5 -0.1
v -3.3 12.9 1.5
v -1.7 12.9 1.5
v 4.3 12.9 1.5
v 5.9 12.9 1.5
v -3.3 12.9 1.1
v -2.1 12.9 1.1
v 4.7 12.9 1.1
v 5.9 12.9 1.1
v -2.1 12.9 0.2
v -1.7 12.9 0.2
v 4.3 12.9 0.2
v 4.7 12.9 0.2
v -2.5 13.3 1.1
v -2.1 13.3 1.1
v 4.7 13.3 1.1
v 5.1 13.3 1.1
v -3.3 13.3 0.3
v -2.9 13.3 0.3
v 5.5 13.3 0.3
v 5.9 13.3 0.3
v -2.5 13.3 0.2
v -2.1 13.3 0.2
v 4.7 13.3 0.2
v 5.1 13.3 0.2
v -3.3 13.3 -0.1
v -2.9 13.3 -0.1
v 5.5 13.3 -0.1
v 5.9 13.3 -0.1
v -3.7 13.7 1.1
v -3.3 13.7 1.1
v 5.9 13.7 1.1
v 6.3 13.7 1.1
v -3.7 13.7 0.3
v -3.3 13.7 0.3
v 5.9 13.7 0.3
v 6.3 13.7 0.3
v -3.3 14.1 1.1
v -2.9 14.1 1.1
v 5.5 14.1 1.1
v 5.9 14.1 1.1
v -3.3 14.1 0.7
v -2.9 14.1 0.7
v 5.5 14.1 0.7
v 5.9 14.1 0.7
v -3.3 14.5 0.7
v -2.9 14.5 0.7
v 5.5 14.5 0.7
v 5.9 14.5 0.7
v -3.3 14.5 0.3
v -2.9 14.5 0.3
v -2.5 14.5 0.3
v 5.1 14.5 0.3
v 5.5 14.5 0.3
v 5.9 14.5 0.3
v -2.9 14.5 -0.1
v -2.5 14.5 -0.1
v 5.1 14.5 -0.1
v 5.5 14.5 -0.1
v -2.9 15.3 1.1
v -2.5 15.3 1.1
v 5.1 15.3 1.1
v 5.5 15.3 1.1
v -2.9 15.3 0.3
v -2.5 15.3 0.3
v 5.1 15.3 0.3
v 5.5 15.3 0.3

# faces
f 3/2/1 2/2/1 1/2/1
f 4/2/1 2/2/1 3/2/1
f 5/1/1 4/1/1 3/1/1
f 6/1/1 4/1/1 5/1/1
f 7/2/1 6/2/1 5/2/1
f 8/2/1 6/2/1 7/2/1
f 12/1/1 10/1/1 9/1/1
f 13/1/1 10/1/1 12/1/1
f 15/2/1 12/2/1 11/2/1
f 15/2/1 14/2/1 13/2/1
f 15/2/1 13/2/1 12/2/1
f 16/2/1 14/2/1 15/2/1
f 17/2/1 15/2/1 11/2/1
f 18/2/1 15/2/1 17/2/1
f 19/2/1 14/2/1 16/2/1
f 20/2/1 14/2/1 19/2/1
f 21/1/1 20/1/1 19/1/1
f 22/1/1 20/1/1 21/1/1
f 25/1/1 24/1/1 23/1/1
f 26/1/1 24/1/1 25/1/1
f 27/1/1 24/1/1 26/1/1
f 28/2/1 27/2/1 26/2/1
f 29/2/1 27/2/1 28/2/1
f 32/1/1 31/1/1 30/1/1
f 33/1/1 31/1/1 32/1/1
f 36/2/1 35/2/1 34/2/1
f 37/2/1 35/2/1 36/2/1
f 40/1/1 37/1/1 36/1/1
f 41/1/1 37/1/1 40/1/1
f 42/2/1 39/2/1 38/2/1
f 43/2/1 41/2/1 40/2/1
f 44/2/1 41/2/1 43/2/1
f 45/2/1 42/2/1 38/2/1
f 45/2/1 43/2/1 42/2/1
f 46/2/1 43/2/1 45/2/1
f 49/1/1 48/1/1 47/1/1
f 50/1/1 48/1/1 49/1/1
f 53/1/1 52/1/1 51/1/1
f 54/1/1 52/1/1 53/1/1
f 55/1/1 52/1/1 54/1/1
f 56/2/1 54/2/1 53/2/1
f 57/2/1 54/2/1 56/2/1
f 60/2/1 59/2/1 58/2/1
f 61/2/1 59/2/1 60/2/1
f 64/1/1 63/1/1 62/1/1
f 65/1/1 63/1/1 64/1/1
f 68/2/1 67/2/1 66/2/1
f 69/2/1 67/2/1 68/2/1
f 71/1/1 69/1/1 68/1/1
f 72/1/1 69/1/1 71/1/1
f 73/2/1 71/2/1 70/2/1
f 73/2/1 72/2/1 71/2/1
f 74/2/1 72/2/1 73/2/1
f 75/1/1 74/1/1 73/1/1
f 76/1/1 74/1/1 75/1/1
f 77/2/1 76/2/1 75/2/1
f 78/2/1 76/2/1 77/2/1
f 79/2/1 77/2/1 75/2/1
f 80/2/1 77/2/1 79/2/1
f 81/2/2 82/2/2 83/2/2
f 83/2/2 82/2/2 84/2/2
f 83/1/2 84/1/2 86/1/2
f 86/1/2 84/1/2 87/1/2
f 85/2/2 86/2/2 88/2/2
f 86/2/2 87/2/2 88/2/2
f 88/2/2 87/2/2 89/2/2
f 88/1/2 89/1/2 90/1/2
f 90/1/2 89/1/2 91/1/2
f 90/2/2 91/2/2 92/2/2
f 92/2/2 91/2/2 93/2/2
f 90/2/2 92/2/2 94/2/2
f 94/2/2 92/2/2 95/2/2
f 96/2/2 97/2/2 98/2/2
f 98/2/2 97/2/2 99/2/2
f 100/1/2 101/1/2 102/1/2
f 102/1/2 101/1/2 103/1/2
f 104/1/2 105/1/2 106/1/2
f 106/1/2 105/1/2 107/1/2
f 107/1/2 105/1/2 108/1/2
f 106/2/2 107/2/2 109/2/2
f 109/2/2 107/2/2 110/2/2
f 111/1/2 112/1/2 113/1/2
f 113/1/2 112/1/2 114/1/2
f 115/1/2 116/1/2 117/1/2
f 117/1/2 116/1/2 118/1/2
f 119/2/2 120/2/2 121/2/2
f 121/2/2 120/2/2 122/2/2
f 121/1/2 122/1/2 125/1/2
f 125/1/2 122/1/2 126/1/2
f 123/2/2 124/2/2 127/2/2
f 125/2/2 126/2/2 128/2/2
f 128/2/2 126/2/2 129/2/2
f 123/2/2 127/2/2 130/2/2
f 127/2/2 128/2/2 130/2/2
f 130/2/2 128/2/2 131/2/2
f 132/1/2 133/1/2 135/1/2
f 135/1/2 133/1/2 136/1/2
f 134/2/2 135/2/2 138/2/2
f 136/2/2 137/2/2 138/2/2
f 135/2/2 136/2/2 138/2/2
f 138/2/2 137/2/2 139/2/2
f 134/2/2 138/2/2 140/2/2
f 140/2/2 138/2/2 141/2/2
f 139/2/2 137/2/2 142/2/2
f 142/2/2 137/2/2 143/2/2
f 142/1/2 143/1/2 144/1/2
f 144/1/2 143/1/2 145/1/2
f 146/1/2 147/1/2 148/1/2
f 148/1/2 147/1/2 149/1/2
f 149/1/2 147/1/2 150/1/2
f 149/2/2 150/2/2 151/2/2
f 151/2/2 150/2/2 152/2/2
f 153/2/2 154/2/2 155/2/2
f 155/2/2 154/2/2 156/2/2
f 155/1/2 156/1/2 157/1/2
f 157/1/2 156/1/2 158/1/2
f 157/2/2 158/2/2 159/2/2
f 159/2/2 158/2/2 160/2/2
f 164/2/3 162/2/3 161/2/3
f 165/1/3 164/1/3 163/1/3
f 166/2/3 162/2/3 164/2/3
f 166/1/3 164/1/3 165/1/3
f 167/2/3 162/2/3 166/2/3
f 171/1/3 169/1/3 168/1/3
f 172/2/3 170/2/3 169/2/3
f 172/1/3 169/1/3 171/1/3
f 173/2/3 170/2/3 172/2/3
f 174/2/3 170/2/3 173/2/3
f 181/2/3 176/2/3 175/2/3
f 182/1/3 177/1/3 176/1/3
f 182/2/3 176/2/3 181/2/3
f 183/2/3 178/2/3 177/2/3
f 185/1/3 180/1/3 179/1/3
f 186/1/3 180/1/3 185/1/3
f 187/1/3 184/1/3 183/1/3
f 189/1/3 177/1/3 182/1/3
f 189/2/3 183/2/3 177/2/3
f 190/1/3 187/1/3 183/1/3
f 190/2/3 183/2/3 189/2/3
f 191/2/3 188/2/3 187/2/3
f 191/1/3 187/1/3 190/1/3
f 192/2/3 188/2/3 191/2/3
f 193/1/3 189/1/3 182/1/3
f 194/1/3 189/1/3 193/1/3
f 197/1/3 196/1/3 195/1/3
f 203/1/3 199/1/3 198/1/3
f 203/2/3 200/2/3 199/2/3
f 204/2/3 200/2/3 203/2/3
f 205/1/3 202/1/3 201/1/3
f 206/1/3 202/1/3 205/1/3
f 208/1/3 197/1/3 195/1/3
f 209/2/3 198/2/3 197/2/3
f 209/1/3 203/1/3 198/1/3
f 210/1/3 203/1/3 209/1/3
f 211/2/3 208/2/3 207/2/3
f 212/1/3 197/1/3 208/1/3
f 212/2/3 208/2/3 211/2/3
f 213/2/3 209/2/3 197/2/3
f 213/1/3 197/1/3 212/1/3
f 214/2/3 209/2/3 213/2/3
f 217/2/3 216/2/3 215/2/3
f 218/2/3 216/2/3 217/2/3
f 221/2/3 220/2/3 219/2/3
f 222/2/3 220/2/3 221/2/3
f 223/2/4 224/2/4 229/2/4
f 224/1/4 225/1/4 230/1/4
f 229/2/4 224/2/4 230/2/4
f 225/2/4 226/2/4 231/2/4
f 230/1/4 225/1/4 231/1/4
f 231/2/4 226/2/4 232/2/4
f 231/2/4 232/2/4 235/2/4
f 232/1/4 233/1/4 236/1/4
f 235/2/4 232/2/4 236/2/4
f 233/2/4 234/2/4 237/2/4
f 236/1/4 233/1/4 237/1/4
f 237/2/4 234/2/4 238/2/4
f 227/1/4 228/1/4 240/1/4
f 240/1/4 228/1/4 241/1/4
f 238/2/4 239/2/4 242/2/4
f 242/2/4 239/2/4 243/2/4
f 246/2/4 247/2/4 251/2/4
f 251/2/4 247/2/4 252/2/4
f 244/1/4 245/1/4 253/1/4
f 253/1/4 245/1/4 254/1/4
f 248/2/4 249/2/4 257/2/4
f 249/1/4 250/1/4 258/1/4
f 257/2/4 249/2/4 258/2/4
f 250/2/4 251/2/4 259/2/4
f 258/1/4 250/1/4 259/1/4
f 259/2/4 251/2/4 260/2/4
f 255/2/4 256/2/4 261/2/4
f 256/1/4 257/1/4 262/1/4
f 261/2/4 256/2/4 262/2/4
f 257/2/4 258/2/4 263/2/4
f 262/1/4 257/1/4 263/1/4
f 263/2/4 258/2/4 264/2/4
f 265/2/4 266/2/4 269/2/4
f 266/1/4 267/1/4 270/1/4
f 269/2/4 266/2/4 270/2/4
f 270/1/4 267/1/4 271/1/4
f 268/2/4 269/2/4 272/2/4
f 269/2/4 270/2/4 272/2/4
f 272/2/4 270/2/4 273/2/4
f 274/2/4 275/2/4 276/2/4
f 276/2/4 275/2/4 277/2/4
f 277/2/4 275/2/4 278/2/4
f 277/2/4 278/2/4 280/2/4
f 278/1/4 279/1/4 281/1/4
f 280/2/4 278/2/4 281/2/4
f 281/1/4 279/1/4 282/1/4
f 284/1/4 285/1/4 286/1/4
f 283/2/4 284/2/4 291/2/4
f 291/2/4 284/2/4 292/2/4
f 284/1/4 286/1/4 293/1/4
f 292/2/4 284/2/4 293/2/4
f 286/2/4 287/2/4 294/2/4
f 293/1/4 286/1/4 294/1/4
f 287/1/4 288/1/4 295/1/4
f 294/2/4 287/2/4 295/2/4
f 288/2/4 289/2/4 296/2/4
f 295/1/4 288/1/4 296/1/4
f 296/2/4 289/2/4 297/2/4
f 291/2/4 292/2/4 298/2/4
f 290/1/4 291/1/4 298/1/4
f 298/2/4 292/2/4 299/2/4
f 290/1/4 298/1/4 300/1/4
f 300/1/4 298/1/4 301/1/4
f 302/1/4 303/1/4 304/1/4
f 302/1/4 304/1/4 306/1/4
f 304/2/4 305/2/4 307/2/4
f 306/1/4 304/1/4 307/1/4
f 307/2/4 305/2/4 308/2/4
f 309/1/4 310/1/4 314/1/4
f 310/2/4 311/2/4 314/2/4
f 311/1/4 312/1/4 315/1/4
f 314/2/4 311/2/4 315/2/4
f 312/2/4 313/2/4 316/2/4
f 315/1/4 312/1/4 316/1/4
f 316/2/4 313/2/4 317/2/4
f 307/2/4 308/2/4 318/2/4
f 308/2/4 309/2/4 318/2/4
f 309/1/4 314/1/4 319/1/4
f 318/2/4 309/2/4 319/2/4
f 319/1/4 314/1/4 320/1/4
f 326/1/5 322/1/5 321/1/5
f 327/1/5 324/1/5 323/1/5
f 329/1/5 326/1/5 325/1/5
f 330/1/5 322/1/5 326/1/5
f 330/1/5 326/1/5 329/1/5
f 331/1/5 328/1/5 327/1/5
f 331/1/5 327/1/5 323/1/5
f 332/1/5 328/1/5 331/1/5
f 333/1/5 322/1/5 330/1/5
f 334/1/5 322/1/5 333/1/5
f 335/1/5 331/1/5 323/1/5
f 336/1/5 331/1/5 335/1/5
f 341/2/5 338/2/5 337/2/5
f 342/2/5 338/2/5 341/2/5
f 343/2/5 340/2/5 339/2/5
f 344/2/5 340/2/5 343/2/5
f 349/2/5 346/2/5 345/2/5
f 350/2/5 346/2/5 349/2/5
f 351/2/5 348/2/5 347/2/5
f 352/2/5 348/2/5 351/2/5
f 357/2/5 354/2/5 353/2/5
f 358/2/5 354/2/5 357/2/5
f 359/2/5 356/2/5 355/2/5
f 360/2/5 356/2/5 359/2/5
f 361/1/6 362/1/6 365/1/6
f 365/1/6 362/1/6 366/1/6
f 363/1/6 364/1/6 367/1/6
f 367/1/6 364/1/6 368/1/6
f 369/2/6 370/2/6 373/2/6
f 373/2/6 370/2/6 374/2/6
f 371/2/6 372/2/6 375/2/6
f 375/2/6 372/2/6 376/2/6
f 377/2/6 378/2/6 381/2/6
f 381/2/6 378/2/6 382/2/6
f 379/2/6 380/2/6 383/2/6
f 383/2/6 380/2/6 384/2/6
f 382/2/6 378/2/6 385/2/6
f 385/2/6 378/2/6 386/2/6
f 379/2/6 383/2/6 387/2/6
f 387/2/6 383/2/6 388/2/6
f 389/1/6 390/1/6 397/1/6
f 397/1/6 390/1/6 398/1/6
f 391/1/6 392/1/6 399/1/6
f 399/1/6 392/1/6 400/1/6
f 393/1/6 394/1/6 401/1/6
f 401/1/6 394/1/6 402/1/6
f 395/1/6 396/1/6 403/1/6
f 403/1/6 396/1/6 404/1/6
f 405/2/6 406/2/6 409/2/6
f 409/2/6 406/2/6 410/2/6
f 407/2/6 408/2/6 411/2/6
f 411/2/6 408/2/6 412/2/6
f 413/1/6 414/1/6 417/1/6
f 417/1/6 414/1/6 418/1/6
f 415/1/6 416/1/6 419/1/6
f 419/1/6 416/1/6 420/1/6
f 421/2/6 422/2/6 425/2/6
f 425/2/6 422/2/6 426/2/6
f 423/2/6 424/2/6 429/2/6
f 429/2/6 424/2/6 430/2/6
f 426/2/6 427/2/6 431/2/6
f 431/2/6 427/2/6 432/2/6
f 428/2/6 429/2/6 433/2/6
f 433/2/6 429/2/6 434/2/6
f 435/2/6 436/2/6 439/2/6
f 439/2/6 436/2/6 440/2/6
f 437/2/6 438/2/6 441/2/6
f 441/2/6 438/2/6 442/2/6
