# MagicaVoxel @ Ephtracy

# group
o vector-pixel-art-of-80s-retro-sci-fi-background-pixel-moon-and-s

# material
mtllib Moon-0-vector-pixel-art-of-80s-retro-sci-fi-background-pixel-moon-and-s.mtl
usemtl palette

# normals
vn 0 0 -1
vn 0 0 1
vn -1 0 0
vn 1 0 0
vn 0 -1 0
vn 0 1 0

# texcoords
vt 0.900391 0.5
vt 0.927734 0.5
vt 0.955078 0.5
vt 0.990234 0.5

# verts
v -13.6 0 -11.8
v 12 0 -11.8
v -13.6 0.2 -11.8
v 12 0.2 -11.8
v -13.6 0 13.8
v 12 0 13.8
v -13.6 0.2 13.8
v 12 0.2 13.8
v -13.6 0 -11.8
v -13.6 0.2 -11.8
v -13.6 0 13.8
v -13.6 0.2 13.8
v 12 0 -11.8
v 12 0.2 -11.8
v 12 0 13.8
v 12 0.2 13.8
v -13.6 0 -11.8
v -13.6 0 13.8
v -10.9 0 4.6
v -10.9 0 4.8
v -10.9 0 8.8
v -10.9 0 9
v -10.8 0 4.6
v -10.8 0 4.8
v -10.8 0 8.8
v -10.8 0 9
v -10.6 0 4.6
v -10.6 0 4.8
v -10.6 0 8.8
v -10.6 0 9
v -6.7 0 -9.4
v -6.7 0 -9.2
v -6.6 0 -9.4
v -6.6 0 -9.2
v -6.5 0 -6.5
v -6.5 0 -6.3
v -6.4 0 -9.4
v -6.4 0 -9.2
v -6.4 0 -6.5
v -6.4 0 -6.3
v -6.2 0 -6.5
v -6.2 0 -6.3
v -4.4 0 -0.5
v -4.4 0 -0.3
v -4.2 0 -0.5
v -4.2 0 -0.3
v 0.2 0 -9.1
v 0.2 0 -8.9
v 0.299999 0 -9.1
v 0.299999 0 -8.9
v 0.499999 0 -9.1
v 0.499999 0 -8.9
v 0.499999 0 -7.9
v 0.499999 0 -7.7
v 0.599999 0 -7.9
v 0.599999 0 -7.7
v 0.799999 0 -7.9
v 0.799999 0 -7.7
v 0.799999 0 10.9
v 0.799999 0 11.1
v 0.9 0 10.9
v 0.9 0 11.1
v 1.1 0 10.9
v 1.1 0 11.1
v 3.2 0 8.4
v 3.2 0 8.5
v 3.3 0 8.4
v 3.3 0 8.5
v 3.5 0 8.4
v 3.5 0 8.5
v 4.7 0 6
v 4.7 0 6.2
v 4.8 0 6
v 4.8 0 6.2
v 5 0 6
v 5 0 6.2
v 12 0 -11.8
v 12 0 13.8
v -13.6 0.2 -11.8
v -13.6 0.2 13.8
v -12.8 0.2 12
v -12.8 0.2 12.2
v -12.7 0.2 12
v -12.7 0.2 12.2
v -12.6 0.2 12
v -12.6 0.2 12.2
v -11.5 0.2 -10
v -11.5 0.2 -9.8
v -11.5 0.2 -2.6
v -11.5 0.2 -2.4
v -11.4 0.2 -10
v -11.4 0.2 -9.8
v -11.4 0.2 -7.6
v -11.4 0.2 -7.4
v -11.4 0.2 -2.6
v -11.4 0.2 -2.4
v -11.3 0.2 -10
v -11.3 0.2 -9.8
v -11.3 0.2 -7.6
v -11.3 0.2 -7.4
v -11.3 0.2 -2.6
v -11.3 0.2 -2.4
v -11.2 0.2 -7.6
v -11.2 0.2 -7.4
v -10.3 0.2 11.9
v -10.3 0.2 12.1
v -10.2 0.2 11.9
v -10.2 0.2 12.1
v -10.1 0.2 11.9
v -10.1 0.2 12.1
v -9 0.2 -10.1
v -9 0.2 -9.9
v -8.9 0.2 -10.1
v -8.9 0.2 -9.9
v -8.8 0.2 -10.1
v -8.8 0.2 -9.9
v -8.8 0.2 -1.2
v -8.8 0.2 -1
v -8.7 0.2 -1.2
v -8.7 0.2 -1
v -8.7 0.2 1.2
v -8.7 0.2 1.4
v -8.6 0.2 -1.2
v -8.6 0.2 -1
v -8.6 0.2 1.2
v -8.6 0.2 1.4
v -8.5 0.2 1.2
v -8.5 0.2 1.4
v -6.3 0.2 -1.3
v -6.3 0.2 -1.1
v -6.3 0.2 4.6
v -6.3 0.2 4.8
v -6.3 0.2 8.8
v -6.3 0.2 9
v -6.2 0.2 -1.3
v -6.2 0.2 -1.1
v -6.2 0.2 4.6
v -6.2 0.2 4.8
v -6.2 0.2 8.8
v -6.2 0.2 9
v -6.1 0.2 -1.3
v -6.1 0.2 -1.1
v -6.1 0.2 4.6
v -6.1 0.2 4.8
v -6.1 0.2 8.8
v -6.1 0.2 9
v -5.6 0.2 -7.8
v -5.6 0.2 -7.6
v -5.5 0.2 -7.8
v -5.5 0.2 -7.6
v -5.4 0.2 -7.8
v -5.4 0.2 -7.6
v -3.5 0.2 9.2
v -3.5 0.2 9.4
v -3.4 0.2 9.2
v -3.4 0.2 9.4
v -3.4 0.2 11.6
v -3.4 0.2 11.8
v -3.3 0.2 9.2
v -3.3 0.2 9.4
v -3.3 0.2 11.6
v -3.3 0.2 11.8
v -3.2 0.2 11.6
v -3.2 0.2 11.8
v -3 0.2 -0.3
v -3 0.2 -0.200001
v -2.9 0.2 -0.3
v -2.9 0.2 -0.200001
v -2.8 0.2 -0.3
v -2.8 0.2 -0.200001
v -2.1 0.2 -9.4
v -2.1 0.2 -9.2
v -2 0.2 -9.4
v -2 0.2 -9.2
v -1.9 0.2 -9.4
v -1.9 0.2 -9.2
v -1.9 0.2 -6.5
v -1.9 0.2 -6.3
v -1.8 0.2 -6.5
v -1.8 0.2 -6.3
v -1.7 0.2 -6.5
v -1.7 0.2 -6.3
v -1.4 0.2 1.3
v -1.4 0.2 1.5
v -1.3 0.2 1.3
v -1.3 0.2 1.5
v -1.3 0.2 3.7
v -1.3 0.2 3.9
v -1.2 0.2 1.3
v -1.2 0.2 1.5
v -1.2 0.2 3.7
v -1.2 0.2 3.9
v -1.1 0.2 3.7
v -1.1 0.2 3.9
v -1 0.2 9.1
v -1 0.2 9.3
v -0.900001 0.2 9.1
v -0.900001 0.2 9.3
v -0.8 0.2 9.1
v -0.8 0.2 9.3
v -0.6 0.2 -5.4
v -0.6 0.2 -5.2
v -0.500001 0.2 -5.4
v -0.500001 0.2 -5.2
v -0.500001 0.2 -3
v -0.500001 0.2 -2.8
v -0.400001 0.2 -5.4
v -0.400001 0.2 -5.2
v -0.400001 0.2 -3
v -0.400001 0.2 -2.8
v -0.3 0.2 -3
v -0.3 0.2 -2.8
v 1.1 0.2 1.2
v 1.1 0.2 1.4
v 1.2 0.2 1.2
v 1.2 0.2 1.4
v 1.3 0.2 1.2
v 1.3 0.2 1.4
v 1.9 0.2 -5.5
v 1.9 0.2 -5.3
v 2 0.2 -5.5
v 2 0.2 -5.3
v 2.1 0.2 -5.5
v 2.1 0.2 -5.3
v 3.2 0.2 4.8
v 3.2 0.2 5
v 3.3 0.2 4.8
v 3.3 0.2 5
v 3.4 0.2 4.8
v 3.4 0.2 5
v 4.8 0.2 -9.1
v 4.8 0.2 -8.9
v 4.9 0.2 -9.1
v 4.9 0.2 -8.9
v 5 0.2 -9.1
v 5 0.2 -8.9
v 5.1 0.2 -7.9
v 5.1 0.2 -7.7
v 5.2 0.2 -7.9
v 5.2 0.2 -7.7
v 5.3 0.2 -7.9
v 5.3 0.2 -7.7
v 5.3 0.2 8.5
v 5.3 0.2 8.7
v 5.4 0.2 8.5
v 5.4 0.2 8.7
v 5.4 0.2 10.9
v 5.4 0.2 11.1
v 5.5 0.2 8.5
v 5.5 0.2 8.7
v 5.5 0.2 10.9
v 5.5 0.2 11.1
v 5.6 0.2 10.9
v 5.6 0.2 11.1
v 6.1 0.2 -3.8
v 6.1 0.2 -3.6
v 6.2 0.2 -3.8
v 6.2 0.2 -3.6
v 6.2 0.2 -1.4
v 6.2 0.2 -1.2
v 6.3 0.2 -3.8
v 6.3 0.2 -3.6
v 6.3 0.2 -1.4
v 6.3 0.2 -1.2
v 6.4 0.2 -1.4
v 6.4 0.2 -1.2
v 6.6 0.2 2
v 6.6 0.2 2.2
v 6.7 0.2 2
v 6.7 0.2 2.2
v 6.7 0.2 4.4
v 6.7 0.2 4.6
v 6.8 0.2 2
v 6.8 0.2 2.2
v 6.8 0.2 4.4
v 6.8 0.2 4.6
v 6.9 0.2 4.4
v 6.9 0.2 4.6
v 7.8 0.2 8.4
v 7.8 0.2 8.6
v 7.9 0.2 8.4
v 7.9 0.2 8.6
v 8 0.2 8.4
v 8 0.2 8.6
v 8.6 0.2 -3.9
v 8.6 0.2 -3.7
v 8.7 0.2 -3.9
v 8.7 0.2 -3.7
v 8.8 0.2 -3.9
v 8.8 0.2 -3.7
v 9.1 0.2 1.9
v 9.1 0.2 2.1
v 9.2 0.2 1.9
v 9.2 0.2 2.1
v 9.3 0.2 1.9
v 9.3 0.2 2.1
v 9.8 0.2 11.1
v 9.8 0.2 11.3
v 9.9 0.2 11.1
v 9.9 0.2 11.3
v 9.9 0.2 13.5
v 9.9 0.2 13.7
v 10 0.2 -5.9
v 10 0.2 -5.7
v 10 0.2 11.1
v 10 0.2 11.3
v 10 0.2 13.5
v 10 0.2 13.7
v 10.1 0.2 -5.9
v 10.1 0.2 -5.7
v 10.1 0.2 13.5
v 10.1 0.2 13.7
v 10.2 0.2 -10.1
v 10.2 0.2 -9.9
v 10.2 0.2 -5.9
v 10.2 0.2 -5.7
v 10.2 0.2 -0.8
v 10.2 0.2 -0.6
v 10.3 0.2 -10.1
v 10.3 0.2 -9.9
v 10.3 0.2 -0.8
v 10.3 0.2 -0.6
v 10.4 0.2 -10.1
v 10.4 0.2 -9.9
v 12 0.2 -11.8
v 12 0.2 13.8

# faces
f 3/4/1 2/4/1 1/4/1
f 4/4/1 2/4/1 3/4/1
f 5/4/2 6/4/2 7/4/2
f 7/4/2 6/4/2 8/4/2
f 11/4/3 10/4/3 9/4/3
f 12/4/3 10/4/3 11/4/3
f 13/4/4 14/4/4 15/4/4
f 15/4/4 14/4/4 16/4/4
f 19/4/5 18/4/5 17/4/5
f 20/4/5 18/4/5 19/4/5
f 21/4/5 18/4/5 20/4/5
f 22/4/5 18/4/5 21/4/5
f 23/4/5 19/4/5 17/4/5
f 23/3/5 20/3/5 19/3/5
f 24/4/5 21/4/5 20/4/5
f 24/3/5 20/3/5 23/3/5
f 25/3/5 22/3/5 21/3/5
f 25/4/5 21/4/5 24/4/5
f 26/4/5 18/4/5 22/4/5
f 26/3/5 22/3/5 25/3/5
f 27/1/5 24/1/5 23/1/5
f 27/4/5 23/4/5 17/4/5
f 28/4/5 25/4/5 24/4/5
f 28/1/5 24/1/5 27/1/5
f 29/1/5 26/1/5 25/1/5
f 29/4/5 25/4/5 28/4/5
f 30/4/5 18/4/5 26/4/5
f 30/1/5 26/1/5 29/1/5
f 31/4/5 27/4/5 17/4/5
f 31/4/5 29/4/5 28/4/5
f 31/4/5 30/4/5 29/4/5
f 31/4/5 28/4/5 27/4/5
f 32/4/5 30/4/5 31/4/5
f 33/4/5 31/4/5 17/4/5
f 33/3/5 32/3/5 31/3/5
f 34/4/5 30/4/5 32/4/5
f 34/3/5 32/3/5 33/3/5
f 35/4/5 30/4/5 34/4/5
f 36/4/5 30/4/5 35/4/5
f 37/4/5 33/4/5 17/4/5
f 37/1/5 34/1/5 33/1/5
f 38/4/5 35/4/5 34/4/5
f 38/1/5 34/1/5 37/1/5
f 39/3/5 36/3/5 35/3/5
f 39/4/5 35/4/5 38/4/5
f 40/4/5 30/4/5 36/4/5
f 40/3/5 36/3/5 39/3/5
f 41/4/5 39/4/5 38/4/5
f 41/4/5 38/4/5 37/4/5
f 41/1/5 40/1/5 39/1/5
f 42/4/5 30/4/5 40/4/5
f 42/1/5 40/1/5 41/1/5
f 43/4/5 42/4/5 41/4/5
f 43/4/5 30/4/5 42/4/5
f 44/4/5 30/4/5 43/4/5
f 45/4/5 43/4/5 41/4/5
f 45/1/5 44/1/5 43/1/5
f 46/4/5 30/4/5 44/4/5
f 46/1/5 44/1/5 45/1/5
f 47/4/5 41/4/5 37/4/5
f 47/4/5 45/4/5 41/4/5
f 47/4/5 46/4/5 45/4/5
f 48/4/5 46/4/5 47/4/5
f 49/4/5 47/4/5 37/4/5
f 49/3/5 48/3/5 47/3/5
f 50/4/5 46/4/5 48/4/5
f 50/3/5 48/3/5 49/3/5
f 51/4/5 49/4/5 37/4/5
f 51/1/5 50/1/5 49/1/5
f 52/4/5 46/4/5 50/4/5
f 52/1/5 50/1/5 51/1/5
f 53/4/5 46/4/5 52/4/5
f 54/4/5 46/4/5 53/4/5
f 55/4/5 52/4/5 51/4/5
f 55/4/5 53/4/5 52/4/5
f 55/3/5 54/3/5 53/3/5
f 56/4/5 46/4/5 54/4/5
f 56/3/5 54/3/5 55/3/5
f 57/4/5 55/4/5 51/4/5
f 57/1/5 56/1/5 55/1/5
f 58/4/5 46/4/5 56/4/5
f 58/1/5 56/1/5 57/1/5
f 59/4/5 18/4/5 30/4/5
f 59/4/5 46/4/5 58/4/5
f 59/4/5 30/4/5 46/4/5
f 60/4/5 18/4/5 59/4/5
f 61/4/5 58/4/5 57/4/5
f 61/4/5 59/4/5 58/4/5
f 61/3/5 60/3/5 59/3/5
f 62/4/5 18/4/5 60/4/5
f 62/3/5 60/3/5 61/3/5
f 63/4/5 61/4/5 57/4/5
f 63/1/5 62/1/5 61/1/5
f 64/4/5 18/4/5 62/4/5
f 64/1/5 62/1/5 63/1/5
f 65/4/5 63/4/5 57/4/5
f 65/4/5 64/4/5 63/4/5
f 66/4/5 64/4/5 65/4/5
f 67/4/5 65/4/5 57/4/5
f 67/3/5 66/3/5 65/3/5
f 68/4/5 64/4/5 66/4/5
f 68/3/5 66/3/5 67/3/5
f 69/4/5 67/4/5 57/4/5
f 69/1/5 68/1/5 67/1/5
f 70/4/5 64/4/5 68/4/5
f 70/1/5 68/1/5 69/1/5
f 71/4/5 69/4/5 57/4/5
f 71/4/5 70/4/5 69/4/5
f 72/4/5 70/4/5 71/4/5
f 73/4/5 71/4/5 57/4/5
f 73/3/5 72/3/5 71/3/5
f 74/4/5 70/4/5 72/4/5
f 74/3/5 72/3/5 73/3/5
f 75/4/5 73/4/5 57/4/5
f 75/1/5 74/1/5 73/1/5
f 76/4/5 70/4/5 74/4/5
f 76/1/5 74/1/5 75/1/5
f 77/4/5 57/4/5 51/4/5
f 77/4/5 37/4/5 17/4/5
f 77/4/5 76/4/5 75/4/5
f 77/4/5 75/4/5 57/4/5
f 77/4/5 51/4/5 37/4/5
f 78/4/5 18/4/5 64/4/5
f 78/4/5 76/4/5 77/4/5
f 78/4/5 70/4/5 76/4/5
f 78/4/5 64/4/5 70/4/5
f 79/4/6 80/4/6 81/4/6
f 81/4/6 80/4/6 82/4/6
f 79/4/6 81/4/6 83/4/6
f 81/1/6 82/1/6 83/1/6
f 82/4/6 80/4/6 84/4/6
f 83/1/6 82/1/6 84/1/6
f 79/4/6 83/4/6 85/4/6
f 83/2/6 84/2/6 85/2/6
f 84/4/6 80/4/6 86/4/6
f 85/2/6 84/2/6 86/2/6
f 79/4/6 85/4/6 87/4/6
f 85/4/6 86/4/6 87/4/6
f 87/4/6 86/4/6 88/4/6
f 88/4/6 86/4/6 89/4/6
f 89/4/6 86/4/6 90/4/6
f 79/4/6 87/4/6 91/4/6
f 87/1/6 88/1/6 91/1/6
f 88/4/6 89/4/6 92/4/6
f 91/1/6 88/1/6 92/1/6
f 92/4/6 89/4/6 93/4/6
f 93/4/6 89/4/6 94/4/6
f 89/1/6 90/1/6 95/1/6
f 94/4/6 89/4/6 95/4/6
f 90/4/6 86/4/6 96/4/6
f 95/1/6 90/1/6 96/1/6
f 79/4/6 91/4/6 97/4/6
f 91/2/6 92/2/6 97/2/6
f 92/4/6 93/4/6 98/4/6
f 97/2/6 92/2/6 98/2/6
f 93/1/6 94/1/6 99/1/6
f 98/4/6 93/4/6 99/4/6
f 94/4/6 95/4/6 100/4/6
f 99/1/6 94/1/6 100/1/6
f 95/2/6 96/2/6 101/2/6
f 100/4/6 95/4/6 101/4/6
f 96/4/6 86/4/6 102/4/6
f 101/2/6 96/2/6 102/2/6
f 98/4/6 99/4/6 103/4/6
f 97/4/6 98/4/6 103/4/6
f 99/2/6 100/2/6 103/2/6
f 101/4/6 102/4/6 104/4/6
f 103/2/6 100/2/6 104/2/6
f 100/4/6 101/4/6 104/4/6
f 102/4/6 86/4/6 105/4/6
f 104/4/6 102/4/6 105/4/6
f 103/4/6 104/4/6 105/4/6
f 105/4/6 86/4/6 106/4/6
f 103/4/6 105/4/6 107/4/6
f 105/1/6 106/1/6 107/1/6
f 106/4/6 86/4/6 108/4/6
f 107/1/6 106/1/6 108/1/6
f 103/4/6 107/4/6 109/4/6
f 107/2/6 108/2/6 109/2/6
f 108/4/6 86/4/6 110/4/6
f 109/2/6 108/2/6 110/2/6
f 79/4/6 97/4/6 111/4/6
f 97/4/6 103/4/6 111/4/6
f 109/4/6 110/4/6 111/4/6
f 103/4/6 109/4/6 111/4/6
f 111/4/6 110/4/6 112/4/6
f 79/4/6 111/4/6 113/4/6
f 111/1/6 112/1/6 113/1/6
f 112/4/6 110/4/6 114/4/6
f 113/1/6 112/1/6 114/1/6
f 79/4/6 113/4/6 115/4/6
f 113/2/6 114/2/6 115/2/6
f 114/4/6 110/4/6 116/4/6
f 115/2/6 114/2/6 116/2/6
f 116/4/6 110/4/6 117/4/6
f 117/4/6 110/4/6 118/4/6
f 115/4/6 116/4/6 119/4/6
f 116/4/6 117/4/6 119/4/6
f 117/1/6 118/1/6 119/1/6
f 118/4/6 110/4/6 120/4/6
f 119/1/6 118/1/6 120/1/6
f 120/4/6 110/4/6 121/4/6
f 121/4/6 110/4/6 122/4/6
f 115/4/6 119/4/6 123/4/6
f 119/2/6 120/2/6 123/2/6
f 120/4/6 121/4/6 124/4/6
f 123/2/6 120/2/6 124/2/6
f 121/1/6 122/1/6 125/1/6
f 124/4/6 121/4/6 125/4/6
f 122/4/6 110/4/6 126/4/6
f 125/1/6 122/1/6 126/1/6
f 124/4/6 125/4/6 127/4/6
f 123/4/6 124/4/6 127/4/6
f 125/2/6 126/2/6 127/2/6
f 126/4/6 110/4/6 128/4/6
f 127/2/6 126/2/6 128/2/6
f 123/4/6 127/4/6 129/4/6
f 115/4/6 123/4/6 129/4/6
f 127/4/6 128/4/6 129/4/6
f 129/4/6 128/4/6 130/4/6
f 128/4/6 110/4/6 131/4/6
f 130/4/6 128/4/6 131/4/6
f 131/4/6 110/4/6 132/4/6
f 132/4/6 110/4/6 133/4/6
f 133/4/6 110/4/6 134/4/6
f 129/1/6 130/1/6 135/1/6
f 115/4/6 129/4/6 135/4/6
f 130/4/6 131/4/6 136/4/6
f 135/1/6 130/1/6 136/1/6
f 131/1/6 132/1/6 137/1/6
f 136/4/6 131/4/6 137/4/6
f 132/4/6 133/4/6 138/4/6
f 137/1/6 132/1/6 138/1/6
f 133/1/6 134/1/6 139/1/6
f 138/4/6 133/4/6 139/4/6
f 134/4/6 110/4/6 140/4/6
f 139/1/6 134/1/6 140/1/6
f 115/4/6 135/4/6 141/4/6
f 135/2/6 136/2/6 141/2/6
f 136/4/6 137/4/6 142/4/6
f 141/2/6 136/2/6 142/2/6
f 137/2/6 138/2/6 143/2/6
f 142/4/6 137/4/6 143/4/6
f 138/4/6 139/4/6 144/4/6
f 143/2/6 138/2/6 144/2/6
f 139/2/6 140/2/6 145/2/6
f 144/4/6 139/4/6 145/4/6
f 140/4/6 110/4/6 146/4/6
f 145/2/6 140/2/6 146/2/6
f 142/4/6 143/4/6 147/4/6
f 141/4/6 142/4/6 147/4/6
f 145/4/6 146/4/6 147/4/6
f 115/4/6 141/4/6 147/4/6
f 143/4/6 144/4/6 147/4/6
f 144/4/6 145/4/6 147/4/6
f 147/4/6 146/4/6 148/4/6
f 115/4/6 147/4/6 149/4/6
f 147/1/6 148/1/6 149/1/6
f 148/4/6 146/4/6 150/4/6
f 149/1/6 148/1/6 150/1/6
f 115/4/6 149/4/6 151/4/6
f 149/2/6 150/2/6 151/2/6
f 150/4/6 146/4/6 152/4/6
f 151/2/6 150/2/6 152/2/6
f 146/4/6 110/4/6 153/4/6
f 152/4/6 146/4/6 153/4/6
f 151/4/6 152/4/6 153/4/6
f 153/4/6 110/4/6 154/4/6
f 151/4/6 153/4/6 155/4/6
f 153/1/6 154/1/6 155/1/6
f 154/4/6 110/4/6 156/4/6
f 155/1/6 154/1/6 156/1/6
f 156/4/6 110/4/6 157/4/6
f 157/4/6 110/4/6 158/4/6
f 151/4/6 155/4/6 159/4/6
f 155/2/6 156/2/6 159/2/6
f 156/4/6 157/4/6 160/4/6
f 159/2/6 156/2/6 160/2/6
f 157/1/6 158/1/6 161/1/6
f 160/4/6 157/4/6 161/4/6
f 158/4/6 110/4/6 162/4/6
f 161/1/6 158/1/6 162/1/6
f 160/4/6 161/4/6 163/4/6
f 159/4/6 160/4/6 163/4/6
f 161/2/6 162/2/6 163/2/6
f 162/4/6 110/4/6 164/4/6
f 163/2/6 162/2/6 164/2/6
f 159/4/6 163/4/6 165/4/6
f 151/4/6 159/4/6 165/4/6
f 163/4/6 164/4/6 165/4/6
f 165/4/6 164/4/6 166/4/6
f 151/4/6 165/4/6 167/4/6
f 165/1/6 166/1/6 167/1/6
f 166/4/6 164/4/6 168/4/6
f 167/1/6 166/1/6 168/1/6
f 151/4/6 167/4/6 169/4/6
f 167/2/6 168/2/6 169/2/6
f 168/4/6 164/4/6 170/4/6
f 169/2/6 168/2/6 170/2/6
f 115/4/6 151/4/6 171/4/6
f 151/4/6 169/4/6 171/4/6
f 169/4/6 170/4/6 171/4/6
f 171/4/6 170/4/6 172/4/6
f 115/4/6 171/4/6 173/4/6
f 171/1/6 172/1/6 173/1/6
f 172/4/6 170/4/6 174/4/6
f 173/1/6 172/1/6 174/1/6
f 115/4/6 173/4/6 175/4/6
f 173/2/6 174/2/6 175/2/6
f 174/4/6 170/4/6 176/4/6
f 175/2/6 174/2/6 176/2/6
f 176/4/6 170/4/6 177/4/6
f 177/4/6 170/4/6 178/4/6
f 175/4/6 176/4/6 179/4/6
f 176/4/6 177/4/6 179/4/6
f 177/1/6 178/1/6 179/1/6
f 178/4/6 170/4/6 180/4/6
f 179/1/6 178/1/6 180/1/6
f 175/4/6 179/4/6 181/4/6
f 179/2/6 180/2/6 181/2/6
f 180/4/6 170/4/6 182/4/6
f 181/2/6 180/2/6 182/2/6
f 170/4/6 164/4/6 183/4/6
f 182/4/6 170/4/6 183/4/6
f 181/4/6 182/4/6 183/4/6
f 183/4/6 164/4/6 184/4/6
f 181/4/6 183/4/6 185/4/6
f 183/1/6 184/1/6 185/1/6
f 184/4/6 164/4/6 186/4/6
f 185/1/6 184/1/6 186/1/6
f 186/4/6 164/4/6 187/4/6
f 187/4/6 164/4/6 188/4/6
f 181/4/6 185/4/6 189/4/6
f 185/2/6 186/2/6 189/2/6
f 186/4/6 187/4/6 190/4/6
f 189/2/6 186/2/6 190/2/6
f 187/1/6 188/1/6 191/1/6
f 190/4/6 187/4/6 191/4/6
f 188/4/6 164/4/6 192/4/6
f 191/1/6 188/1/6 192/1/6
f 190/4/6 191/4/6 193/4/6
f 189/4/6 190/4/6 193/4/6
f 191/2/6 192/2/6 193/2/6
f 192/4/6 164/4/6 194/4/6
f 193/2/6 192/2/6 194/2/6
f 193/4/6 194/4/6 195/4/6
f 194/4/6 164/4/6 195/4/6
f 195/4/6 164/4/6 196/4/6
f 193/4/6 195/4/6 197/4/6
f 195/1/6 196/1/6 197/1/6
f 196/4/6 164/4/6 198/4/6
f 197/1/6 196/1/6 198/1/6
f 193/4/6 197/4/6 199/4/6
f 197/2/6 198/2/6 199/2/6
f 198/4/6 164/4/6 200/4/6
f 199/2/6 198/2/6 200/2/6
f 189/4/6 193/4/6 201/4/6
f 181/4/6 189/4/6 201/4/6
f 199/4/6 200/4/6 201/4/6
f 193/4/6 199/4/6 201/4/6
f 201/4/6 200/4/6 202/4/6
f 181/4/6 201/4/6 203/4/6
f 201/1/6 202/1/6 203/1/6
f 202/4/6 200/4/6 204/4/6
f 203/1/6 202/1/6 204/1/6
f 204/4/6 200/4/6 205/4/6
f 205/4/6 200/4/6 206/4/6
f 181/4/6 203/4/6 207/4/6
f 203/2/6 204/2/6 207/2/6
f 204/4/6 205/4/6 208/4/6
f 207/2/6 204/2/6 208/2/6
f 205/1/6 206/1/6 209/1/6
f 208/4/6 205/4/6 209/4/6
f 206/4/6 200/4/6 210/4/6
f 209/1/6 206/1/6 210/1/6
f 208/4/6 209/4/6 211/4/6
f 207/4/6 208/4/6 211/4/6
f 209/2/6 210/2/6 211/2/6
f 210/4/6 200/4/6 212/4/6
f 211/2/6 210/2/6 212/2/6
f 211/4/6 212/4/6 213/4/6
f 212/4/6 200/4/6 213/4/6
f 213/4/6 200/4/6 214/4/6
f 211/4/6 213/4/6 215/4/6
f 213/1/6 214/1/6 215/1/6
f 214/4/6 200/4/6 216/4/6
f 215/1/6 214/1/6 216/1/6
f 211/4/6 215/4/6 217/4/6
f 215/2/6 216/2/6 217/2/6
f 216/4/6 200/4/6 218/4/6
f 217/2/6 216/2/6 218/2/6
f 207/4/6 211/4/6 219/4/6
f 181/4/6 207/4/6 219/4/6
f 217/4/6 218/4/6 219/4/6
f 211/4/6 217/4/6 219/4/6
f 219/4/6 218/4/6 220/4/6
f 181/4/6 219/4/6 221/4/6
f 219/1/6 220/1/6 221/1/6
f 220/4/6 218/4/6 222/4/6
f 221/1/6 220/1/6 222/1/6
f 181/4/6 221/4/6 223/4/6
f 221/2/6 222/2/6 223/2/6
f 222/4/6 218/4/6 224/4/6
f 223/2/6 222/2/6 224/2/6
f 218/4/6 200/4/6 225/4/6
f 224/4/6 218/4/6 225/4/6
f 223/4/6 224/4/6 225/4/6
f 225/4/6 200/4/6 226/4/6
f 223/4/6 225/4/6 227/4/6
f 225/1/6 226/1/6 227/1/6
f 226/4/6 200/4/6 228/4/6
f 227/1/6 226/1/6 228/1/6
f 223/4/6 227/4/6 229/4/6
f 227/2/6 228/2/6 229/2/6
f 228/4/6 200/4/6 230/4/6
f 229/2/6 228/2/6 230/2/6
f 175/4/6 181/4/6 231/4/6
f 181/4/6 223/4/6 231/4/6
f 229/4/6 230/4/6 231/4/6
f 223/4/6 229/4/6 231/4/6
f 231/4/6 230/4/6 232/4/6
f 175/4/6 231/4/6 233/4/6
f 231/1/6 232/1/6 233/1/6
f 232/4/6 230/4/6 234/4/6
f 233/1/6 232/1/6 234/1/6
f 175/4/6 233/4/6 235/4/6
f 233/2/6 234/2/6 235/2/6
f 234/4/6 230/4/6 236/4/6
f 235/2/6 234/2/6 236/2/6
f 235/4/6 236/4/6 237/4/6
f 236/4/6 230/4/6 237/4/6
f 237/4/6 230/4/6 238/4/6
f 235/4/6 237/4/6 239/4/6
f 237/1/6 238/1/6 239/1/6
f 238/4/6 230/4/6 240/4/6
f 239/1/6 238/1/6 240/1/6
f 235/4/6 239/4/6 241/4/6
f 239/2/6 240/2/6 241/2/6
f 240/4/6 230/4/6 242/4/6
f 241/2/6 240/2/6 242/2/6
f 230/4/6 200/4/6 243/4/6
f 242/4/6 230/4/6 243/4/6
f 243/4/6 200/4/6 244/4/6
f 241/4/6 242/4/6 245/4/6
f 242/4/6 243/4/6 245/4/6
f 243/1/6 244/1/6 245/1/6
f 244/4/6 200/4/6 246/4/6
f 245/1/6 244/1/6 246/1/6
f 200/4/6 164/4/6 247/4/6
f 246/4/6 200/4/6 247/4/6
f 247/4/6 164/4/6 248/4/6
f 241/4/6 245/4/6 249/4/6
f 245/2/6 246/2/6 249/2/6
f 246/4/6 247/4/6 250/4/6
f 249/2/6 246/2/6 250/2/6
f 247/1/6 248/1/6 251/1/6
f 250/4/6 247/4/6 251/4/6
f 248/4/6 164/4/6 252/4/6
f 251/1/6 248/1/6 252/1/6
f 250/4/6 251/4/6 253/4/6
f 249/4/6 250/4/6 253/4/6
f 251/2/6 252/2/6 253/2/6
f 252/4/6 164/4/6 254/4/6
f 253/2/6 252/2/6 254/2/6
f 249/4/6 253/4/6 255/4/6
f 241/4/6 249/4/6 255/4/6
f 253/4/6 254/4/6 255/4/6
f 255/4/6 254/4/6 256/4/6
f 241/4/6 255/4/6 257/4/6
f 255/1/6 256/1/6 257/1/6
f 256/4/6 254/4/6 258/4/6
f 257/1/6 256/1/6 258/1/6
f 258/4/6 254/4/6 259/4/6
f 259/4/6 254/4/6 260/4/6
f 241/4/6 257/4/6 261/4/6
f 257/2/6 258/2/6 261/2/6
f 258/4/6 259/4/6 262/4/6
f 261/2/6 258/2/6 262/2/6
f 259/1/6 260/1/6 263/1/6
f 262/4/6 259/4/6 263/4/6
f 260/4/6 254/4/6 264/4/6
f 263/1/6 260/1/6 264/1/6
f 262/4/6 263/4/6 265/4/6
f 261/4/6 262/4/6 265/4/6
f 263/2/6 264/2/6 265/2/6
f 264/4/6 254/4/6 266/4/6
f 265/2/6 264/2/6 266/2/6
f 265/4/6 266/4/6 267/4/6
f 266/4/6 254/4/6 267/4/6
f 267/4/6 254/4/6 268/4/6
f 265/4/6 267/4/6 269/4/6
f 267/1/6 268/1/6 269/1/6
f 268/4/6 254/4/6 270/4/6
f 269/1/6 268/1/6 270/1/6
f 270/4/6 254/4/6 271/4/6
f 271/4/6 254/4/6 272/4/6
f 265/4/6 269/4/6 273/4/6
f 269/2/6 270/2/6 273/2/6
f 270/4/6 271/4/6 274/4/6
f 273/2/6 270/2/6 274/2/6
f 271/1/6 272/1/6 275/1/6
f 274/4/6 271/4/6 275/4/6
f 272/4/6 254/4/6 276/4/6
f 275/1/6 272/1/6 276/1/6
f 274/4/6 275/4/6 277/4/6
f 273/4/6 274/4/6 277/4/6
f 275/2/6 276/2/6 277/2/6
f 276/4/6 254/4/6 278/4/6
f 277/2/6 276/2/6 278/2/6
f 277/4/6 278/4/6 279/4/6
f 278/4/6 254/4/6 279/4/6
f 279/4/6 254/4/6 280/4/6
f 277/4/6 279/4/6 281/4/6
f 279/1/6 280/1/6 281/1/6
f 280/4/6 254/4/6 282/4/6
f 281/1/6 280/1/6 282/1/6
f 277/4/6 281/4/6 283/4/6
f 281/2/6 282/2/6 283/2/6
f 282/4/6 254/4/6 284/4/6
f 283/2/6 282/2/6 284/2/6
f 261/4/6 265/4/6 285/4/6
f 241/4/6 261/4/6 285/4/6
f 283/4/6 284/4/6 285/4/6
f 277/4/6 283/4/6 285/4/6
f 265/4/6 273/4/6 285/4/6
f 273/4/6 277/4/6 285/4/6
f 285/4/6 284/4/6 286/4/6
f 241/4/6 285/4/6 287/4/6
f 285/1/6 286/1/6 287/1/6
f 286/4/6 284/4/6 288/4/6
f 287/1/6 286/1/6 288/1/6
f 241/4/6 287/4/6 289/4/6
f 287/2/6 288/2/6 289/2/6
f 288/4/6 284/4/6 290/4/6
f 289/2/6 288/2/6 290/2/6
f 289/4/6 290/4/6 291/4/6
f 290/4/6 284/4/6 291/4/6
f 291/4/6 284/4/6 292/4/6
f 289/4/6 291/4/6 293/4/6
f 291/1/6 292/1/6 293/1/6
f 292/4/6 284/4/6 294/4/6
f 293/1/6 292/1/6 294/1/6
f 289/4/6 293/4/6 295/4/6
f 293/2/6 294/2/6 295/2/6
f 294/4/6 284/4/6 296/4/6
f 295/2/6 294/2/6 296/2/6
f 254/4/6 164/4/6 297/4/6
f 296/4/6 284/4/6 297/4/6
f 295/4/6 296/4/6 297/4/6
f 284/4/6 254/4/6 297/4/6
f 297/4/6 164/4/6 298/4/6
f 295/4/6 297/4/6 299/4/6
f 297/1/6 298/1/6 299/1/6
f 298/4/6 164/4/6 300/4/6
f 299/1/6 298/1/6 300/1/6
f 86/4/6 80/4/6 301/4/6
f 300/4/6 164/4/6 301/4/6
f 110/4/6 86/4/6 301/4/6
f 164/4/6 110/4/6 301/4/6
f 301/4/6 80/4/6 302/4/6
f 295/4/6 299/4/6 303/4/6
f 289/4/6 295/4/6 303/4/6
f 241/4/6 289/4/6 303/4/6
f 303/4/6 299/4/6 304/4/6
f 299/2/6 300/2/6 305/2/6
f 304/4/6 299/4/6 305/4/6
f 300/4/6 301/4/6 306/4/6
f 305/2/6 300/2/6 306/2/6
f 301/1/6 302/1/6 307/1/6
f 306/4/6 301/4/6 307/4/6
f 302/4/6 80/4/6 308/4/6
f 307/1/6 302/1/6 308/1/6
f 303/1/6 304/1/6 309/1/6
f 241/4/6 303/4/6 309/4/6
f 306/4/6 307/4/6 310/4/6
f 309/1/6 304/1/6 310/1/6
f 305/4/6 306/4/6 310/4/6
f 304/4/6 305/4/6 310/4/6
f 307/2/6 308/2/6 311/2/6
f 310/4/6 307/4/6 311/4/6
f 308/4/6 80/4/6 312/4/6
f 311/2/6 308/2/6 312/2/6
f 241/4/6 309/4/6 313/4/6
f 79/4/6 115/4/6 313/4/6
f 175/4/6 235/4/6 313/4/6
f 235/4/6 241/4/6 313/4/6
f 115/4/6 175/4/6 313/4/6
f 313/4/6 309/4/6 314/4/6
f 309/2/6 310/2/6 315/2/6
f 314/4/6 309/4/6 315/4/6
f 310/4/6 311/4/6 316/4/6
f 315/2/6 310/2/6 316/2/6
f 311/4/6 312/4/6 316/4/6
f 316/4/6 312/4/6 317/4/6
f 317/4/6 312/4/6 318/4/6
f 79/4/6 313/4/6 319/4/6
f 313/1/6 314/1/6 319/1/6
f 314/4/6 315/4/6 320/4/6
f 319/1/6 314/1/6 320/1/6
f 315/4/6 316/4/6 320/4/6
f 316/4/6 317/4/6 320/4/6
f 317/2/6 318/2/6 321/2/6
f 320/4/6 317/4/6 321/4/6
f 318/4/6 312/4/6 322/4/6
f 321/2/6 318/2/6 322/2/6
f 79/4/6 319/4/6 323/4/6
f 319/2/6 320/2/6 323/2/6
f 320/4/6 321/4/6 324/4/6
f 323/2/6 320/2/6 324/2/6
f 321/4/6 322/4/6 324/4/6
f 79/4/6 323/4/6 325/4/6
f 323/4/6 324/4/6 325/4/6
f 322/4/6 312/4/6 326/4/6
f 325/4/6 324/4/6 326/4/6
f 312/4/6 80/4/6 326/4/6
f 324/4/6 322/4/6 326/4/6
