# MagicaVoxel @ Ephtracy

# group
o 

# material
mtllib Lightsaber-0.mtl
usemtl palette

# normals
vn 0 1 0
vn 0 -1 0
vn -1 0 0
vn 1 0 0
vn 0 0 -1
vn 0 0 1

# texcoords
vt 0.0175781 0.5
vt 0.0292969 0.5
vt 0.931641 0.5
vt 0.955078 0.5

# verts
v 3.6 3 1.1
v 3.9 3 1.1
v 3.6 3 1.7
v 3.9 3 1.7
v 3.6 3 2.3
v 3.9 3 2.3
v 3.6 3 2.4
v 3.9 3 2.4
v 3.6 3 2.5
v 3.9 3 2.5
v 3.6 3 8.2
v 3.9 3 8.2
v 3.6 2.9 8.2
v 3.9 2.9 8.2
v 3.6 2.9 8.3
v 3.9 2.9 8.3
v 3.6 2.7 8.2
v 3.9 2.7 8.2
v 3.6 2.7 8.3
v 3.9 2.7 8.3
v 3.6 2.6 1.1
v 3.9 2.6 1.1
v 3.6 2.6 1.7
v 3.9 2.6 1.7
v 3.6 2.6 2.3
v 3.9 2.6 2.3
v 3.6 2.6 2.4
v 3.9 2.6 2.4
v 3.6 2.6 2.5
v 3.9 2.6 2.5
v 3.6 2.6 8.2
v 3.9 2.6 8.2
v 3.6 3 1.1
v 3.6 3 1.7
v 3.6 3 2.3
v 3.6 3 2.4
v 3.6 3 2.5
v 3.6 3 8.2
v 3.6 2.9 1.9
v 3.6 2.9 2
v 3.6 2.9 2.1
v 3.6 2.9 2.2
v 3.6 2.9 2.5
v 3.6 2.9 8.2
v 3.6 2.9 8.3
v 3.6 2.7 1.9
v 3.6 2.7 2
v 3.6 2.7 2.1
v 3.6 2.7 2.2
v 3.6 2.7 2.5
v 3.6 2.7 8.2
v 3.6 2.7 8.3
v 3.6 2.6 1.1
v 3.6 2.6 1.7
v 3.6 2.6 2.3
v 3.6 2.6 2.4
v 3.6 2.6 2.5
v 3.6 2.6 8.2
v 3.9 3 1.1
v 3.9 3 1.7
v 3.9 3 2.3
v 3.9 3 2.4
v 3.9 3 2.5
v 3.9 3 8.2
v 3.9 2.9 1.9
v 3.9 2.9 2
v 3.9 2.9 2.1
v 3.9 2.9 2.2
v 3.9 2.9 2.5
v 3.9 2.9 8.2
v 3.9 2.9 8.3
v 3.9 2.7 1.9
v 3.9 2.7 2
v 3.9 2.7 2.1
v 3.9 2.7 2.2
v 3.9 2.7 2.5
v 3.9 2.7 8.2
v 3.9 2.7 8.3
v 3.9 2.6 1.1
v 3.9 2.6 1.7
v 3.9 2.6 2.3
v 3.9 2.6 2.4
v 3.9 2.6 2.5
v 3.9 2.6 8.2
v 3.6 3 1.1
v 3.6 2.6 1.1
v 3.9 3 1.1
v 3.9 2.6 1.1
v 3.6 3 8.2
v 3.6 2.9 8.2
v 3.6 2.7 8.2
v 3.6 2.6 8.2
v 3.9 3 8.2
v 3.9 2.9 8.2
v 3.9 2.7 8.2
v 3.9 2.6 8.2
v 3.6 2.9 8.3
v 3.6 2.7 8.3
v 3.9 2.9 8.3
v 3.9 2.7 8.3

# faces
f 3/4/1 2/4/1 1/4/1
f 4/4/1 2/4/1 3/4/1
f 5/3/1 4/3/1 3/3/1
f 6/3/1 4/3/1 5/3/1
f 7/4/1 6/4/1 5/4/1
f 8/4/1 6/4/1 7/4/1
f 9/3/1 8/3/1 7/3/1
f 10/3/1 8/3/1 9/3/1
f 11/1/1 10/1/1 9/1/1
f 12/1/1 10/1/1 11/1/1
f 15/1/1 14/1/1 13/1/1
f 16/1/1 14/1/1 15/1/1
f 17/1/2 18/1/2 19/1/2
f 19/1/2 18/1/2 20/1/2
f 21/4/2 22/4/2 23/4/2
f 23/4/2 22/4/2 24/4/2
f 23/3/2 24/3/2 25/3/2
f 25/3/2 24/3/2 26/3/2
f 25/4/2 26/4/2 27/4/2
f 27/4/2 26/4/2 28/4/2
f 27/3/2 28/3/2 29/3/2
f 29/3/2 28/3/2 30/3/2
f 29/1/2 30/1/2 31/1/2
f 31/1/2 30/1/2 32/1/2
f 39/3/3 35/3/3 34/3/3
f 40/3/3 35/3/3 39/3/3
f 41/3/3 35/3/3 40/3/3
f 42/3/3 35/3/3 41/3/3
f 43/1/3 38/1/3 37/1/3
f 43/3/3 37/3/3 36/3/3
f 44/1/3 38/1/3 43/1/3
f 46/3/3 39/3/3 34/3/3
f 46/4/3 40/4/3 39/4/3
f 47/3/3 41/3/3 40/3/3
f 47/4/3 40/4/3 46/4/3
f 48/4/3 42/4/3 41/4/3
f 48/3/3 41/3/3 47/3/3
f 49/3/3 35/3/3 42/3/3
f 49/4/3 42/4/3 48/4/3
f 50/2/3 44/2/3 43/2/3
f 50/3/3 43/3/3 36/3/3
f 51/1/3 45/1/3 44/1/3
f 51/2/3 44/2/3 50/2/3
f 52/1/3 45/1/3 51/1/3
f 53/4/3 34/4/3 33/4/3
f 54/3/3 48/3/3 47/3/3
f 54/4/3 34/4/3 53/4/3
f 54/3/3 47/3/3 46/3/3
f 54/3/3 46/3/3 34/3/3
f 54/3/3 49/3/3 48/3/3
f 55/4/3 36/4/3 35/4/3
f 55/3/3 49/3/3 54/3/3
f 55/3/3 35/3/3 49/3/3
f 56/3/3 50/3/3 36/3/3
f 56/4/3 36/4/3 55/4/3
f 57/1/3 51/1/3 50/1/3
f 57/3/3 50/3/3 56/3/3
f 58/1/3 51/1/3 57/1/3
f 60/3/4 61/3/4 65/3/4
f 65/3/4 61/3/4 66/3/4
f 66/3/4 61/3/4 67/3/4
f 67/3/4 61/3/4 68/3/4
f 63/1/4 64/1/4 69/1/4
f 62/3/4 63/3/4 69/3/4
f 69/1/4 64/1/4 70/1/4
f 60/3/4 65/3/4 72/3/4
f 65/4/4 66/4/4 72/4/4
f 66/3/4 67/3/4 73/3/4
f 72/4/4 66/4/4 73/4/4
f 67/4/4 68/4/4 74/4/4
f 73/3/4 67/3/4 74/3/4
f 68/3/4 61/3/4 75/3/4
f 74/4/4 68/4/4 75/4/4
f 69/2/4 70/2/4 76/2/4
f 62/3/4 69/3/4 76/3/4
f 70/1/4 71/1/4 77/1/4
f 76/2/4 70/2/4 77/2/4
f 77/1/4 71/1/4 78/1/4
f 59/4/4 60/4/4 79/4/4
f 73/3/4 74/3/4 80/3/4
f 79/4/4 60/4/4 80/4/4
f 72/3/4 73/3/4 80/3/4
f 60/3/4 72/3/4 80/3/4
f 74/3/4 75/3/4 80/3/4
f 61/4/4 62/4/4 81/4/4
f 80/3/4 75/3/4 81/3/4
f 75/3/4 61/3/4 81/3/4
f 62/3/4 76/3/4 82/3/4
f 81/4/4 62/4/4 82/4/4
f 76/1/4 77/1/4 83/1/4
f 82/3/4 76/3/4 83/3/4
f 83/1/4 77/1/4 84/1/4
f 87/4/5 86/4/5 85/4/5
f 88/4/5 86/4/5 87/4/5
f 89/1/6 90/1/6 93/1/6
f 93/1/6 90/1/6 94/1/6
f 91/1/6 92/1/6 95/1/6
f 95/1/6 92/1/6 96/1/6
f 97/1/6 98/1/6 99/1/6
f 99/1/6 98/1/6 100/1/6
