# MagicaVoxel @ Ephtracy

# group
o 

# material
mtllib Near-0.mtl
usemtl palette

# normals
vn -1 0 0
vn 1 0 0
vn 0 0 1
vn 0 0 -1
vn 0 -1 0
vn 0 1 0

# texcoords
vt 0.958984 0.5
vt 0.986328 0.5

# verts
v 0.6 7.1 2.7
v 0.6 7.1 1.2
v 0.6 7.2 2.7
v 0.6 7.2 1.2
v 0.7 7 2.8
v 0.7 7 2.7
v 0.7 7.1 2.8
v 0.7 7.1 2.7
v 0.7 7.1 1.2
v 0.7 7.1 1.1
v 0.7 7.2 1.2
v 0.7 7.2 1.1
v 0.8 4.2 3
v 0.8 4.2 2.9
v 0.8 5.4 3
v 0.8 5.4 2.9
v 0.8 6.9 2.8
v 0.8 6.9 2.7
v 0.8 7 2.8
v 0.8 7 2.7
v 0.9 6.8 2.9
v 0.9 6.8 2.7
v 0.9 6.9 2.9
v 0.9 6.9 2.8
v 0.9 6.9 2.7
v 1 4.4 3
v 1 4.4 2.9
v 1 4.5 3
v 1 4.5 2.9
v 1 5.1 3
v 1 5.1 2.9
v 1 5.2 3
v 1 5.2 2.9
v 1 5.4 3
v 1 5.4 2.9
v 1 6.8 3
v 1 6.8 2.9
v 1.1 5 3
v 1.1 5 2.9
v 1.1 5.1 3
v 1.1 5.1 2.9
v 1.2 4.5 3
v 1.2 4.5 2.9
v 1.2 4.6 3
v 1.2 4.6 2.9
v 1.2 4.9 3
v 1.2 4.9 2.9
v 1.2 5 3
v 1.2 5 2.9
v 1.3 4.7 3
v 1.3 4.7 2.9
v 1.3 4.9 3
v 1.3 4.9 2.9
v 1.4 4.6 3
v 1.4 4.6 2.9
v 1.4 4.7 3
v 1.4 4.7 2.9
v 1.4 5 3
v 1.4 5 2.9
v 1.4 5.1 3
v 1.4 5.1 2.9
v 1.5 4.4 3
v 1.5 4.4 2.9
v 1.5 4.6 3
v 1.5 4.6 2.9
v 1.5 5.1 3
v 1.5 5.1 2.9
v 1.5 5.2 3
v 1.5 5.2 2.9
v 1.5 5.3 3
v 1.5 5.3 2.9
v 1.6 4.3 3
v 1.6 4.3 2.9
v 1.6 4.4 3
v 1.6 4.4 2.9
v 1.6 5.3 3
v 1.6 5.3 2.9
v 1.6 6.8 3
v 1.6 6.8 2.9
v 1.7 4.2 3
v 1.7 4.2 2.9
v 1.7 4.3 3
v 1.7 4.3 2.9
v 1.7 6.8 2.9
v 1.7 6.8 2.7
v 1.7 6.9 2.9
v 1.7 6.9 2.7
v 1.8 4.4 3
v 1.8 4.4 2.9
v 1.8 5.2 3
v 1.8 5.2 2.9
v 1.8 6.9 2.8
v 1.8 6.9 2.7
v 1.8 7 2.8
v 1.8 7 2.7
v 1.9 7 2.8
v 1.9 7 2.7
v 1.9 7.1 2.8
v 1.9 7.1 2.7
v 1.9 7.1 1.2
v 1.9 7.2 2.7
v 1.9 7.2 1.2
v 0.7 7.1 2.7
v 0.7 7.1 1.2
v 0.7 7.2 2.7
v 0.7 7.2 1.2
v 0.8 7 2.8
v 0.8 7 2.7
v 0.8 7.1 2.8
v 0.8 7.1 2.7
v 0.9 4.4 3
v 0.9 4.4 2.9
v 0.9 5.2 3
v 0.9 5.2 2.9
v 0.9 6.9 2.8
v 0.9 6.9 2.7
v 0.9 7 2.8
v 0.9 7 2.7
v 1 4.2 3
v 1 4.2 2.9
v 1 4.3 3
v 1 4.3 2.9
v 1 6.8 2.9
v 1 6.8 2.7
v 1 6.9 2.9
v 1 6.9 2.7
v 1.1 4.3 3
v 1.1 4.3 2.9
v 1.1 4.4 3
v 1.1 4.4 2.9
v 1.1 5.3 3
v 1.1 5.3 2.9
v 1.1 6.8 3
v 1.1 6.8 2.9
v 1.2 4.4 3
v 1.2 4.4 2.9
v 1.2 4.5 3
v 1.2 4.5 2.9
v 1.2 5 3
v 1.2 5 2.9
v 1.2 5.2 3
v 1.2 5.2 2.9
v 1.2 5.3 3
v 1.2 5.3 2.9
v 1.3 4.5 3
v 1.3 4.5 2.9
v 1.3 4.6 3
v 1.3 4.6 2.9
v 1.3 4.9 3
v 1.3 4.9 2.9
v 1.3 5 3
v 1.3 5 2.9
v 1.4 4.7 3
v 1.4 4.7 2.9
v 1.4 4.9 3
v 1.4 4.9 2.9
v 1.5 4.6 3
v 1.5 4.6 2.9
v 1.5 4.7 3
v 1.5 4.7 2.9
v 1.5 5 3
v 1.5 5 2.9
v 1.5 5.1 3
v 1.5 5.1 2.9
v 1.6 4.5 3
v 1.6 4.5 2.9
v 1.6 4.6 3
v 1.6 4.6 2.9
v 1.7 4.4 3
v 1.7 4.4 2.9
v 1.7 4.5 3
v 1.7 4.5 2.9
v 1.7 5.1 3
v 1.7 5.1 2.9
v 1.7 5.2 3
v 1.7 5.2 2.9
v 1.7 5.4 3
v 1.7 5.4 2.9
v 1.7 6.8 3
v 1.7 6.8 2.9
v 1.8 6.8 2.9
v 1.8 6.8 2.7
v 1.8 6.9 2.9
v 1.8 6.9 2.8
v 1.8 6.9 2.7
v 1.9 4.2 3
v 1.9 4.2 2.9
v 1.9 5.4 3
v 1.9 5.4 2.9
v 1.9 6.9 2.8
v 1.9 6.9 2.7
v 1.9 7 2.8
v 1.9 7 2.7
v 1.9 7.1 1.2
v 1.9 7.1 1.1
v 1.9 7.2 1.2
v 1.9 7.2 1.1
v 2 7 2.8
v 2 7 2.7
v 2 7.1 2.8
v 2 7.1 2.7
v 2 7.1 1.2
v 2 7.2 2.7
v 2 7.2 1.2
v 0.8 4.2 3
v 0.8 5.4 3
v 0.9 4.4 3
v 0.9 5.2 3
v 1 4.2 3
v 1 4.3 3
v 1 4.4 3
v 1 4.5 3
v 1 5.1 3
v 1 5.2 3
v 1 5.3 3
v 1 5.4 3
v 1 6.8 3
v 1.1 4.3 3
v 1.1 4.4 3
v 1.1 5 3
v 1.1 5.1 3
v 1.1 5.2 3
v 1.1 5.3 3
v 1.1 6.8 3
v 1.2 4.4 3
v 1.2 4.5 3
v 1.2 4.6 3
v 1.2 4.9 3
v 1.2 5 3
v 1.2 5.2 3
v 1.2 5.3 3
v 1.3 4.5 3
v 1.3 4.6 3
v 1.3 4.7 3
v 1.3 4.9 3
v 1.3 5 3
v 1.4 4.6 3
v 1.4 4.7 3
v 1.4 4.9 3
v 1.4 5 3
v 1.4 5.1 3
v 1.5 4.4 3
v 1.5 4.6 3
v 1.5 4.7 3
v 1.5 5 3
v 1.5 5.1 3
v 1.5 5.2 3
v 1.5 5.3 3
v 1.6 4.3 3
v 1.6 4.4 3
v 1.6 4.5 3
v 1.6 4.6 3
v 1.6 5.2 3
v 1.6 5.3 3
v 1.6 6.8 3
v 1.7 4.2 3
v 1.7 4.3 3
v 1.7 4.4 3
v 1.7 4.5 3
v 1.7 5.1 3
v 1.7 5.2 3
v 1.7 5.3 3
v 1.7 5.4 3
v 1.7 6.8 3
v 1.8 4.4 3
v 1.8 5.2 3
v 1.9 4.2 3
v 1.9 5.4 3
v 0.9 6.8 2.9
v 0.9 6.9 2.9
v 1 6.8 2.9
v 1 6.9 2.9
v 1.7 6.8 2.9
v 1.7 6.9 2.9
v 1.8 6.8 2.9
v 1.8 6.9 2.9
v 0.7 7 2.8
v 0.7 7.1 2.8
v 0.8 6.9 2.8
v 0.8 7 2.8
v 0.8 7.1 2.8
v 0.9 6.9 2.8
v 0.9 7 2.8
v 1.8 6.9 2.8
v 1.8 7 2.8
v 1.9 6.9 2.8
v 1.9 7 2.8
v 1.9 7.1 2.8
v 2 7 2.8
v 2 7.1 2.8
v 0.6 7.1 2.7
v 0.6 7.2 2.7
v 0.7 7.1 2.7
v 0.7 7.2 2.7
v 1.9 7.1 2.7
v 1.9 7.2 2.7
v 2 7.1 2.7
v 2 7.2 2.7
v 0.7 7.1 1.2
v 0.7 7.2 1.2
v 1.9 7.1 1.2
v 1.9 7.2 1.2
v 0.8 4.2 2.9
v 0.8 5.4 2.9
v 0.9 4.4 2.9
v 0.9 5.2 2.9
v 1 4.2 2.9
v 1 4.3 2.9
v 1 4.4 2.9
v 1 4.5 2.9
v 1 5.1 2.9
v 1 5.2 2.9
v 1 5.3 2.9
v 1 5.4 2.9
v 1 6.8 2.9
v 1.1 4.3 2.9
v 1.1 4.4 2.9
v 1.1 5 2.9
v 1.1 5.1 2.9
v 1.1 5.2 2.9
v 1.1 5.3 2.9
v 1.1 6.8 2.9
v 1.2 4.4 2.9
v 1.2 4.5 2.9
v 1.2 4.6 2.9
v 1.2 4.9 2.9
v 1.2 5 2.9
v 1.2 5.2 2.9
v 1.2 5.3 2.9
v 1.3 4.5 2.9
v 1.3 4.6 2.9
v 1.3 4.7 2.9
v 1.3 4.9 2.9
v 1.3 5 2.9
v 1.4 4.6 2.9
v 1.4 4.7 2.9
v 1.4 4.9 2.9
v 1.4 5 2.9
v 1.4 5.1 2.9
v 1.5 4.4 2.9
v 1.5 4.6 2.9
v 1.5 4.7 2.9
v 1.5 5 2.9
v 1.5 5.1 2.9
v 1.5 5.2 2.9
v 1.5 5.3 2.9
v 1.6 4.3 2.9
v 1.6 4.4 2.9
v 1.6 4.5 2.9
v 1.6 4.6 2.9
v 1.6 5.2 2.9
v 1.6 5.3 2.9
v 1.6 6.8 2.9
v 1.7 4.2 2.9
v 1.7 4.3 2.9
v 1.7 4.4 2.9
v 1.7 4.5 2.9
v 1.7 5.1 2.9
v 1.7 5.2 2.9
v 1.7 5.3 2.9
v 1.7 5.4 2.9
v 1.7 6.8 2.9
v 1.8 4.4 2.9
v 1.8 5.2 2.9
v 1.9 4.2 2.9
v 1.9 5.4 2.9
v 0.7 7 2.7
v 0.7 7.1 2.7
v 0.8 6.9 2.7
v 0.8 7 2.7
v 0.8 7.1 2.7
v 0.9 6.8 2.7
v 0.9 6.9 2.7
v 0.9 7 2.7
v 1 6.8 2.7
v 1 6.9 2.7
v 1.7 6.8 2.7
v 1.7 6.9 2.7
v 1.8 6.8 2.7
v 1.8 6.9 2.7
v 1.8 7 2.7
v 1.9 6.9 2.7
v 1.9 7 2.7
v 1.9 7.1 2.7
v 2 7 2.7
v 2 7.1 2.7
v 0.6 7.1 1.2
v 0.6 7.2 1.2
v 0.7 7.1 1.2
v 0.7 7.2 1.2
v 1.9 7.1 1.2
v 1.9 7.2 1.2
v 2 7.1 1.2
v 2 7.2 1.2
v 0.7 7.1 1.1
v 0.7 7.2 1.1
v 1.9 7.1 1.1
v 1.9 7.2 1.1
v 0.8 4.2 3
v 1 4.2 3
v 1.7 4.2 3
v 1.9 4.2 3
v 0.8 4.2 2.9
v 1 4.2 2.9
v 1.7 4.2 2.9
v 1.9 4.2 2.9
v 1 4.3 3
v 1.1 4.3 3
v 1.6 4.3 3
v 1.7 4.3 3
v 1 4.3 2.9
v 1.1 4.3 2.9
v 1.6 4.3 2.9
v 1.7 4.3 2.9
v 1.1 4.4 3
v 1.2 4.4 3
v 1.5 4.4 3
v 1.6 4.4 3
v 1.1 4.4 2.9
v 1.2 4.4 2.9
v 1.5 4.4 2.9
v 1.6 4.4 2.9
v 1.2 4.5 3
v 1.3 4.5 3
v 1.2 4.5 2.9
v 1.3 4.5 2.9
v 1.4 4.6 3
v 1.5 4.6 3
v 1.4 4.6 2.9
v 1.5 4.6 2.9
v 1.3 4.7 3
v 1.4 4.7 3
v 1.3 4.7 2.9
v 1.4 4.7 2.9
v 1.2 4.9 3
v 1.3 4.9 3
v 1.2 4.9 2.9
v 1.3 4.9 2.9
v 1.1 5 3
v 1.2 5 3
v 1.4 5 3
v 1.5 5 3
v 1.1 5 2.9
v 1.2 5 2.9
v 1.4 5 2.9
v 1.5 5 2.9
v 1 5.1 3
v 1.1 5.1 3
v 1.5 5.1 3
v 1.7 5.1 3
v 1 5.1 2.9
v 1.1 5.1 2.9
v 1.5 5.1 2.9
v 1.7 5.1 2.9
v 0.9 5.2 3
v 1 5.2 3
v 1.7 5.2 3
v 1.8 5.2 3
v 0.9 5.2 2.9
v 1 5.2 2.9
v 1.7 5.2 2.9
v 1.8 5.2 2.9
v 0.9 6.8 2.9
v 1 6.8 2.9
v 1.7 6.8 2.9
v 1.8 6.8 2.9
v 0.9 6.8 2.7
v 1 6.8 2.7
v 1.7 6.8 2.7
v 1.8 6.8 2.7
v 0.8 6.9 2.8
v 0.9 6.9 2.8
v 1.8 6.9 2.8
v 1.9 6.9 2.8
v 0.8 6.9 2.7
v 0.9 6.9 2.7
v 1.8 6.9 2.7
v 1.9 6.9 2.7
v 0.7 7 2.8
v 0.8 7 2.8
v 1.9 7 2.8
v 2 7 2.8
v 0.7 7 2.7
v 0.8 7 2.7
v 1.9 7 2.7
v 2 7 2.7
v 0.6 7.1 2.7
v 0.7 7.1 2.7
v 1.9 7.1 2.7
v 2 7.1 2.7
v 0.6 7.1 1.2
v 0.7 7.1 1.2
v 1.9 7.1 1.2
v 2 7.1 1.2
v 0.7 7.1 1.1
v 1.9 7.1 1.1
v 0.9 4.4 3
v 1 4.4 3
v 1.7 4.4 3
v 1.8 4.4 3
v 0.9 4.4 2.9
v 1 4.4 2.9
v 1.7 4.4 2.9
v 1.8 4.4 2.9
v 1 4.5 3
v 1.2 4.5 3
v 1.6 4.5 3
v 1.7 4.5 3
v 1 4.5 2.9
v 1.2 4.5 2.9
v 1.6 4.5 2.9
v 1.7 4.5 2.9
v 1.2 4.6 3
v 1.3 4.6 3
v 1.5 4.6 3
v 1.6 4.6 3
v 1.2 4.6 2.9
v 1.3 4.6 2.9
v 1.5 4.6 2.9
v 1.6 4.6 2.9
v 1.4 4.7 3
v 1.5 4.7 3
v 1.4 4.7 2.9
v 1.5 4.7 2.9
v 1.3 4.9 3
v 1.4 4.9 3
v 1.3 4.9 2.9
v 1.4 4.9 2.9
v 1.2 5 3
v 1.3 5 3
v 1.2 5 2.9
v 1.3 5 2.9
v 1.4 5.1 3
v 1.5 5.1 3
v 1.4 5.1 2.9
v 1.5 5.1 2.9
v 1.1 5.3 3
v 1.2 5.3 3
v 1.5 5.3 3
v 1.6 5.3 3
v 1.1 5.3 2.9
v 1.2 5.3 2.9
v 1.5 5.3 2.9
v 1.6 5.3 2.9
v 0.8 5.4 3
v 1 5.4 3
v 1.7 5.4 3
v 1.9 5.4 3
v 0.8 5.4 2.9
v 1 5.4 2.9
v 1.7 5.4 2.9
v 1.9 5.4 2.9
v 1 6.8 3
v 1.1 6.8 3
v 1.6 6.8 3
v 1.7 6.8 3
v 1 6.8 2.9
v 1.1 6.8 2.9
v 1.6 6.8 2.9
v 1.7 6.8 2.9
v 0.9 6.9 2.9
v 1 6.9 2.9
v 1.7 6.9 2.9
v 1.8 6.9 2.9
v 0.9 6.9 2.8
v 1.8 6.9 2.8
v 0.9 6.9 2.7
v 1 6.9 2.7
v 1.7 6.9 2.7
v 1.8 6.9 2.7
v 0.8 7 2.8
v 0.9 7 2.8
v 1.8 7 2.8
v 1.9 7 2.8
v 0.8 7 2.7
v 0.9 7 2.7
v 1.8 7 2.7
v 1.9 7 2.7
v 0.7 7.1 2.8
v 0.8 7.1 2.8
v 1.9 7.1 2.8
v 2 7.1 2.8
v 0.7 7.1 2.7
v 0.8 7.1 2.7
v 1.9 7.1 2.7
v 2 7.1 2.7
v 0.6 7.2 2.7
v 0.7 7.2 2.7
v 1.9 7.2 2.7
v 2 7.2 2.7
v 0.6 7.2 1.2
v 0.7 7.2 1.2
v 1.9 7.2 1.2
v 2 7.2 1.2
v 0.7 7.2 1.1
v 1.9 7.2 1.1

# faces
f 3/1/1 2/1/1 1/1/1
f 4/1/1 2/1/1 3/1/1
f 7/1/1 6/1/1 5/1/1
f 8/1/1 6/1/1 7/1/1
f 11/1/1 10/1/1 9/1/1
f 12/1/1 10/1/1 11/1/1
f 15/2/1 14/2/1 13/2/1
f 16/2/1 14/2/1 15/2/1
f 19/1/1 18/1/1 17/1/1
f 20/1/1 18/1/1 19/1/1
f 23/1/1 22/1/1 21/1/1
f 24/1/1 22/1/1 23/1/1
f 25/1/1 22/1/1 24/1/1
f 28/2/1 27/2/1 26/2/1
f 29/2/1 27/2/1 28/2/1
f 32/2/1 31/2/1 30/2/1
f 33/2/1 31/2/1 32/2/1
f 36/1/1 35/1/1 34/1/1
f 37/1/1 35/1/1 36/1/1
f 40/2/1 39/2/1 38/2/1
f 41/2/1 39/2/1 40/2/1
f 44/2/1 43/2/1 42/2/1
f 45/2/1 43/2/1 44/2/1
f 48/2/1 47/2/1 46/2/1
f 49/2/1 47/2/1 48/2/1
f 52/2/1 51/2/1 50/2/1
f 53/2/1 51/2/1 52/2/1
f 56/2/1 55/2/1 54/2/1
f 57/2/1 55/2/1 56/2/1
f 60/2/1 59/2/1 58/2/1
f 61/2/1 59/2/1 60/2/1
f 64/2/1 63/2/1 62/2/1
f 65/2/1 63/2/1 64/2/1
f 68/2/1 67/2/1 66/2/1
f 69/2/1 67/2/1 68/2/1
f 70/1/1 69/1/1 68/1/1
f 71/1/1 69/1/1 70/1/1
f 74/2/1 73/2/1 72/2/1
f 75/2/1 73/2/1 74/2/1
f 78/1/1 77/1/1 76/1/1
f 79/1/1 77/1/1 78/1/1
f 82/2/1 81/2/1 80/2/1
f 83/2/1 81/2/1 82/2/1
f 86/1/1 85/1/1 84/1/1
f 87/1/1 85/1/1 86/1/1
f 90/2/1 89/2/1 88/2/1
f 91/2/1 89/2/1 90/2/1
f 94/1/1 93/1/1 92/1/1
f 95/1/1 93/1/1 94/1/1
f 98/1/1 97/1/1 96/1/1
f 99/1/1 97/1/1 98/1/1
f 101/1/1 100/1/1 99/1/1
f 102/1/1 100/1/1 101/1/1
f 103/1/2 104/1/2 105/1/2
f 105/1/2 104/1/2 106/1/2
f 107/1/2 108/1/2 109/1/2
f 109/1/2 108/1/2 110/1/2
f 111/2/2 112/2/2 113/2/2
f 113/2/2 112/2/2 114/2/2
f 115/1/2 116/1/2 117/1/2
f 117/1/2 116/1/2 118/1/2
f 119/2/2 120/2/2 121/2/2
f 121/2/2 120/2/2 122/2/2
f 123/1/2 124/1/2 125/1/2
f 125/1/2 124/1/2 126/1/2
f 127/2/2 128/2/2 129/2/2
f 129/2/2 128/2/2 130/2/2
f 131/1/2 132/1/2 133/1/2
f 133/1/2 132/1/2 134/1/2
f 135/2/2 136/2/2 137/2/2
f 137/2/2 136/2/2 138/2/2
f 139/2/2 140/2/2 141/2/2
f 141/2/2 140/2/2 142/2/2
f 141/1/2 142/1/2 143/1/2
f 143/1/2 142/1/2 144/1/2
f 145/2/2 146/2/2 147/2/2
f 147/2/2 146/2/2 148/2/2
f 149/2/2 150/2/2 151/2/2
f 151/2/2 150/2/2 152/2/2
f 153/2/2 154/2/2 155/2/2
f 155/2/2 154/2/2 156/2/2
f 157/2/2 158/2/2 159/2/2
f 159/2/2 158/2/2 160/2/2
f 161/2/2 162/2/2 163/2/2
f 163/2/2 162/2/2 164/2/2
f 165/2/2 166/2/2 167/2/2
f 167/2/2 166/2/2 168/2/2
f 169/2/2 170/2/2 171/2/2
f 171/2/2 170/2/2 172/2/2
f 173/2/2 174/2/2 175/2/2
f 175/2/2 174/2/2 176/2/2
f 177/1/2 178/1/2 179/1/2
f 179/1/2 178/1/2 180/1/2
f 181/1/2 182/1/2 183/1/2
f 183/1/2 182/1/2 184/1/2
f 184/1/2 182/1/2 185/1/2
f 186/2/2 187/2/2 188/2/2
f 188/2/2 187/2/2 189/2/2
f 190/1/2 191/1/2 192/1/2
f 192/1/2 191/1/2 193/1/2
f 194/1/2 195/1/2 196/1/2
f 196/1/2 195/1/2 197/1/2
f 198/1/2 199/1/2 200/1/2
f 200/1/2 199/1/2 201/1/2
f 201/1/2 202/1/2 203/1/2
f 203/1/2 202/1/2 204/1/2
f 207/2/3 206/2/3 205/2/3
f 208/2/3 206/2/3 207/2/3
f 209/2/3 207/2/3 205/2/3
f 210/2/3 207/2/3 209/2/3
f 211/2/3 207/2/3 210/2/3
f 214/2/3 206/2/3 208/2/3
f 215/2/3 206/2/3 214/2/3
f 216/2/3 206/2/3 215/2/3
f 218/2/3 212/2/3 211/2/3
f 218/2/3 211/2/3 210/2/3
f 219/2/3 212/2/3 218/2/3
f 221/2/3 215/2/3 214/2/3
f 221/2/3 214/2/3 213/2/3
f 222/2/3 215/2/3 221/2/3
f 223/1/3 217/1/3 216/1/3
f 223/2/3 215/2/3 222/2/3
f 223/1/3 216/1/3 215/1/3
f 224/1/3 217/1/3 223/1/3
f 225/2/3 212/2/3 219/2/3
f 226/2/3 212/2/3 225/2/3
f 229/2/3 222/2/3 221/2/3
f 229/2/3 221/2/3 220/2/3
f 230/1/3 223/1/3 222/1/3
f 230/2/3 222/2/3 229/2/3
f 231/1/3 223/1/3 230/1/3
f 232/2/3 227/2/3 226/2/3
f 233/2/3 227/2/3 232/2/3
f 235/2/3 229/2/3 228/2/3
f 236/2/3 229/2/3 235/2/3
f 238/2/3 235/2/3 234/2/3
f 239/2/3 235/2/3 238/2/3
f 243/2/3 238/2/3 237/2/3
f 244/2/3 238/2/3 243/2/3
f 245/2/3 241/2/3 240/2/3
f 246/2/3 241/2/3 245/2/3
f 250/2/3 243/2/3 242/2/3
f 251/2/3 243/2/3 250/2/3
f 252/2/3 243/2/3 251/2/3
f 253/1/3 248/1/3 247/1/3
f 253/2/3 247/2/3 246/2/3
f 254/1/3 248/1/3 253/1/3
f 257/2/3 251/2/3 250/2/3
f 257/2/3 250/2/3 249/2/3
f 258/2/3 251/2/3 257/2/3
f 259/2/3 251/2/3 258/2/3
f 260/2/3 254/2/3 253/2/3
f 260/2/3 253/2/3 246/2/3
f 261/2/3 254/2/3 260/2/3
f 262/1/3 255/1/3 254/1/3
f 262/2/3 254/2/3 261/2/3
f 263/1/3 255/1/3 262/1/3
f 264/1/3 255/1/3 263/1/3
f 265/2/3 258/2/3 257/2/3
f 265/2/3 257/2/3 256/2/3
f 266/2/3 263/2/3 262/2/3
f 266/2/3 262/2/3 261/2/3
f 267/2/3 265/2/3 256/2/3
f 267/2/3 266/2/3 265/2/3
f 268/2/3 263/2/3 266/2/3
f 268/2/3 266/2/3 267/2/3
f 271/1/3 270/1/3 269/1/3
f 272/1/3 270/1/3 271/1/3
f 275/1/3 274/1/3 273/1/3
f 276/1/3 274/1/3 275/1/3
f 280/1/3 278/1/3 277/1/3
f 281/1/3 278/1/3 280/1/3
f 282/1/3 280/1/3 279/1/3
f 283/1/3 280/1/3 282/1/3
f 286/1/3 285/1/3 284/1/3
f 287/1/3 285/1/3 286/1/3
f 289/1/3 288/1/3 287/1/3
f 290/1/3 288/1/3 289/1/3
f 293/1/3 292/1/3 291/1/3
f 294/1/3 292/1/3 293/1/3
f 297/1/3 296/1/3 295/1/3
f 298/1/3 296/1/3 297/1/3
f 301/1/3 300/1/3 299/1/3
f 302/1/3 300/1/3 301/1/3
f 303/2/4 304/2/4 305/2/4
f 305/2/4 304/2/4 306/2/4
f 303/2/4 305/2/4 307/2/4
f 307/2/4 305/2/4 308/2/4
f 308/2/4 305/2/4 309/2/4
f 306/2/4 304/2/4 312/2/4
f 312/2/4 304/2/4 313/2/4
f 313/2/4 304/2/4 314/2/4
f 309/2/4 310/2/4 316/2/4
f 308/2/4 309/2/4 316/2/4
f 316/2/4 310/2/4 317/2/4
f 312/2/4 313/2/4 319/2/4
f 311/2/4 312/2/4 319/2/4
f 319/2/4 313/2/4 320/2/4
f 314/1/4 315/1/4 321/1/4
f 320/2/4 313/2/4 321/2/4
f 313/1/4 314/1/4 321/1/4
f 321/1/4 315/1/4 322/1/4
f 317/2/4 310/2/4 323/2/4
f 323/2/4 310/2/4 324/2/4
f 319/2/4 320/2/4 327/2/4
f 318/2/4 319/2/4 327/2/4
f 320/1/4 321/1/4 328/1/4
f 327/2/4 320/2/4 328/2/4
f 328/1/4 321/1/4 329/1/4
f 324/2/4 325/2/4 330/2/4
f 330/2/4 325/2/4 331/2/4
f 326/2/4 327/2/4 333/2/4
f 333/2/4 327/2/4 334/2/4
f 332/2/4 333/2/4 336/2/4
f 336/2/4 333/2/4 337/2/4
f 335/2/4 336/2/4 341/2/4
f 341/2/4 336/2/4 342/2/4
f 338/2/4 339/2/4 343/2/4
f 343/2/4 339/2/4 344/2/4
f 340/2/4 341/2/4 348/2/4
f 348/2/4 341/2/4 349/2/4
f 349/2/4 341/2/4 350/2/4
f 345/1/4 346/1/4 351/1/4
f 344/2/4 345/2/4 351/2/4
f 351/1/4 346/1/4 352/1/4
f 348/2/4 349/2/4 355/2/4
f 347/2/4 348/2/4 355/2/4
f 355/2/4 349/2/4 356/2/4
f 356/2/4 349/2/4 357/2/4
f 351/2/4 352/2/4 358/2/4
f 344/2/4 351/2/4 358/2/4
f 358/2/4 352/2/4 359/2/4
f 352/1/4 353/1/4 360/1/4
f 359/2/4 352/2/4 360/2/4
f 360/1/4 353/1/4 361/1/4
f 361/1/4 353/1/4 362/1/4
f 355/2/4 356/2/4 363/2/4
f 354/2/4 355/2/4 363/2/4
f 360/2/4 361/2/4 364/2/4
f 359/2/4 360/2/4 364/2/4
f 354/2/4 363/2/4 365/2/4
f 363/2/4 364/2/4 365/2/4
f 364/2/4 361/2/4 366/2/4
f 365/2/4 364/2/4 366/2/4
f 367/1/4 368/1/4 370/1/4
f 370/1/4 368/1/4 371/1/4
f 369/1/4 370/1/4 373/1/4
f 373/1/4 370/1/4 374/1/4
f 372/1/4 373/1/4 375/1/4
f 375/1/4 373/1/4 376/1/4
f 377/1/4 378/1/4 379/1/4
f 379/1/4 378/1/4 380/1/4
f 380/1/4 381/1/4 382/1/4
f 382/1/4 381/1/4 383/1/4
f 383/1/4 384/1/4 385/1/4
f 385/1/4 384/1/4 386/1/4
f 387/1/4 388/1/4 389/1/4
f 389/1/4 388/1/4 390/1/4
f 391/1/4 392/1/4 393/1/4
f 393/1/4 392/1/4 394/1/4
f 395/1/4 396/1/4 397/1/4
f 397/1/4 396/1/4 398/1/4
f 403/2/5 400/2/5 399/2/5
f 404/2/5 400/2/5 403/2/5
f 405/2/5 402/2/5 401/2/5
f 406/2/5 402/2/5 405/2/5
f 411/2/5 408/2/5 407/2/5
f 412/2/5 408/2/5 411/2/5
f 413/2/5 410/2/5 409/2/5
f 414/2/5 410/2/5 413/2/5
f 419/2/5 416/2/5 415/2/5
f 420/2/5 416/2/5 419/2/5
f 421/2/5 418/2/5 417/2/5
f 422/2/5 418/2/5 421/2/5
f 425/2/5 424/2/5 423/2/5
f 426/2/5 424/2/5 425/2/5
f 429/2/5 428/2/5 427/2/5
f 430/2/5 428/2/5 429/2/5
f 433/2/5 432/2/5 431/2/5
f 434/2/5 432/2/5 433/2/5
f 437/2/5 436/2/5 435/2/5
f 438/2/5 436/2/5 437/2/5
f 443/2/5 440/2/5 439/2/5
f 444/2/5 440/2/5 443/2/5
f 445/2/5 442/2/5 441/2/5
f 446/2/5 442/2/5 445/2/5
f 451/2/5 448/2/5 447/2/5
f 452/2/5 448/2/5 451/2/5
f 453/2/5 450/2/5 449/2/5
f 454/2/5 450/2/5 453/2/5
f 459/2/5 456/2/5 455/2/5
f 460/2/5 456/2/5 459/2/5
f 461/2/5 458/2/5 457/2/5
f 462/2/5 458/2/5 461/2/5
f 467/1/5 464/1/5 463/1/5
f 468/1/5 464/1/5 467/1/5
f 469/1/5 466/1/5 465/1/5
f 470/1/5 466/1/5 469/1/5
f 475/1/5 472/1/5 471/1/5
f 476/1/5 472/1/5 475/1/5
f 477/1/5 474/1/5 473/1/5
f 478/1/5 474/1/5 477/1/5
f 483/1/5 480/1/5 479/1/5
f 484/1/5 480/1/5 483/1/5
f 485/1/5 482/1/5 481/1/5
f 486/1/5 482/1/5 485/1/5
f 491/1/5 488/1/5 487/1/5
f 492/1/5 488/1/5 491/1/5
f 493/1/5 490/1/5 489/1/5
f 494/1/5 490/1/5 493/1/5
f 495/1/5 493/1/5 492/1/5
f 496/1/5 493/1/5 495/1/5
f 497/2/6 498/2/6 501/2/6
f 501/2/6 498/2/6 502/2/6
f 499/2/6 500/2/6 503/2/6
f 503/2/6 500/2/6 504/2/6
f 505/2/6 506/2/6 509/2/6
f 509/2/6 506/2/6 510/2/6
f 507/2/6 508/2/6 511/2/6
f 511/2/6 508/2/6 512/2/6
f 513/2/6 514/2/6 517/2/6
f 517/2/6 514/2/6 518/2/6
f 515/2/6 516/2/6 519/2/6
f 519/2/6 516/2/6 520/2/6
f 521/2/6 522/2/6 523/2/6
f 523/2/6 522/2/6 524/2/6
f 525/2/6 526/2/6 527/2/6
f 527/2/6 526/2/6 528/2/6
f 529/2/6 530/2/6 531/2/6
f 531/2/6 530/2/6 532/2/6
f 533/2/6 534/2/6 535/2/6
f 535/2/6 534/2/6 536/2/6
f 537/1/6 538/1/6 541/1/6
f 541/1/6 538/1/6 542/1/6
f 539/1/6 540/1/6 543/1/6
f 543/1/6 540/1/6 544/1/6
f 545/2/6 546/2/6 549/2/6
f 549/2/6 546/2/6 550/2/6
f 547/2/6 548/2/6 551/2/6
f 551/2/6 548/2/6 552/2/6
f 553/1/6 554/1/6 557/1/6
f 557/1/6 554/1/6 558/1/6
f 555/1/6 556/1/6 559/1/6
f 559/1/6 556/1/6 560/1/6
f 561/1/6 562/1/6 565/1/6
f 563/1/6 564/1/6 566/1/6
f 565/1/6 562/1/6 567/1/6
f 567/1/6 562/1/6 568/1/6
f 563/1/6 566/1/6 569/1/6
f 569/1/6 566/1/6 570/1/6
f 571/1/6 572/1/6 575/1/6
f 575/1/6 572/1/6 576/1/6
f 573/1/6 574/1/6 577/1/6
f 577/1/6 574/1/6 578/1/6
f 579/1/6 580/1/6 583/1/6
f 583/1/6 580/1/6 584/1/6
f 581/1/6 582/1/6 585/1/6
f 585/1/6 582/1/6 586/1/6
f 587/1/6 588/1/6 591/1/6
f 591/1/6 588/1/6 592/1/6
f 589/1/6 590/1/6 593/1/6
f 593/1/6 590/1/6 594/1/6
f 592/1/6 593/1/6 595/1/6
f 595/1/6 593/1/6 596/1/6
