# MagicaVoxel @ Ephtracy

# group
o 

# material
mtllib Frozen-0.mtl
usemtl palette

# normals
vn -1 0 0
vn 1 0 0
vn 0 0 1
vn 0 0 -1
vn 0 -1 0
vn 0 1 0

# texcoords
vt 0.654297 0.5
vt 0.685547 0.5

# verts
v 0.6 6.9 2.7
v 0.6 6.9 2.6
v 0.6 7 2.7
v 0.6 7 2.6
v 0.6 7 2.4
v 0.6 7 2.2
v 0.6 7 2.1
v 0.6 7 2
v 0.6 7 1.8
v 0.6 7 1.5
v 0.6 7 1.3
v 0.6 7 1.1
v 0.6 7.1 2.6
v 0.6 7.1 2.4
v 0.6 7.1 2.2
v 0.6 7.1 2.1
v 0.6 7.1 2
v 0.6 7.1 1.8
v 0.6 7.1 1.5
v 0.6 7.1 1.3
v 0.6 7.1 1.1
v 0.7 5.8 3
v 0.7 5.8 2.9
v 0.7 5.9 3
v 0.7 5.9 2.9
v 0.7 6.1 3
v 0.7 6.1 2.9
v 0.7 6.3 3
v 0.7 6.3 2.9
v 0.7 6.4 3
v 0.7 6.4 2.9
v 0.7 6.6 3
v 0.7 6.6 2.9
v 0.7 6.6 2.7
v 0.7 6.7 2.9
v 0.7 6.7 2.7
v 0.7 6.7 2.6
v 0.7 6.9 2.7
v 0.7 6.9 2.6
v 0.7 7 1.1
v 0.7 7 1
v 0.7 7.1 1.1
v 0.7 7.1 1
v 0.8 5.7 3
v 0.8 5.7 2.9
v 0.8 5.8 3
v 0.8 5.8 2.9
v 0.9 5.6 3.1
v 0.9 5.6 3
v 0.9 5.7 3.1
v 0.9 5.7 3
v 1.1 5.2 3.1
v 1.1 5.2 3
v 1.1 5.4 3.1
v 1.1 5.4 3
v 1.1 5.5 3.1
v 1.1 5.5 3
v 1.1 5.6 3.1
v 1.1 5.6 3
v 1.2 5.1 3.1
v 1.2 5.1 3
v 1.2 5.2 3.1
v 1.2 5.2 3
v 1.2 5.4 3.1
v 1.2 5.4 3
v 1.2 5.5 3.1
v 1.2 5.5 3
v 1.4 5.5 3.1
v 1.4 5.5 3
v 1.4 5.6 3.1
v 1.4 5.6 3
v 1.5 5.6 3.1
v 1.5 5.6 3
v 1.5 5.7 3.1
v 1.5 5.7 3
v 1.7 5.7 3
v 1.7 5.7 2.9
v 1.7 5.8 3
v 1.7 5.8 2.9
v 1.8 5.8 3
v 1.8 5.8 2.9
v 1.8 5.9 3
v 1.8 5.9 2.9
v 1.8 6.1 3
v 1.8 6.1 2.9
v 1.8 6.3 3
v 1.8 6.3 2.9
v 1.8 6.4 3
v 1.8 6.4 2.9
v 1.8 6.6 3
v 1.8 6.6 2.9
v 1.8 6.6 2.7
v 1.8 6.7 2.9
v 1.8 6.7 2.7
v 1.8 6.7 2.6
v 1.8 6.8 2.7
v 1.8 6.8 2.6
v 1.8 6.9 2.7
v 1.8 6.9 2.6
v 1.9 6.9 2.7
v 1.9 6.9 2.6
v 1.9 7 2.7
v 1.9 7 2.6
v 1.9 7 2.5
v 1.9 7 2.4
v 1.9 7 2
v 1.9 7 1.9
v 1.9 7 1.8
v 1.9 7 1.5
v 1.9 7 1.3
v 1.9 7 1.1
v 1.9 7.1 2.6
v 1.9 7.1 2.5
v 1.9 7.1 2.4
v 1.9 7.1 2
v 1.9 7.1 1.9
v 1.9 7.1 1.8
v 1.9 7.1 1.5
v 1.9 7.1 1.3
v 1.9 7.1 1.1
v 0.7 6.9 2.7
v 0.7 6.9 2.6
v 0.7 7 2.7
v 0.7 7 2.6
v 0.7 7 2.4
v 0.7 7 2.2
v 0.7 7 2.1
v 0.7 7 2
v 0.7 7 1.8
v 0.7 7 1.5
v 0.7 7 1.3
v 0.7 7 1.1
v 0.7 7.1 2.6
v 0.7 7.1 2.4
v 0.7 7.1 2.2
v 0.7 7.1 2.1
v 0.7 7.1 2
v 0.7 7.1 1.8
v 0.7 7.1 1.5
v 0.7 7.1 1.3
v 0.7 7.1 1.1
v 0.8 5.8 3
v 0.8 5.8 2.9
v 0.8 5.9 3
v 0.8 5.9 2.9
v 0.8 6.1 3
v 0.8 6.1 2.9
v 0.8 6.3 3
v 0.8 6.3 2.9
v 0.8 6.4 3
v 0.8 6.4 2.9
v 0.8 6.6 3
v 0.8 6.6 2.9
v 0.8 6.6 2.7
v 0.8 6.7 2.9
v 0.8 6.7 2.7
v 0.8 6.7 2.6
v 0.8 6.9 2.7
v 0.8 6.9 2.6
v 0.9 5.7 3
v 0.9 5.7 2.9
v 0.9 5.8 3
v 0.9 5.8 2.9
v 1.1 5.6 3.1
v 1.1 5.6 3
v 1.1 5.7 3.1
v 1.1 5.7 3
v 1.2 5.5 3.1
v 1.2 5.5 3
v 1.2 5.6 3.1
v 1.2 5.6 3
v 1.4 5.1 3.1
v 1.4 5.1 3
v 1.4 5.2 3.1
v 1.4 5.2 3
v 1.4 5.4 3.1
v 1.4 5.4 3
v 1.4 5.5 3.1
v 1.4 5.5 3
v 1.5 5.2 3.1
v 1.5 5.2 3
v 1.5 5.4 3.1
v 1.5 5.4 3
v 1.5 5.5 3.1
v 1.5 5.5 3
v 1.5 5.6 3.1
v 1.5 5.6 3
v 1.7 5.6 3.1
v 1.7 5.6 3
v 1.7 5.7 3.1
v 1.7 5.7 3
v 1.8 5.7 3
v 1.8 5.7 2.9
v 1.8 5.8 3
v 1.8 5.8 2.9
v 1.9 5.8 3
v 1.9 5.8 2.9
v 1.9 5.9 3
v 1.9 5.9 2.9
v 1.9 6.1 3
v 1.9 6.1 2.9
v 1.9 6.3 3
v 1.9 6.3 2.9
v 1.9 6.4 3
v 1.9 6.4 2.9
v 1.9 6.6 3
v 1.9 6.6 2.9
v 1.9 6.6 2.7
v 1.9 6.7 2.9
v 1.9 6.7 2.7
v 1.9 6.7 2.6
v 1.9 6.8 2.7
v 1.9 6.8 2.6
v 1.9 6.9 2.7
v 1.9 6.9 2.6
v 1.9 7 1.1
v 1.9 7 1
v 1.9 7.1 1.1
v 1.9 7.1 1
v 2 6.9 2.7
v 2 6.9 2.6
v 2 7 2.7
v 2 7 2.6
v 2 7 2.5
v 2 7 2.4
v 2 7 2
v 2 7 1.9
v 2 7 1.8
v 2 7 1.5
v 2 7 1.3
v 2 7 1.1
v 2 7.1 2.6
v 2 7.1 2.5
v 2 7.1 2.4
v 2 7.1 2
v 2 7.1 1.9
v 2 7.1 1.8
v 2 7.1 1.5
v 2 7.1 1.3
v 2 7.1 1.1
v 0.9 5.6 3.1
v 0.9 5.7 3.1
v 1.1 5.2 3.1
v 1.1 5.4 3.1
v 1.1 5.5 3.1
v 1.1 5.6 3.1
v 1.1 5.7 3.1
v 1.2 5.1 3.1
v 1.2 5.2 3.1
v 1.2 5.4 3.1
v 1.2 5.5 3.1
v 1.2 5.6 3.1
v 1.4 5.1 3.1
v 1.4 5.2 3.1
v 1.4 5.4 3.1
v 1.4 5.5 3.1
v 1.4 5.6 3.1
v 1.5 5.2 3.1
v 1.5 5.4 3.1
v 1.5 5.5 3.1
v 1.5 5.6 3.1
v 1.5 5.7 3.1
v 1.7 5.6 3.1
v 1.7 5.7 3.1
v 0.7 5.8 3
v 0.7 5.9 3
v 0.7 6.1 3
v 0.7 6.3 3
v 0.7 6.4 3
v 0.7 6.6 3
v 0.8 5.7 3
v 0.8 5.8 3
v 0.8 5.9 3
v 0.8 6.1 3
v 0.8 6.3 3
v 0.8 6.4 3
v 0.8 6.6 3
v 0.9 5.7 3
v 0.9 5.8 3
v 1.7 5.7 3
v 1.7 5.8 3
v 1.8 5.7 3
v 1.8 5.8 3
v 1.8 5.9 3
v 1.8 6.1 3
v 1.8 6.3 3
v 1.8 6.4 3
v 1.8 6.6 3
v 1.9 5.8 3
v 1.9 5.9 3
v 1.9 6.1 3
v 1.9 6.3 3
v 1.9 6.4 3
v 1.9 6.6 3
v 0.7 6.6 2.9
v 0.7 6.7 2.9
v 0.8 6.6 2.9
v 0.8 6.7 2.9
v 1.8 6.6 2.9
v 1.8 6.7 2.9
v 1.9 6.6 2.9
v 1.9 6.7 2.9
v 0.6 6.9 2.7
v 0.6 7 2.7
v 0.7 6.7 2.7
v 0.7 6.9 2.7
v 0.7 7 2.7
v 0.8 6.7 2.7
v 0.8 6.9 2.7
v 1.8 6.7 2.7
v 1.8 6.8 2.7
v 1.8 6.9 2.7
v 1.9 6.7 2.7
v 1.9 6.8 2.7
v 1.9 6.9 2.7
v 1.9 7 2.7
v 2 6.9 2.7
v 2 7 2.7
v 0.6 7 2.6
v 0.6 7.1 2.6
v 0.7 7 2.6
v 0.7 7.1 2.6
v 1.9 7 2.6
v 1.9 7.1 2.6
v 2 7 2.6
v 2 7.1 2.6
v 0.7 7 1.1
v 0.7 7.1 1.1
v 1 7 1.1
v 1 7.1 1.1
v 1.2 7 1.1
v 1.2 7.1 1.1
v 1.4 7 1.1
v 1.4 7.1 1.1
v 1.5 7 1.1
v 1.5 7.1 1.1
v 1.6 7 1.1
v 1.6 7.1 1.1
v 1.8 7 1.1
v 1.8 7.1 1.1
v 1.9 7 1.1
v 1.9 7.1 1.1
v 0.9 5.6 3
v 0.9 5.7 3
v 1.1 5.2 3
v 1.1 5.4 3
v 1.1 5.5 3
v 1.1 5.6 3
v 1.1 5.7 3
v 1.2 5.1 3
v 1.2 5.2 3
v 1.2 5.4 3
v 1.2 5.5 3
v 1.2 5.6 3
v 1.4 5.1 3
v 1.4 5.2 3
v 1.4 5.4 3
v 1.4 5.5 3
v 1.4 5.6 3
v 1.5 5.2 3
v 1.5 5.4 3
v 1.5 5.5 3
v 1.5 5.6 3
v 1.5 5.7 3
v 1.7 5.6 3
v 1.7 5.7 3
v 0.7 5.8 2.9
v 0.7 5.9 2.9
v 0.7 6.1 2.9
v 0.7 6.3 2.9
v 0.7 6.4 2.9
v 0.7 6.6 2.9
v 0.8 5.7 2.9
v 0.8 5.8 2.9
v 0.8 5.9 2.9
v 0.8 6.1 2.9
v 0.8 6.3 2.9
v 0.8 6.4 2.9
v 0.8 6.6 2.9
v 0.9 5.7 2.9
v 0.9 5.8 2.9
v 1.7 5.7 2.9
v 1.7 5.8 2.9
v 1.8 5.7 2.9
v 1.8 5.8 2.9
v 1.8 5.9 2.9
v 1.8 6.1 2.9
v 1.8 6.3 2.9
v 1.8 6.4 2.9
v 1.8 6.6 2.9
v 1.9 5.8 2.9
v 1.9 5.9 2.9
v 1.9 6.1 2.9
v 1.9 6.3 2.9
v 1.9 6.4 2.9
v 1.9 6.6 2.9
v 0.7 6.6 2.7
v 0.7 6.7 2.7
v 0.8 6.6 2.7
v 0.8 6.7 2.7
v 1.8 6.6 2.7
v 1.8 6.7 2.7
v 1.9 6.6 2.7
v 1.9 6.7 2.7
v 0.6 6.9 2.6
v 0.6 7 2.6
v 0.7 6.7 2.6
v 0.7 6.9 2.6
v 0.7 7 2.6
v 0.8 6.7 2.6
v 0.8 6.9 2.6
v 1.8 6.7 2.6
v 1.8 6.8 2.6
v 1.8 6.9 2.6
v 1.9 6.7 2.6
v 1.9 6.8 2.6
v 1.9 6.9 2.6
v 1.9 7 2.6
v 2 6.9 2.6
v 2 7 2.6
v 0.6 7 1.1
v 0.6 7.1 1.1
v 0.7 7 1.1
v 0.7 7.1 1.1
v 1.9 7 1.1
v 1.9 7.1 1.1
v 2 7 1.1
v 2 7.1 1.1
v 0.7 7 1
v 0.7 7.1 1
v 1 7 1
v 1 7.1 1
v 1.2 7 1
v 1.2 7.1 1
v 1.4 7 1
v 1.4 7.1 1
v 1.5 7 1
v 1.5 7.1 1
v 1.6 7 1
v 1.6 7.1 1
v 1.8 7 1
v 1.8 7.1 1
v 1.9 7 1
v 1.9 7.1 1
v 1.2 5.1 3.1
v 1.4 5.1 3.1
v 1.2 5.1 3
v 1.4 5.1 3
v 1.1 5.2 3.1
v 1.2 5.2 3.1
v 1.4 5.2 3.1
v 1.5 5.2 3.1
v 1.1 5.2 3
v 1.2 5.2 3
v 1.4 5.2 3
v 1.5 5.2 3
v 1.1 5.5 3.1
v 1.2 5.5 3.1
v 1.4 5.5 3.1
v 1.5 5.5 3.1
v 1.1 5.5 3
v 1.2 5.5 3
v 1.4 5.5 3
v 1.5 5.5 3
v 0.9 5.6 3.1
v 1.1 5.6 3.1
v 1.5 5.6 3.1
v 1.7 5.6 3.1
v 0.9 5.6 3
v 1.1 5.6 3
v 1.5 5.6 3
v 1.7 5.6 3
v 0.8 5.7 3
v 0.9 5.7 3
v 1.7 5.7 3
v 1.8 5.7 3
v 0.8 5.7 2.9
v 0.9 5.7 2.9
v 1.7 5.7 2.9
v 1.8 5.7 2.9
v 0.7 5.8 3
v 0.8 5.8 3
v 1.8 5.8 3
v 1.9 5.8 3
v 0.7 5.8 2.9
v 0.8 5.8 2.9
v 1.8 5.8 2.9
v 1.9 5.8 2.9
v 0.7 6.6 2.9
v 0.8 6.6 2.9
v 1.8 6.6 2.9
v 1.9 6.6 2.9
v 0.7 6.6 2.7
v 0.8 6.6 2.7
v 1.8 6.6 2.7
v 1.9 6.6 2.7
v 0.7 6.7 2.7
v 0.8 6.7 2.7
v 1.8 6.7 2.7
v 1.9 6.7 2.7
v 0.7 6.7 2.6
v 0.8 6.7 2.6
v 1.8 6.7 2.6
v 1.9 6.7 2.6
v 0.6 6.9 2.7
v 0.7 6.9 2.7
v 1.9 6.9 2.7
v 2 6.9 2.7
v 0.6 6.9 2.6
v 0.7 6.9 2.6
v 1.9 6.9 2.6
v 2 6.9 2.6
v 0.6 7 2.6
v 0.7 7 2.6
v 1.9 7 2.6
v 2 7 2.6
v 1.9 7 2.5
v 2 7 2.5
v 0.6 7 2.4
v 0.7 7 2.4
v 1.9 7 2.4
v 2 7 2.4
v 0.6 7 2.2
v 0.7 7 2.2
v 0.6 7 2.1
v 0.7 7 2.1
v 0.6 7 2
v 0.7 7 2
v 1.9 7 2
v 2 7 2
v 1.9 7 1.9
v 2 7 1.9
v 0.6 7 1.8
v 0.7 7 1.8
v 1.9 7 1.8
v 2 7 1.8
v 0.6 7 1.5
v 0.7 7 1.5
v 1.9 7 1.5
v 2 7 1.5
v 0.6 7 1.3
v 0.7 7 1.3
v 1.9 7 1.3
v 2 7 1.3
v 0.6 7 1.1
v 0.7 7 1.1
v 1 7 1.1
v 1.2 7 1.1
v 1.4 7 1.1
v 1.5 7 1.1
v 1.6 7 1.1
v 1.8 7 1.1
v 1.9 7 1.1
v 2 7 1.1
v 0.7 7 1
v 1 7 1
v 1.2 7 1
v 1.4 7 1
v 1.5 7 1
v 1.6 7 1
v 1.8 7 1
v 1.9 7 1
v 1.1 5.4 3.1
v 1.2 5.4 3.1
v 1.4 5.4 3.1
v 1.5 5.4 3.1
v 1.1 5.4 3
v 1.2 5.4 3
v 1.4 5.4 3
v 1.5 5.4 3
v 1.2 5.5 3.1
v 1.4 5.5 3.1
v 1.2 5.5 3
v 1.4 5.5 3
v 1.1 5.6 3.1
v 1.2 5.6 3.1
v 1.4 5.6 3.1
v 1.5 5.6 3.1
v 1.1 5.6 3
v 1.2 5.6 3
v 1.4 5.6 3
v 1.5 5.6 3
v 0.9 5.7 3.1
v 1.1 5.7 3.1
v 1.5 5.7 3.1
v 1.7 5.7 3.1
v 0.9 5.7 3
v 1.1 5.7 3
v 1.5 5.7 3
v 1.7 5.7 3
v 0.8 5.8 3
v 0.9 5.8 3
v 1.7 5.8 3
v 1.8 5.8 3
v 0.8 5.8 2.9
v 0.9 5.8 2.9
v 1.7 5.8 2.9
v 1.8 5.8 2.9
v 0.7 6.6 3
v 0.8 6.6 3
v 1.8 6.6 3
v 1.9 6.6 3
v 0.7 6.6 2.9
v 0.8 6.6 2.9
v 1.8 6.6 2.9
v 1.9 6.6 2.9
v 0.7 6.7 2.9
v 0.8 6.7 2.9
v 1.8 6.7 2.9
v 1.9 6.7 2.9
v 0.7 6.7 2.7
v 0.8 6.7 2.7
v 1.8 6.7 2.7
v 1.9 6.7 2.7
v 0.7 6.9 2.7
v 0.8 6.9 2.7
v 1.8 6.9 2.7
v 1.9 6.9 2.7
v 0.7 6.9 2.6
v 0.8 6.9 2.6
v 1.8 6.9 2.6
v 1.9 6.9 2.6
v 0.6 7 2.7
v 0.7 7 2.7
v 1.9 7 2.7
v 2 7 2.7
v 0.6 7 2.6
v 0.7 7 2.6
v 1.9 7 2.6
v 2 7 2.6
v 0.6 7.1 2.6
v 0.7 7.1 2.6
v 1.9 7.1 2.6
v 2 7.1 2.6
v 1.9 7.1 2.5
v 2 7.1 2.5
v 0.6 7.1 2.4
v 0.7 7.1 2.4
v 1.9 7.1 2.4
v 2 7.1 2.4
v 0.6 7.1 2.2
v 0.7 7.1 2.2
v 0.6 7.1 2.1
v 0.7 7.1 2.1
v 0.6 7.1 2
v 0.7 7.1 2
v 1.9 7.1 2
v 2 7.1 2
v 1.9 7.1 1.9
v 2 7.1 1.9
v 0.6 7.1 1.8
v 0.7 7.1 1.8
v 1.9 7.1 1.8
v 2 7.1 1.8
v 0.6 7.1 1.5
v 0.7 7.1 1.5
v 1.9 7.1 1.5
v 2 7.1 1.5
v 0.6 7.1 1.3
v 0.7 7.1 1.3
v 1.9 7.1 1.3
v 2 7.1 1.3
v 0.6 7.1 1.1
v 0.7 7.1 1.1
v 1 7.1 1.1
v 1.2 7.1 1.1
v 1.4 7.1 1.1
v 1.5 7.1 1.1
v 1.6 7.1 1.1
v 1.8 7.1 1.1
v 1.9 7.1 1.1
v 2 7.1 1.1
v 0.7 7.1 1
v 1 7.1 1
v 1.2 7.1 1
v 1.4 7.1 1
v 1.5 7.1 1
v 1.6 7.1 1
v 1.8 7.1 1
v 1.9 7.1 1

# faces
f 3/1/1 2/1/1 1/1/1
f 4/1/1 2/1/1 3/1/1
f 13/2/1 5/2/1 4/2/1
f 14/1/1 6/1/1 5/1/1
f 14/2/1 5/2/1 13/2/1
f 15/2/1 7/2/1 6/2/1
f 15/1/1 6/1/1 14/1/1
f 16/1/1 8/1/1 7/1/1
f 16/2/1 7/2/1 15/2/1
f 17/2/1 9/2/1 8/2/1
f 17/1/1 8/1/1 16/1/1
f 18/1/1 10/1/1 9/1/1
f 18/2/1 9/2/1 17/2/1
f 19/2/1 11/2/1 10/2/1
f 19/1/1 10/1/1 18/1/1
f 20/1/1 12/1/1 11/1/1
f 20/2/1 11/2/1 19/2/1
f 21/1/1 12/1/1 20/1/1
f 24/2/1 23/2/1 22/2/1
f 25/2/1 23/2/1 24/2/1
f 26/1/1 25/1/1 24/1/1
f 27/1/1 25/1/1 26/1/1
f 28/2/1 27/2/1 26/2/1
f 29/2/1 27/2/1 28/2/1
f 30/1/1 29/1/1 28/1/1
f 31/1/1 29/1/1 30/1/1
f 32/2/1 31/2/1 30/2/1
f 33/2/1 31/2/1 32/2/1
f 35/1/1 34/1/1 33/1/1
f 36/1/1 34/1/1 35/1/1
f 38/1/1 37/1/1 36/1/1
f 39/1/1 37/1/1 38/1/1
f 42/1/1 41/1/1 40/1/1
f 43/1/1 41/1/1 42/1/1
f 46/1/1 45/1/1 44/1/1
f 47/1/1 45/1/1 46/1/1
f 50/1/1 49/1/1 48/1/1
f 51/1/1 49/1/1 50/1/1
f 54/1/1 53/1/1 52/1/1
f 55/1/1 53/1/1 54/1/1
f 58/2/1 57/2/1 56/2/1
f 59/2/1 57/2/1 58/2/1
f 62/1/1 61/1/1 60/1/1
f 63/1/1 61/1/1 62/1/1
f 66/1/1 65/1/1 64/1/1
f 67/1/1 65/1/1 66/1/1
f 70/1/1 69/1/1 68/1/1
f 71/1/1 69/1/1 70/1/1
f 74/1/1 73/1/1 72/1/1
f 75/1/1 73/1/1 74/1/1
f 78/1/1 77/1/1 76/1/1
f 79/1/1 77/1/1 78/1/1
f 82/2/1 81/2/1 80/2/1
f 83/2/1 81/2/1 82/2/1
f 84/1/1 83/1/1 82/1/1
f 85/1/1 83/1/1 84/1/1
f 86/2/1 85/2/1 84/2/1
f 87/2/1 85/2/1 86/2/1
f 88/1/1 87/1/1 86/1/1
f 89/1/1 87/1/1 88/1/1
f 90/2/1 89/2/1 88/2/1
f 91/2/1 89/2/1 90/2/1
f 93/1/1 92/1/1 91/1/1
f 94/1/1 92/1/1 93/1/1
f 96/1/1 95/1/1 94/1/1
f 97/1/1 95/1/1 96/1/1
f 98/2/1 97/2/1 96/2/1
f 99/2/1 97/2/1 98/2/1
f 102/1/1 101/1/1 100/1/1
f 103/1/1 101/1/1 102/1/1
f 112/2/1 104/2/1 103/2/1
f 113/1/1 105/1/1 104/1/1
f 113/2/1 104/2/1 112/2/1
f 114/2/1 106/2/1 105/2/1
f 114/1/1 105/1/1 113/1/1
f 115/1/1 107/1/1 106/1/1
f 115/2/1 106/2/1 114/2/1
f 116/2/1 108/2/1 107/2/1
f 116/1/1 107/1/1 115/1/1
f 117/1/1 109/1/1 108/1/1
f 117/2/1 108/2/1 116/2/1
f 118/2/1 110/2/1 109/2/1
f 118/1/1 109/1/1 117/1/1
f 119/1/1 111/1/1 110/1/1
f 119/2/1 110/2/1 118/2/1
f 120/1/1 111/1/1 119/1/1
f 121/1/2 122/1/2 123/1/2
f 123/1/2 122/1/2 124/1/2
f 124/2/2 125/2/2 133/2/2
f 125/1/2 126/1/2 134/1/2
f 133/2/2 125/2/2 134/2/2
f 126/2/2 127/2/2 135/2/2
f 134/1/2 126/1/2 135/1/2
f 127/1/2 128/1/2 136/1/2
f 135/2/2 127/2/2 136/2/2
f 128/2/2 129/2/2 137/2/2
f 136/1/2 128/1/2 137/1/2
f 129/1/2 130/1/2 138/1/2
f 137/2/2 129/2/2 138/2/2
f 130/2/2 131/2/2 139/2/2
f 138/1/2 130/1/2 139/1/2
f 131/1/2 132/1/2 140/1/2
f 139/2/2 131/2/2 140/2/2
f 140/1/2 132/1/2 141/1/2
f 142/2/2 143/2/2 144/2/2
f 144/2/2 143/2/2 145/2/2
f 144/1/2 145/1/2 146/1/2
f 146/1/2 145/1/2 147/1/2
f 146/2/2 147/2/2 148/2/2
f 148/2/2 147/2/2 149/2/2
f 148/1/2 149/1/2 150/1/2
f 150/1/2 149/1/2 151/1/2
f 150/2/2 151/2/2 152/2/2
f 152/2/2 151/2/2 153/2/2
f 153/1/2 154/1/2 155/1/2
f 155/1/2 154/1/2 156/1/2
f 156/1/2 157/1/2 158/1/2
f 158/1/2 157/1/2 159/1/2
f 160/1/2 161/1/2 162/1/2
f 162/1/2 161/1/2 163/1/2
f 164/1/2 165/1/2 166/1/2
f 166/1/2 165/1/2 167/1/2
f 168/2/2 169/2/2 170/2/2
f 170/2/2 169/2/2 171/2/2
f 172/1/2 173/1/2 174/1/2
f 174/1/2 173/1/2 175/1/2
f 176/1/2 177/1/2 178/1/2
f 178/1/2 177/1/2 179/1/2
f 180/1/2 181/1/2 182/1/2
f 182/1/2 181/1/2 183/1/2
f 184/1/2 185/1/2 186/1/2
f 186/1/2 185/1/2 187/1/2
f 188/1/2 189/1/2 190/1/2
f 190/1/2 189/1/2 191/1/2
f 192/1/2 193/1/2 194/1/2
f 194/1/2 193/1/2 195/1/2
f 196/2/2 197/2/2 198/2/2
f 198/2/2 197/2/2 199/2/2
f 198/1/2 199/1/2 200/1/2
f 200/1/2 199/1/2 201/1/2
f 200/2/2 201/2/2 202/2/2
f 202/2/2 201/2/2 203/2/2
f 202/1/2 203/1/2 204/1/2
f 204/1/2 203/1/2 205/1/2
f 204/2/2 205/2/2 206/2/2
f 206/2/2 205/2/2 207/2/2
f 207/1/2 208/1/2 209/1/2
f 209/1/2 208/1/2 210/1/2
f 210/1/2 211/1/2 212/1/2
f 212/1/2 211/1/2 213/1/2
f 212/2/2 213/2/2 214/2/2
f 214/2/2 213/2/2 215/2/2
f 216/1/2 217/1/2 218/1/2
f 218/1/2 217/1/2 219/1/2
f 220/1/2 221/1/2 222/1/2
f 222/1/2 221/1/2 223/1/2
f 223/2/2 224/2/2 232/2/2
f 224/1/2 225/1/2 233/1/2
f 232/2/2 224/2/2 233/2/2
f 225/2/2 226/2/2 234/2/2
f 233/1/2 225/1/2 234/1/2
f 226/1/2 227/1/2 235/1/2
f 234/2/2 226/2/2 235/2/2
f 227/2/2 228/2/2 236/2/2
f 235/1/2 227/1/2 236/1/2
f 228/1/2 229/1/2 237/1/2
f 236/2/2 228/2/2 237/2/2
f 229/2/2 230/2/2 238/2/2
f 237/1/2 229/1/2 238/1/2
f 230/1/2 231/1/2 239/1/2
f 238/2/2 230/2/2 239/2/2
f 239/1/2 231/1/2 240/1/2
f 246/1/3 242/1/3 241/1/3
f 247/1/3 242/1/3 246/1/3
f 249/1/3 244/1/3 243/1/3
f 250/1/3 244/1/3 249/1/3
f 251/2/3 246/2/3 245/2/3
f 252/2/3 246/2/3 251/2/3
f 253/1/3 249/1/3 248/1/3
f 254/2/3 250/2/3 249/2/3
f 254/1/3 249/1/3 253/1/3
f 255/1/3 251/1/3 250/1/3
f 255/2/3 250/2/3 254/2/3
f 256/1/3 251/1/3 255/1/3
f 258/1/3 255/1/3 254/1/3
f 259/1/3 255/1/3 258/1/3
f 260/1/3 257/1/3 256/1/3
f 261/1/3 257/1/3 260/1/3
f 263/1/3 262/1/3 261/1/3
f 264/1/3 262/1/3 263/1/3
f 272/2/3 266/2/3 265/2/3
f 273/1/3 267/1/3 266/1/3
f 273/2/3 266/2/3 272/2/3
f 274/2/3 268/2/3 267/2/3
f 274/1/3 267/1/3 273/1/3
f 275/1/3 269/1/3 268/1/3
f 275/2/3 268/2/3 274/2/3
f 276/2/3 270/2/3 269/2/3
f 276/1/3 269/1/3 275/1/3
f 277/2/3 270/2/3 276/2/3
f 278/1/3 272/1/3 271/1/3
f 279/1/3 272/1/3 278/1/3
f 282/1/3 281/1/3 280/1/3
f 283/1/3 281/1/3 282/1/3
f 289/2/3 284/2/3 283/2/3
f 290/1/3 285/1/3 284/1/3
f 290/2/3 284/2/3 289/2/3
f 291/2/3 286/2/3 285/2/3
f 291/1/3 285/1/3 290/1/3
f 292/1/3 287/1/3 286/1/3
f 292/2/3 286/2/3 291/2/3
f 293/2/3 288/2/3 287/2/3
f 293/1/3 287/1/3 292/1/3
f 294/2/3 288/2/3 293/2/3
f 297/1/3 296/1/3 295/1/3
f 298/1/3 296/1/3 297/1/3
f 301/1/3 300/1/3 299/1/3
f 302/1/3 300/1/3 301/1/3
f 306/1/3 304/1/3 303/1/3
f 307/1/3 304/1/3 306/1/3
f 308/1/3 306/1/3 305/1/3
f 309/1/3 306/1/3 308/1/3
f 313/1/3 311/1/3 310/1/3
f 314/2/3 312/2/3 311/2/3
f 314/1/3 311/1/3 313/1/3
f 315/2/3 312/2/3 314/2/3
f 317/1/3 316/1/3 315/1/3
f 318/1/3 316/1/3 317/1/3
f 321/2/3 320/2/3 319/2/3
f 322/2/3 320/2/3 321/2/3
f 325/2/3 324/2/3 323/2/3
f 326/2/3 324/2/3 325/2/3
f 329/1/3 328/1/3 327/1/3
f 330/1/3 328/1/3 329/1/3
f 331/2/3 330/2/3 329/2/3
f 332/2/3 330/2/3 331/2/3
f 333/1/3 332/1/3 331/1/3
f 334/1/3 332/1/3 333/1/3
f 335/2/3 334/2/3 333/2/3
f 336/2/3 334/2/3 335/2/3
f 337/1/3 336/1/3 335/1/3
f 338/1/3 336/1/3 337/1/3
f 339/2/3 338/2/3 337/2/3
f 340/2/3 338/2/3 339/2/3
f 341/1/3 340/1/3 339/1/3
f 342/1/3 340/1/3 341/1/3
f 343/1/4 344/1/4 348/1/4
f 348/1/4 344/1/4 349/1/4
f 345/1/4 346/1/4 351/1/4
f 351/1/4 346/1/4 352/1/4
f 347/2/4 348/2/4 353/2/4
f 353/2/4 348/2/4 354/2/4
f 350/1/4 351/1/4 355/1/4
f 351/2/4 352/2/4 356/2/4
f 355/1/4 351/1/4 356/1/4
f 352/1/4 353/1/4 357/1/4
f 356/2/4 352/2/4 357/2/4
f 357/1/4 353/1/4 358/1/4
f 356/1/4 357/1/4 360/1/4
f 360/1/4 357/1/4 361/1/4
f 358/1/4 359/1/4 362/1/4
f 362/1/4 359/1/4 363/1/4
f 363/1/4 364/1/4 365/1/4
f 365/1/4 364/1/4 366/1/4
f 367/2/4 368/2/4 374/2/4
f 368/1/4 369/1/4 375/1/4
f 374/2/4 368/2/4 375/2/4
f 369/2/4 370/2/4 376/2/4
f 375/1/4 369/1/4 376/1/4
f 370/1/4 371/1/4 377/1/4
f 376/2/4 370/2/4 377/2/4
f 371/2/4 372/2/4 378/2/4
f 377/1/4 371/1/4 378/1/4
f 378/2/4 372/2/4 379/2/4
f 373/1/4 374/1/4 380/1/4
f 380/1/4 374/1/4 381/1/4
f 382/1/4 383/1/4 384/1/4
f 384/1/4 383/1/4 385/1/4
f 385/2/4 386/2/4 391/2/4
f 386/1/4 387/1/4 392/1/4
f 391/2/4 386/2/4 392/2/4
f 387/2/4 388/2/4 393/2/4
f 392/1/4 387/1/4 393/1/4
f 388/1/4 389/1/4 394/1/4
f 393/2/4 388/2/4 394/2/4
f 389/2/4 390/2/4 395/2/4
f 394/1/4 389/1/4 395/1/4
f 395/2/4 390/2/4 396/2/4
f 397/1/4 398/1/4 399/1/4
f 399/1/4 398/1/4 400/1/4
f 401/1/4 402/1/4 403/1/4
f 403/1/4 402/1/4 404/1/4
f 405/1/4 406/1/4 408/1/4
f 408/1/4 406/1/4 409/1/4
f 407/1/4 408/1/4 410/1/4
f 410/1/4 408/1/4 411/1/4
f 412/1/4 413/1/4 415/1/4
f 413/2/4 414/2/4 416/2/4
f 415/1/4 413/1/4 416/1/4
f 416/2/4 414/2/4 417/2/4
f 417/1/4 418/1/4 419/1/4
f 419/1/4 418/1/4 420/1/4
f 421/1/4 422/1/4 423/1/4
f 423/1/4 422/1/4 424/1/4
f 425/1/4 426/1/4 427/1/4
f 427/1/4 426/1/4 428/1/4
f 429/1/4 430/1/4 431/1/4
f 431/1/4 430/1/4 432/1/4
f 431/2/4 432/2/4 433/2/4
f 433/2/4 432/2/4 434/2/4
f 433/1/4 434/1/4 435/1/4
f 435/1/4 434/1/4 436/1/4
f 435/2/4 436/2/4 437/2/4
f 437/2/4 436/2/4 438/2/4
f 437/1/4 438/1/4 439/1/4
f 439/1/4 438/1/4 440/1/4
f 439/2/4 440/2/4 441/2/4
f 441/2/4 440/2/4 442/2/4
f 441/1/4 442/1/4 443/1/4
f 443/1/4 442/1/4 444/1/4
f 447/1/5 446/1/5 445/1/5
f 448/1/5 446/1/5 447/1/5
f 453/1/5 450/1/5 449/1/5
f 454/1/5 450/1/5 453/1/5
f 455/1/5 452/1/5 451/1/5
f 456/1/5 452/1/5 455/1/5
f 461/2/5 458/2/5 457/2/5
f 462/2/5 458/2/5 461/2/5
f 463/1/5 460/1/5 459/1/5
f 464/1/5 460/1/5 463/1/5
f 469/1/5 466/1/5 465/1/5
f 470/1/5 466/1/5 469/1/5
f 471/1/5 468/1/5 467/1/5
f 472/1/5 468/1/5 471/1/5
f 477/1/5 474/1/5 473/1/5
f 478/1/5 474/1/5 477/1/5
f 479/1/5 476/1/5 475/1/5
f 480/1/5 476/1/5 479/1/5
f 485/2/5 482/2/5 481/2/5
f 486/2/5 482/2/5 485/2/5
f 487/2/5 484/2/5 483/2/5
f 488/2/5 484/2/5 487/2/5
f 493/1/5 490/1/5 489/1/5
f 494/1/5 490/1/5 493/1/5
f 495/1/5 492/1/5 491/1/5
f 496/1/5 492/1/5 495/1/5
f 501/1/5 498/1/5 497/1/5
f 502/1/5 498/1/5 501/1/5
f 503/1/5 500/1/5 499/1/5
f 504/1/5 500/1/5 503/1/5
f 509/1/5 506/1/5 505/1/5
f 510/1/5 506/1/5 509/1/5
f 511/1/5 508/1/5 507/1/5
f 512/1/5 508/1/5 511/1/5
f 517/2/5 516/2/5 515/2/5
f 518/2/5 516/2/5 517/2/5
f 519/2/5 514/2/5 513/2/5
f 520/2/5 514/2/5 519/2/5
f 521/1/5 518/1/5 517/1/5
f 522/1/5 518/1/5 521/1/5
f 523/1/5 520/1/5 519/1/5
f 524/1/5 520/1/5 523/1/5
f 525/2/5 524/2/5 523/2/5
f 526/2/5 524/2/5 525/2/5
f 527/1/5 526/1/5 525/1/5
f 528/1/5 526/1/5 527/1/5
f 529/2/5 522/2/5 521/2/5
f 530/2/5 522/2/5 529/2/5
f 531/1/5 530/1/5 529/1/5
f 532/1/5 530/1/5 531/1/5
f 533/2/5 528/2/5 527/2/5
f 534/2/5 528/2/5 533/2/5
f 535/2/5 532/2/5 531/2/5
f 536/2/5 532/2/5 535/2/5
f 537/1/5 534/1/5 533/1/5
f 538/1/5 534/1/5 537/1/5
f 539/1/5 536/1/5 535/1/5
f 540/1/5 536/1/5 539/1/5
f 541/2/5 538/2/5 537/2/5
f 542/2/5 538/2/5 541/2/5
f 543/2/5 540/2/5 539/2/5
f 544/2/5 540/2/5 543/2/5
f 545/1/5 542/1/5 541/1/5
f 546/1/5 542/1/5 545/1/5
f 553/1/5 544/1/5 543/1/5
f 554/1/5 544/1/5 553/1/5
f 555/1/5 547/1/5 546/1/5
f 556/2/5 548/2/5 547/2/5
f 556/1/5 547/1/5 555/1/5
f 557/1/5 549/1/5 548/1/5
f 557/2/5 548/2/5 556/2/5
f 558/2/5 550/2/5 549/2/5
f 558/1/5 549/1/5 557/1/5
f 559/1/5 551/1/5 550/1/5
f 559/2/5 550/2/5 558/2/5
f 560/2/5 552/2/5 551/2/5
f 560/1/5 551/1/5 559/1/5
f 561/1/5 553/1/5 552/1/5
f 561/2/5 552/2/5 560/2/5
f 562/1/5 553/1/5 561/1/5
f 563/1/6 564/1/6 567/1/6
f 567/1/6 564/1/6 568/1/6
f 565/1/6 566/1/6 569/1/6
f 569/1/6 566/1/6 570/1/6
f 571/1/6 572/1/6 573/1/6
f 573/1/6 572/1/6 574/1/6
f 575/2/6 576/2/6 579/2/6
f 579/2/6 576/2/6 580/2/6
f 577/1/6 578/1/6 581/1/6
f 581/1/6 578/1/6 582/1/6
f 583/1/6 584/1/6 587/1/6
f 587/1/6 584/1/6 588/1/6
f 585/1/6 586/1/6 589/1/6
f 589/1/6 586/1/6 590/1/6
f 591/1/6 592/1/6 595/1/6
f 595/1/6 592/1/6 596/1/6
f 593/1/6 594/1/6 597/1/6
f 597/1/6 594/1/6 598/1/6
f 599/2/6 600/2/6 603/2/6
f 603/2/6 600/2/6 604/2/6
f 601/2/6 602/2/6 605/2/6
f 605/2/6 602/2/6 606/2/6
f 607/1/6 608/1/6 611/1/6
f 611/1/6 608/1/6 612/1/6
f 609/1/6 610/1/6 613/1/6
f 613/1/6 610/1/6 614/1/6
f 615/1/6 616/1/6 619/1/6
f 619/1/6 616/1/6 620/1/6
f 617/2/6 618/2/6 621/2/6
f 621/2/6 618/2/6 622/2/6
f 623/1/6 624/1/6 627/1/6
f 627/1/6 624/1/6 628/1/6
f 625/1/6 626/1/6 629/1/6
f 629/1/6 626/1/6 630/1/6
f 633/2/6 634/2/6 635/2/6
f 635/2/6 634/2/6 636/2/6
f 631/2/6 632/2/6 637/2/6
f 637/2/6 632/2/6 638/2/6
f 635/1/6 636/1/6 639/1/6
f 639/1/6 636/1/6 640/1/6
f 637/1/6 638/1/6 641/1/6
f 641/1/6 638/1/6 642/1/6
f 641/2/6 642/2/6 643/2/6
f 643/2/6 642/2/6 644/2/6
f 643/1/6 644/1/6 645/1/6
f 645/1/6 644/1/6 646/1/6
f 639/2/6 640/2/6 647/2/6
f 647/2/6 640/2/6 648/2/6
f 647/1/6 648/1/6 649/1/6
f 649/1/6 648/1/6 650/1/6
f 645/2/6 646/2/6 651/2/6
f 651/2/6 646/2/6 652/2/6
f 649/2/6 650/2/6 653/2/6
f 653/2/6 650/2/6 654/2/6
f 651/1/6 652/1/6 655/1/6
f 655/1/6 652/1/6 656/1/6
f 653/1/6 654/1/6 657/1/6
f 657/1/6 654/1/6 658/1/6
f 655/2/6 656/2/6 659/2/6
f 659/2/6 656/2/6 660/2/6
f 657/2/6 658/2/6 661/2/6
f 661/2/6 658/2/6 662/2/6
f 659/1/6 660/1/6 663/1/6
f 663/1/6 660/1/6 664/1/6
f 661/1/6 662/1/6 671/1/6
f 671/1/6 662/1/6 672/1/6
f 664/1/6 665/1/6 673/1/6
f 665/2/6 666/2/6 674/2/6
f 673/1/6 665/1/6 674/1/6
f 666/1/6 667/1/6 675/1/6
f 674/2/6 666/2/6 675/2/6
f 667/2/6 668/2/6 676/2/6
f 675/1/6 667/1/6 676/1/6
f 668/1/6 669/1/6 677/1/6
f 676/2/6 668/2/6 677/2/6
f 669/2/6 670/2/6 678/2/6
f 677/1/6 669/1/6 678/1/6
f 670/1/6 671/1/6 679/1/6
f 678/2/6 670/2/6 679/2/6
f 679/1/6 671/1/6 680/1/6
