# MagicaVoxel @ Ephtracy

# group
o 

# material
mtllib Bluehorns-0.mtl
usemtl palette

# normals
vn -1 0 0
vn 1 0 0
vn 0 0 1
vn 0 0 -1
vn 0 -1 0
vn 0 1 0

# texcoords
vt 0.603516 0.5
vt 0.611328 0.5

# verts
v -3.7 12.5 1.1
v -3.7 12.5 0.3
v -3.7 12.9 1.1
v -3.7 12.9 0.3
v -3.7 13.3 1.1
v -3.7 13.3 0.3
v -3.7 13.7 1.1
v -3.7 13.7 0.3
v -3.3 11.7 1.1
v -3.3 11.7 0.3
v -3.3 12.1 1.5
v -3.3 12.1 1.1
v -3.3 12.1 0.3
v -3.3 12.1 -0.1
v -3.3 12.5 1.1
v -3.3 12.5 0.3
v -3.3 12.9 1.5
v -3.3 12.9 1.1
v -3.3 12.9 0.3
v -3.3 12.9 -0.1
v -3.3 13.3 0.3
v -3.3 13.3 -0.1
v -3.3 13.7 1.1
v -3.3 13.7 0.3
v -3.3 14.1 1.1
v -3.3 14.1 0.7
v -3.3 14.1 0.3
v -3.3 14.5 0.7
v -3.3 14.5 0.3
v -2.9 11.7 1.5
v -2.9 11.7 1.1
v -2.9 12.1 1.5
v -2.9 12.1 1.1
v -2.9 13.3 0.3
v -2.9 13.3 -0.1
v -2.9 13.7 0.3
v -2.9 13.7 -0.1
v -2.9 14.1 1.1
v -2.9 14.1 0.7
v -2.9 14.1 0.3
v -2.9 14.1 -0.1
v -2.9 14.5 0.7
v -2.9 14.5 0.3
v -2.9 14.5 -0.1
v -2.9 15.3 1.1
v -2.9 15.3 0.3
v -2.5 11.7 0.3
v -2.5 11.7 -0.1
v -2.5 12.1 0.3
v -2.5 12.1 -0.1
v 4.3 11.7 1.5
v 4.3 11.7 -0.1
v 4.3 12.1 1.5
v 4.3 12.1 0.2
v 4.3 12.1 -0.1
v 4.3 12.9 1.5
v 4.3 12.9 0.2
v 4.7 12.1 0.2
v 4.7 12.1 -0.1
v 4.7 12.5 0.2
v 4.7 12.5 -0.1
v 4.7 12.9 1.1
v 4.7 12.9 0.2
v 4.7 13.3 1.1
v 4.7 13.3 0.2
v 5.1 12.5 0.2
v 5.1 12.5 -0.1
v 5.1 12.9 0.2
v 5.1 12.9 -0.1
v 5.1 13.3 1.1
v 5.1 13.3 0.2
v 5.1 13.3 -0.1
v 5.1 13.7 1.1
v 5.1 13.7 -0.1
v 5.1 14.1 1.1
v 5.1 14.1 -0.1
v 5.1 14.5 0.3
v 5.1 14.5 -0.1
v 5.1 15.3 1.1
v 5.1 15.3 0.3
v -2.5 12.5 0.2
v -2.5 12.5 -0.1
v -2.5 12.9 0.2
v -2.5 12.9 -0.1
v -2.5 13.3 1.1
v -2.5 13.3 0.2
v -2.5 13.3 -0.1
v -2.5 13.7 1.1
v -2.5 13.7 -0.1
v -2.5 14.1 1.1
v -2.5 14.1 -0.1
v -2.5 14.5 0.3
v -2.5 14.5 -0.1
v -2.5 15.3 1.1
v -2.5 15.3 0.3
v -2.1 12.1 0.2
v -2.1 12.1 -0.1
v -2.1 12.5 0.2
v -2.1 12.5 -0.1
v -2.1 12.9 1.1
v -2.1 12.9 0.2
v -2.1 13.3 1.1
v -2.1 13.3 0.2
v -1.7 11.7 1.5
v -1.7 11.7 -0.1
v -1.7 12.1 1.5
v -1.7 12.1 0.2
v -1.7 12.1 -0.1
v -1.7 12.9 1.5
v -1.7 12.9 0.2
v 5.1 11.7 0.3
v 5.1 11.7 -0.1
v 5.1 12.1 0.3
v 5.1 12.1 -0.1
v 5.5 11.7 1.5
v 5.5 11.7 1.1
v 5.5 12.1 1.5
v 5.5 12.1 1.1
v 5.5 13.3 0.3
v 5.5 13.3 -0.1
v 5.5 13.7 0.3
v 5.5 13.7 -0.1
v 5.5 14.1 1.1
v 5.5 14.1 0.7
v 5.5 14.1 0.3
v 5.5 14.1 -0.1
v 5.5 14.5 0.7
v 5.5 14.5 0.3
v 5.5 14.5 -0.1
v 5.5 15.3 1.1
v 5.5 15.3 0.3
v 5.9 11.7 1.1
v 5.9 11.7 0.3
v 5.9 12.1 1.5
v 5.9 12.1 1.1
v 5.9 12.1 0.3
v 5.9 12.1 -0.1
v 5.9 12.5 1.1
v 5.9 12.5 0.3
v 5.9 12.9 1.5
v 5.9 12.9 1.1
v 5.9 12.9 0.3
v 5.9 12.9 -0.1
v 5.9 13.3 0.3
v 5.9 13.3 -0.1
v 5.9 13.7 1.1
v 5.9 13.7 0.3
v 5.9 14.1 1.1
v 5.9 14.1 0.7
v 5.9 14.1 0.3
v 5.9 14.5 0.7
v 5.9 14.5 0.3
v 6.3 12.5 1.1
v 6.3 12.5 0.3
v 6.3 12.9 1.1
v 6.3 12.9 0.3
v 6.3 13.3 1.1
v 6.3 13.3 0.3
v 6.3 13.7 1.1
v 6.3 13.7 0.3
v -3.3 12.1 1.5
v -3.3 12.9 1.5
v -2.9 11.7 1.5
v -2.9 12.1 1.5
v -1.7 11.7 1.5
v -1.7 12.1 1.5
v -1.7 12.9 1.5
v 4.3 11.7 1.5
v 4.3 12.1 1.5
v 4.3 12.9 1.5
v 5.5 11.7 1.5
v 5.5 12.1 1.5
v 5.9 12.1 1.5
v 5.9 12.9 1.5
v -3.7 12.5 1.1
v -3.7 12.9 1.1
v -3.7 13.3 1.1
v -3.7 13.7 1.1
v -3.3 11.7 1.1
v -3.3 12.1 1.1
v -3.3 12.5 1.1
v -3.3 12.9 1.1
v -3.3 13.7 1.1
v -3.3 14.1 1.1
v -2.9 11.7 1.1
v -2.9 12.1 1.1
v -2.9 14.1 1.1
v -2.9 15.3 1.1
v -2.5 13.3 1.1
v -2.5 13.7 1.1
v -2.5 14.1 1.1
v -2.5 15.3 1.1
v -2.1 12.9 1.1
v -2.1 13.3 1.1
v 4.7 12.9 1.1
v 4.7 13.3 1.1
v 5.1 13.3 1.1
v 5.1 13.7 1.1
v 5.1 14.1 1.1
v 5.1 15.3 1.1
v 5.5 11.7 1.1
v 5.5 12.1 1.1
v 5.5 14.1 1.1
v 5.5 15.3 1.1
v 5.9 11.7 1.1
v 5.9 12.1 1.1
v 5.9 12.5 1.1
v 5.9 12.9 1.1
v 5.9 13.7 1.1
v 5.9 14.1 1.1
v 6.3 12.5 1.1
v 6.3 12.9 1.1
v 6.3 13.3 1.1
v 6.3 13.7 1.1
v -3.3 14.1 0.7
v -3.3 14.5 0.7
v -2.9 14.1 0.7
v -2.9 14.5 0.7
v 5.5 14.1 0.7
v 5.5 14.5 0.7
v 5.9 14.1 0.7
v 5.9 14.5 0.7
v -3.7 12.5 0.3
v -3.7 12.9 0.3
v -3.7 13.3 0.3
v -3.7 13.7 0.3
v -3.3 11.7 0.3
v -3.3 12.1 0.3
v -3.3 12.5 0.3
v -3.3 12.9 0.3
v -3.3 13.3 0.3
v -3.3 13.7 0.3
v -3.3 14.1 0.3
v -3.3 14.5 0.3
v -2.9 13.3 0.3
v -2.9 13.7 0.3
v -2.9 14.1 0.3
v -2.9 14.5 0.3
v -2.9 15.3 0.3
v -2.5 11.7 0.3
v -2.5 12.1 0.3
v -2.5 14.5 0.3
v -2.5 15.3 0.3
v 5.1 11.7 0.3
v 5.1 12.1 0.3
v 5.1 14.5 0.3
v 5.1 15.3 0.3
v 5.5 13.3 0.3
v 5.5 13.7 0.3
v 5.5 14.1 0.3
v 5.5 14.5 0.3
v 5.5 15.3 0.3
v 5.9 11.7 0.3
v 5.9 12.1 0.3
v 5.9 12.5 0.3
v 5.9 12.9 0.3
v 5.9 13.3 0.3
v 5.9 13.7 0.3
v 5.9 14.1 0.3
v 5.9 14.5 0.3
v 6.3 12.5 0.3
v 6.3 12.9 0.3
v 6.3 13.3 0.3
v 6.3 13.7 0.3
v -2.5 12.5 0.2
v -2.5 12.9 0.2
v -2.5 13.3 0.2
v -2.1 12.1 0.2
v -2.1 12.5 0.2
v -2.1 12.9 0.2
v -2.1 13.3 0.2
v -1.7 12.1 0.2
v -1.7 12.9 0.2
v 4.3 12.1 0.2
v 4.3 12.9 0.2
v 4.7 12.1 0.2
v 4.7 12.5 0.2
v 4.7 12.9 0.2
v 4.7 13.3 0.2
v 5.1 12.5 0.2
v 5.1 12.9 0.2
v 5.1 13.3 0.2
v -3.3 12.1 -0.1
v -3.3 12.9 -0.1
v -3.3 13.3 -0.1
v -2.9 13.3 -0.1
v -2.9 13.7 -0.1
v -2.9 14.1 -0.1
v -2.9 14.5 -0.1
v -2.5 11.7 -0.1
v -2.5 12.1 -0.1
v -2.5 12.5 -0.1
v -2.5 12.9 -0.1
v -2.5 13.3 -0.1
v -2.5 13.7 -0.1
v -2.5 14.1 -0.1
v -2.5 14.5 -0.1
v -2.1 12.1 -0.1
v -2.1 12.5 -0.1
v -1.7 11.7 -0.1
v -1.7 12.1 -0.1
v 4.3 11.7 -0.1
v 4.3 12.1 -0.1
v 4.7 12.1 -0.1
v 4.7 12.5 -0.1
v 5.1 11.7 -0.1
v 5.1 12.1 -0.1
v 5.1 12.5 -0.1
v 5.1 12.9 -0.1
v 5.1 13.3 -0.1
v 5.1 13.7 -0.1
v 5.1 14.1 -0.1
v 5.1 14.5 -0.1
v 5.5 13.3 -0.1
v 5.5 13.7 -0.1
v 5.5 14.1 -0.1
v 5.5 14.5 -0.1
v 5.9 12.1 -0.1
v 5.9 12.9 -0.1
v 5.9 13.3 -0.1
v -2.9 11.7 1.5
v -1.7 11.7 1.5
v 4.3 11.7 1.5
v 5.5 11.7 1.5
v -3.3 11.7 1.1
v -2.9 11.7 1.1
v 5.5 11.7 1.1
v 5.9 11.7 1.1
v -3.3 11.7 0.3
v -2.5 11.7 0.3
v 5.1 11.7 0.3
v 5.9 11.7 0.3
v -2.5 11.7 -0.1
v -1.7 11.7 -0.1
v 4.3 11.7 -0.1
v 5.1 11.7 -0.1
v -3.3 12.1 1.5
v -2.9 12.1 1.5
v 5.5 12.1 1.5
v 5.9 12.1 1.5
v -3.3 12.1 1.1
v -2.9 12.1 1.1
v 5.5 12.1 1.1
v 5.9 12.1 1.1
v -3.3 12.1 0.3
v -2.5 12.1 0.3
v 5.1 12.1 0.3
v 5.9 12.1 0.3
v -3.3 12.1 -0.1
v -2.5 12.1 -0.1
v 5.1 12.1 -0.1
v 5.9 12.1 -0.1
v -3.7 12.5 1.1
v -3.3 12.5 1.1
v 5.9 12.5 1.1
v 6.3 12.5 1.1
v -3.7 12.5 0.3
v -3.3 12.5 0.3
v 5.9 12.5 0.3
v 6.3 12.5 0.3
v -2.1 12.1 0.2
v -1.7 12.1 0.2
v 4.3 12.1 0.2
v 4.7 12.1 0.2
v -2.1 12.1 -0.1
v -1.7 12.1 -0.1
v 4.3 12.1 -0.1
v 4.7 12.1 -0.1
v -2.5 12.5 0.2
v -2.1 12.5 0.2
v 4.7 12.5 0.2
v 5.1 12.5 0.2
v -2.5 12.5 -0.1
v -2.1 12.5 -0.1
v 4.7 12.5 -0.1
v 5.1 12.5 -0.1
v -3.3 12.9 1.5
v -1.7 12.9 1.5
v 4.3 12.9 1.5
v 5.9 12.9 1.5
v -3.3 12.9 1.1
v -2.1 12.9 1.1
v 4.7 12.9 1.1
v 5.9 12.9 1.1
v -2.1 12.9 0.2
v -1.7 12.9 0.2
v 4.3 12.9 0.2
v 4.7 12.9 0.2
v -2.5 13.3 1.1
v -2.1 13.3 1.1
v 4.7 13.3 1.1
v 5.1 13.3 1.1
v -3.3 13.3 0.3
v -2.9 13.3 0.3
v 5.5 13.3 0.3
v 5.9 13.3 0.3
v -2.5 13.3 0.2
v -2.1 13.3 0.2
v 4.7 13.3 0.2
v 5.1 13.3 0.2
v -3.3 13.3 -0.1
v -2.9 13.3 -0.1
v 5.5 13.3 -0.1
v 5.9 13.3 -0.1
v -3.7 13.7 1.1
v -3.3 13.7 1.1
v 5.9 13.7 1.1
v 6.3 13.7 1.1
v -3.7 13.7 0.3
v -3.3 13.7 0.3
v 5.9 13.7 0.3
v 6.3 13.7 0.3
v -3.3 14.1 1.1
v -2.9 14.1 1.1
v 5.5 14.1 1.1
v 5.9 14.1 1.1
v -3.3 14.1 0.7
v -2.9 14.1 0.7
v 5.5 14.1 0.7
v 5.9 14.1 0.7
v -3.3 14.5 0.7
v -2.9 14.5 0.7
v 5.5 14.5 0.7
v 5.9 14.5 0.7
v -3.3 14.5 0.3
v -2.9 14.5 0.3
v -2.5 14.5 0.3
v 5.1 14.5 0.3
v 5.5 14.5 0.3
v 5.9 14.5 0.3
v -2.9 14.5 -0.1
v -2.5 14.5 -0.1
v 5.1 14.5 -0.1
v 5.5 14.5 -0.1
v -2.9 15.3 1.1
v -2.5 15.3 1.1
v 5.1 15.3 1.1
v 5.5 15.3 1.1
v -2.9 15.3 0.3
v -2.5 15.3 0.3
v 5.1 15.3 0.3
v 5.5 15.3 0.3

# faces
f 3/1/1 2/1/1 1/1/1
f 4/1/1 2/1/1 3/1/1
f 5/2/1 4/2/1 3/2/1
f 6/2/1 4/2/1 5/2/1
f 7/1/1 6/1/1 5/1/1
f 8/1/1 6/1/1 7/1/1
f 12/2/1 10/2/1 9/2/1
f 13/2/1 10/2/1 12/2/1
f 15/1/1 12/1/1 11/1/1
f 15/1/1 14/1/1 13/1/1
f 15/1/1 13/1/1 12/1/1
f 16/1/1 14/1/1 15/1/1
f 17/1/1 15/1/1 11/1/1
f 18/1/1 15/1/1 17/1/1
f 19/1/1 14/1/1 16/1/1
f 20/1/1 14/1/1 19/1/1
f 21/2/1 20/2/1 19/2/1
f 22/2/1 20/2/1 21/2/1
f 25/2/1 24/2/1 23/2/1
f 26/2/1 24/2/1 25/2/1
f 27/2/1 24/2/1 26/2/1
f 28/1/1 27/1/1 26/1/1
f 29/1/1 27/1/1 28/1/1
f 32/2/1 31/2/1 30/2/1
f 33/2/1 31/2/1 32/2/1
f 36/1/1 35/1/1 34/1/1
f 37/1/1 35/1/1 36/1/1
f 40/2/1 37/2/1 36/2/1
f 41/2/1 37/2/1 40/2/1
f 42/1/1 39/1/1 38/1/1
f 43/1/1 41/1/1 40/1/1
f 44/1/1 41/1/1 43/1/1
f 45/1/1 42/1/1 38/1/1
f 45/1/1 43/1/1 42/1/1
f 46/1/1 43/1/1 45/1/1
f 49/2/1 48/2/1 47/2/1
f 50/2/1 48/2/1 49/2/1
f 53/2/1 52/2/1 51/2/1
f 54/2/1 52/2/1 53/2/1
f 55/2/1 52/2/1 54/2/1
f 56/1/1 54/1/1 53/1/1
f 57/1/1 54/1/1 56/1/1
f 60/1/1 59/1/1 58/1/1
f 61/1/1 59/1/1 60/1/1
f 64/2/1 63/2/1 62/2/1
f 65/2/1 63/2/1 64/2/1
f 68/1/1 67/1/1 66/1/1
f 69/1/1 67/1/1 68/1/1
f 71/2/1 69/2/1 68/2/1
f 72/2/1 69/2/1 71/2/1
f 73/1/1 71/1/1 70/1/1
f 73/1/1 72/1/1 71/1/1
f 74/1/1 72/1/1 73/1/1
f 75/2/1 74/2/1 73/2/1
f 76/2/1 74/2/1 75/2/1
f 77/1/1 76/1/1 75/1/1
f 78/1/1 76/1/1 77/1/1
f 79/1/1 77/1/1 75/1/1
f 80/1/1 77/1/1 79/1/1
f 81/1/2 82/1/2 83/1/2
f 83/1/2 82/1/2 84/1/2
f 83/2/2 84/2/2 86/2/2
f 86/2/2 84/2/2 87/2/2
f 85/1/2 86/1/2 88/1/2
f 86/1/2 87/1/2 88/1/2
f 88/1/2 87/1/2 89/1/2
f 88/2/2 89/2/2 90/2/2
f 90/2/2 89/2/2 91/2/2
f 90/1/2 91/1/2 92/1/2
f 92/1/2 91/1/2 93/1/2
f 90/1/2 92/1/2 94/1/2
f 94/1/2 92/1/2 95/1/2
f 96/1/2 97/1/2 98/1/2
f 98/1/2 97/1/2 99/1/2
f 100/2/2 101/2/2 102/2/2
f 102/2/2 101/2/2 103/2/2
f 104/2/2 105/2/2 106/2/2
f 106/2/2 105/2/2 107/2/2
f 107/2/2 105/2/2 108/2/2
f 106/1/2 107/1/2 109/1/2
f 109/1/2 107/1/2 110/1/2
f 111/2/2 112/2/2 113/2/2
f 113/2/2 112/2/2 114/2/2
f 115/2/2 116/2/2 117/2/2
f 117/2/2 116/2/2 118/2/2
f 119/1/2 120/1/2 121/1/2
f 121/1/2 120/1/2 122/1/2
f 121/2/2 122/2/2 125/2/2
f 125/2/2 122/2/2 126/2/2
f 123/1/2 124/1/2 127/1/2
f 125/1/2 126/1/2 128/1/2
f 128/1/2 126/1/2 129/1/2
f 123/1/2 127/1/2 130/1/2
f 127/1/2 128/1/2 130/1/2
f 130/1/2 128/1/2 131/1/2
f 132/2/2 133/2/2 135/2/2
f 135/2/2 133/2/2 136/2/2
f 134/1/2 135/1/2 138/1/2
f 136/1/2 137/1/2 138/1/2
f 135/1/2 136/1/2 138/1/2
f 138/1/2 137/1/2 139/1/2
f 134/1/2 138/1/2 140/1/2
f 140/1/2 138/1/2 141/1/2
f 139/1/2 137/1/2 142/1/2
f 142/1/2 137/1/2 143/1/2
f 142/2/2 143/2/2 144/2/2
f 144/2/2 143/2/2 145/2/2
f 146/2/2 147/2/2 148/2/2
f 148/2/2 147/2/2 149/2/2
f 149/2/2 147/2/2 150/2/2
f 149/1/2 150/1/2 151/1/2
f 151/1/2 150/1/2 152/1/2
f 153/1/2 154/1/2 155/1/2
f 155/1/2 154/1/2 156/1/2
f 155/2/2 156/2/2 157/2/2
f 157/2/2 156/2/2 158/2/2
f 157/1/2 158/1/2 159/1/2
f 159/1/2 158/1/2 160/1/2
f 164/1/3 162/1/3 161/1/3
f 165/2/3 164/2/3 163/2/3
f 166/1/3 162/1/3 164/1/3
f 166/2/3 164/2/3 165/2/3
f 167/1/3 162/1/3 166/1/3
f 171/2/3 169/2/3 168/2/3
f 172/1/3 170/1/3 169/1/3
f 172/2/3 169/2/3 171/2/3
f 173/1/3 170/1/3 172/1/3
f 174/1/3 170/1/3 173/1/3
f 181/1/3 176/1/3 175/1/3
f 182/2/3 177/2/3 176/2/3
f 182/1/3 176/1/3 181/1/3
f 183/1/3 178/1/3 177/1/3
f 185/2/3 180/2/3 179/2/3
f 186/2/3 180/2/3 185/2/3
f 187/2/3 184/2/3 183/2/3
f 189/2/3 177/2/3 182/2/3
f 189/1/3 183/1/3 177/1/3
f 190/2/3 187/2/3 183/2/3
f 190/1/3 183/1/3 189/1/3
f 191/1/3 188/1/3 187/1/3
f 191/2/3 187/2/3 190/2/3
f 192/1/3 188/1/3 191/1/3
f 193/2/3 189/2/3 182/2/3
f 194/2/3 189/2/3 193/2/3
f 197/2/3 196/2/3 195/2/3
f 203/2/3 199/2/3 198/2/3
f 203/1/3 200/1/3 199/1/3
f 204/1/3 200/1/3 203/1/3
f 205/2/3 202/2/3 201/2/3
f 206/2/3 202/2/3 205/2/3
f 208/2/3 197/2/3 195/2/3
f 209/1/3 198/1/3 197/1/3
f 209/2/3 203/2/3 198/2/3
f 210/2/3 203/2/3 209/2/3
f 211/1/3 208/1/3 207/1/3
f 212/2/3 197/2/3 208/2/3
f 212/1/3 208/1/3 211/1/3
f 213/1/3 209/1/3 197/1/3
f 213/2/3 197/2/3 212/2/3
f 214/1/3 209/1/3 213/1/3
f 217/1/3 216/1/3 215/1/3
f 218/1/3 216/1/3 217/1/3
f 221/1/3 220/1/3 219/1/3
f 222/1/3 220/1/3 221/1/3
f 223/1/4 224/1/4 229/1/4
f 224/2/4 225/2/4 230/2/4
f 229/1/4 224/1/4 230/1/4
f 225/1/4 226/1/4 231/1/4
f 230/2/4 225/2/4 231/2/4
f 231/1/4 226/1/4 232/1/4
f 231/1/4 232/1/4 235/1/4
f 232/2/4 233/2/4 236/2/4
f 235/1/4 232/1/4 236/1/4
f 233/1/4 234/1/4 237/1/4
f 236/2/4 233/2/4 237/2/4
f 237/1/4 234/1/4 238/1/4
f 227/2/4 228/2/4 240/2/4
f 240/2/4 228/2/4 241/2/4
f 238/1/4 239/1/4 242/1/4
f 242/1/4 239/1/4 243/1/4
f 246/1/4 247/1/4 251/1/4
f 251/1/4 247/1/4 252/1/4
f 244/2/4 245/2/4 253/2/4
f 253/2/4 245/2/4 254/2/4
f 248/1/4 249/1/4 257/1/4
f 249/2/4 250/2/4 258/2/4
f 257/1/4 249/1/4 258/1/4
f 250/1/4 251/1/4 259/1/4
f 258/2/4 250/2/4 259/2/4
f 259/1/4 251/1/4 260/1/4
f 255/1/4 256/1/4 261/1/4
f 256/2/4 257/2/4 262/2/4
f 261/1/4 256/1/4 262/1/4
f 257/1/4 258/1/4 263/1/4
f 262/2/4 257/2/4 263/2/4
f 263/1/4 258/1/4 264/1/4
f 265/1/4 266/1/4 269/1/4
f 266/2/4 267/2/4 270/2/4
f 269/1/4 266/1/4 270/1/4
f 270/2/4 267/2/4 271/2/4
f 268/1/4 269/1/4 272/1/4
f 269/1/4 270/1/4 272/1/4
f 272/1/4 270/1/4 273/1/4
f 274/1/4 275/1/4 276/1/4
f 276/1/4 275/1/4 277/1/4
f 277/1/4 275/1/4 278/1/4
f 277/1/4 278/1/4 280/1/4
f 278/2/4 279/2/4 281/2/4
f 280/1/4 278/1/4 281/1/4
f 281/2/4 279/2/4 282/2/4
f 284/2/4 285/2/4 286/2/4
f 283/1/4 284/1/4 291/1/4
f 291/1/4 284/1/4 292/1/4
f 284/2/4 286/2/4 293/2/4
f 292/1/4 284/1/4 293/1/4
f 286/1/4 287/1/4 294/1/4
f 293/2/4 286/2/4 294/2/4
f 287/2/4 288/2/4 295/2/4
f 294/1/4 287/1/4 295/1/4
f 288/1/4 289/1/4 296/1/4
f 295/2/4 288/2/4 296/2/4
f 296/1/4 289/1/4 297/1/4
f 291/1/4 292/1/4 298/1/4
f 290/2/4 291/2/4 298/2/4
f 298/1/4 292/1/4 299/1/4
f 290/2/4 298/2/4 300/2/4
f 300/2/4 298/2/4 301/2/4
f 302/2/4 303/2/4 304/2/4
f 302/2/4 304/2/4 306/2/4
f 304/1/4 305/1/4 307/1/4
f 306/2/4 304/2/4 307/2/4
f 307/1/4 305/1/4 308/1/4
f 309/2/4 310/2/4 314/2/4
f 310/1/4 311/1/4 314/1/4
f 311/2/4 312/2/4 315/2/4
f 314/1/4 311/1/4 315/1/4
f 312/1/4 313/1/4 316/1/4
f 315/2/4 312/2/4 316/2/4
f 316/1/4 313/1/4 317/1/4
f 307/1/4 308/1/4 318/1/4
f 308/1/4 309/1/4 318/1/4
f 309/2/4 314/2/4 319/2/4
f 318/1/4 309/1/4 319/1/4
f 319/2/4 314/2/4 320/2/4
f 326/2/5 322/2/5 321/2/5
f 327/2/5 324/2/5 323/2/5
f 329/2/5 326/2/5 325/2/5
f 330/2/5 322/2/5 326/2/5
f 330/2/5 326/2/5 329/2/5
f 331/2/5 328/2/5 327/2/5
f 331/2/5 327/2/5 323/2/5
f 332/2/5 328/2/5 331/2/5
f 333/2/5 322/2/5 330/2/5
f 334/2/5 322/2/5 333/2/5
f 335/2/5 331/2/5 323/2/5
f 336/2/5 331/2/5 335/2/5
f 341/1/5 338/1/5 337/1/5
f 342/1/5 338/1/5 341/1/5
f 343/1/5 340/1/5 339/1/5
f 344/1/5 340/1/5 343/1/5
f 349/1/5 346/1/5 345/1/5
f 350/1/5 346/1/5 349/1/5
f 351/1/5 348/1/5 347/1/5
f 352/1/5 348/1/5 351/1/5
f 357/1/5 354/1/5 353/1/5
f 358/1/5 354/1/5 357/1/5
f 359/1/5 356/1/5 355/1/5
f 360/1/5 356/1/5 359/1/5
f 361/2/6 362/2/6 365/2/6
f 365/2/6 362/2/6 366/2/6
f 363/2/6 364/2/6 367/2/6
f 367/2/6 364/2/6 368/2/6
f 369/1/6 370/1/6 373/1/6
f 373/1/6 370/1/6 374/1/6
f 371/1/6 372/1/6 375/1/6
f 375/1/6 372/1/6 376/1/6
f 377/1/6 378/1/6 381/1/6
f 381/1/6 378/1/6 382/1/6
f 379/1/6 380/1/6 383/1/6
f 383/1/6 380/1/6 384/1/6
f 382/1/6 378/1/6 385/1/6
f 385/1/6 378/1/6 386/1/6
f 379/1/6 383/1/6 387/1/6
f 387/1/6 383/1/6 388/1/6
f 389/2/6 390/2/6 397/2/6
f 397/2/6 390/2/6 398/2/6
f 391/2/6 392/2/6 399/2/6
f 399/2/6 392/2/6 400/2/6
f 393/2/6 394/2/6 401/2/6
f 401/2/6 394/2/6 402/2/6
f 395/2/6 396/2/6 403/2/6
f 403/2/6 396/2/6 404/2/6
f 405/1/6 406/1/6 409/1/6
f 409/1/6 406/1/6 410/1/6
f 407/1/6 408/1/6 411/1/6
f 411/1/6 408/1/6 412/1/6
f 413/2/6 414/2/6 417/2/6
f 417/2/6 414/2/6 418/2/6
f 415/2/6 416/2/6 419/2/6
f 419/2/6 416/2/6 420/2/6
f 421/1/6 422/1/6 425/1/6
f 425/1/6 422/1/6 426/1/6
f 423/1/6 424/1/6 429/1/6
f 429/1/6 424/1/6 430/1/6
f 426/1/6 427/1/6 431/1/6
f 431/1/6 427/1/6 432/1/6
f 428/1/6 429/1/6 433/1/6
f 433/1/6 429/1/6 434/1/6
f 435/1/6 436/1/6 439/1/6
f 439/1/6 436/1/6 440/1/6
f 437/1/6 438/1/6 441/1/6
f 441/1/6 438/1/6 442/1/6
